<?xml version="1.0" encoding="UTF-8" standalone="no"?>
<!DOCTYPE svg PUBLIC "-//W3C//DTD SVG 1.1//EN"
 "http://www.w3.org/Graphics/SVG/1.1/DTD/svg11.dtd">
<!-- Generated by graphviz version 2.43.0 (0)
 -->
<!-- Title: dependency&#45;cruiser output Pages: 1 -->
<svg width="776pt" height="532pt"
 viewBox="0.00 0.00 775.50 532.00" xmlns="http://www.w3.org/2000/svg" xmlns:xlink="http://www.w3.org/1999/xlink">
<g id="graph0" class="graph" transform="scale(1 1) rotate(0) translate(4 528)">
<title>dependency&#45;cruiser output</title>
<polygon fill="white" stroke="transparent" points="-4,4 -4,-528 771.5,-528 771.5,4 -4,4"/>
<g id="clust1" class="cluster">
<title>cluster_src</title>
<path fill="#ffffff" stroke="black" stroke-width="2" d="M20,-8C20,-8 747.5,-8 747.5,-8 753.5,-8 759.5,-14 759.5,-20 759.5,-20 759.5,-504 759.5,-504 759.5,-510 753.5,-516 747.5,-516 747.5,-516 20,-516 20,-516 14,-516 8,-510 8,-504 8,-504 8,-20 8,-20 8,-14 14,-8 20,-8"/>
<text text-anchor="middle" x="383.75" y="-504.8" font-family="Helvetica,sans-Serif" font-weight="bold" font-size="9.00">src</text>
</g>
<g id="clust2" class="cluster">
<title>cluster_src/app</title>
<path fill="#ffffff" stroke="black" stroke-width="2" d="M28,-52C28,-52 195.5,-52 195.5,-52 201.5,-52 207.5,-58 207.5,-64 207.5,-64 207.5,-182 207.5,-182 207.5,-188 201.5,-194 195.5,-194 195.5,-194 28,-194 28,-194 22,-194 16,-188 16,-182 16,-182 16,-64 16,-64 16,-58 22,-52 28,-52"/>
<text text-anchor="middle" x="111.75" y="-182.8" font-family="Helvetica,sans-Serif" font-weight="bold" font-size="9.00">app</text>
</g>
<g id="clust3" class="cluster">
<title>cluster_src/app/timer</title>
<path fill="#ffffff" stroke="black" stroke-width="2" d="M36,-116C36,-116 84,-116 84,-116 90,-116 96,-122 96,-128 96,-128 96,-156 96,-156 96,-162 90,-168 84,-168 84,-168 36,-168 36,-168 30,-168 24,-162 24,-156 24,-156 24,-128 24,-128 24,-122 30,-116 36,-116"/>
<text text-anchor="middle" x="60" y="-156.8" font-family="Helvetica,sans-Serif" font-weight="bold" font-size="9.00">timer</text>
</g>
<g id="clust4" class="cluster">
<title>cluster_src/client</title>
<path fill="#ffffff" stroke="black" stroke-width="2" d="M116,-238C116,-238 574.5,-238 574.5,-238 580.5,-238 586.5,-244 586.5,-250 586.5,-250 586.5,-478 586.5,-478 586.5,-484 580.5,-490 574.5,-490 574.5,-490 116,-490 116,-490 110,-490 104,-484 104,-478 104,-478 104,-250 104,-250 104,-244 110,-238 116,-238"/>
<text text-anchor="middle" x="345.25" y="-478.8" font-family="Helvetica,sans-Serif" font-weight="bold" font-size="9.00">client</text>
</g>
<g id="clust5" class="cluster">
<title>cluster_src/client/components</title>
<path fill="#ffffff" stroke="black" stroke-width="2" d="M124,-306C124,-306 401,-306 401,-306 407,-306 413,-312 413,-318 413,-318 413,-436 413,-436 413,-442 407,-448 401,-448 401,-448 124,-448 124,-448 118,-448 112,-442 112,-436 112,-436 112,-318 112,-318 112,-312 118,-306 124,-306"/>
<text text-anchor="middle" x="262.5" y="-436.8" font-family="Helvetica,sans-Serif" font-weight="bold" font-size="9.00">components</text>
</g>
<g id="clust6" class="cluster">
<title>cluster_src/client/components/ui</title>
<path fill="#ffffff" stroke="black" stroke-width="2" d="M334.5,-314C334.5,-314 390.5,-314 390.5,-314 396.5,-314 402.5,-320 402.5,-326 402.5,-326 402.5,-384 402.5,-384 402.5,-390 396.5,-396 390.5,-396 390.5,-396 334.5,-396 334.5,-396 328.5,-396 322.5,-390 322.5,-384 322.5,-384 322.5,-326 322.5,-326 322.5,-320 328.5,-314 334.5,-314"/>
<text text-anchor="middle" x="362.5" y="-384.8" font-family="Helvetica,sans-Serif" font-weight="bold" font-size="9.00">ui</text>
</g>
<g id="clust7" class="cluster">
<title>cluster_src/client/hooks</title>
<path fill="#ffffff" stroke="black" stroke-width="2" d="M433,-412C433,-412 566.5,-412 566.5,-412 572.5,-412 578.5,-418 578.5,-424 578.5,-424 578.5,-452 578.5,-452 578.5,-458 572.5,-464 566.5,-464 566.5,-464 433,-464 433,-464 427,-464 421,-458 421,-452 421,-452 421,-424 421,-424 421,-418 427,-412 433,-412"/>
<text text-anchor="middle" x="499.75" y="-452.8" font-family="Helvetica,sans-Serif" font-weight="bold" font-size="9.00">hooks</text>
</g>
<g id="clust8" class="cluster">
<title>cluster_src/client/styles</title>
<path fill="#ffffff" stroke="black" stroke-width="2" d="M137.5,-246C137.5,-246 194.5,-246 194.5,-246 200.5,-246 206.5,-252 206.5,-258 206.5,-258 206.5,-286 206.5,-286 206.5,-292 200.5,-298 194.5,-298 194.5,-298 137.5,-298 137.5,-298 131.5,-298 125.5,-292 125.5,-286 125.5,-286 125.5,-258 125.5,-258 125.5,-252 131.5,-246 137.5,-246"/>
<text text-anchor="middle" x="166" y="-286.8" font-family="Helvetica,sans-Serif" font-weight="bold" font-size="9.00">styles</text>
</g>
<g id="clust9" class="cluster">
<title>cluster_src/lib</title>
<path fill="#ffffff" stroke="black" stroke-width="2" d="M511,-22C511,-22 652.5,-22 652.5,-22 658.5,-22 664.5,-28 664.5,-34 664.5,-34 664.5,-92 664.5,-92 664.5,-98 658.5,-104 652.5,-104 652.5,-104 511,-104 511,-104 505,-104 499,-98 499,-92 499,-92 499,-34 499,-34 499,-28 505,-22 511,-22"/>
<text text-anchor="middle" x="581.75" y="-92.8" font-family="Helvetica,sans-Serif" font-weight="bold" font-size="9.00">lib</text>
</g>
<g id="clust10" class="cluster">
<title>cluster_src/server</title>
<path fill="#ffffff" stroke="black" stroke-width="2" d="M503,-112C503,-112 739.5,-112 739.5,-112 745.5,-112 751.5,-118 751.5,-124 751.5,-124 751.5,-218 751.5,-218 751.5,-224 745.5,-230 739.5,-230 739.5,-230 503,-230 503,-230 497,-230 491,-224 491,-218 491,-218 491,-124 491,-124 491,-118 497,-112 503,-112"/>
<text text-anchor="middle" x="621.25" y="-218.8" font-family="Helvetica,sans-Serif" font-weight="bold" font-size="9.00">server</text>
</g>
<g id="clust11" class="cluster">
<title>cluster_src/server/actions</title>
<path fill="#ffffff" stroke="black" stroke-width="2" d="M511,-126C511,-126 557,-126 557,-126 563,-126 569,-132 569,-138 569,-138 569,-166 569,-166 569,-172 563,-178 557,-178 557,-178 511,-178 511,-178 505,-178 499,-172 499,-166 499,-166 499,-138 499,-138 499,-132 505,-126 511,-126"/>
<text text-anchor="middle" x="534" y="-166.8" font-family="Helvetica,sans-Serif" font-weight="bold" font-size="9.00">actions</text>
</g>
<g id="clust12" class="cluster">
<title>cluster_src/server/db</title>
<path fill="#ffffff" stroke="black" stroke-width="2" d="M606.5,-126C606.5,-126 731.5,-126 731.5,-126 737.5,-126 743.5,-132 743.5,-138 743.5,-138 743.5,-166 743.5,-166 743.5,-172 737.5,-178 731.5,-178 731.5,-178 606.5,-178 606.5,-178 600.5,-178 594.5,-172 594.5,-166 594.5,-166 594.5,-138 594.5,-138 594.5,-132 600.5,-126 606.5,-126"/>
<text text-anchor="middle" x="669" y="-166.8" font-family="Helvetica,sans-Serif" font-weight="bold" font-size="9.00">db</text>
</g>
<!-- src/app/layout.tsx -->
<g id="node1" class="node">
<title>src/app/layout.tsx</title>
<g id="a_node1"><a xlink:href="src/app/layout.tsx" xlink:title="layout.tsx">
<path fill="#bbfeff" stroke="black" d="M84.5,-78C84.5,-78 35.5,-78 35.5,-78 32.5,-78 29.5,-75 29.5,-72 29.5,-72 29.5,-66 29.5,-66 29.5,-63 32.5,-60 35.5,-60 35.5,-60 84.5,-60 84.5,-60 87.5,-60 90.5,-63 90.5,-66 90.5,-66 90.5,-72 90.5,-72 90.5,-75 87.5,-78 84.5,-78"/>
<text text-anchor="start" x="37.5" y="-66.8" font-family="Helvetica,sans-Serif" font-size="9.00">layout.tsx</text>
</a>
</g>
</g>
<!-- src/app/manifest.ts -->
<g id="node2" class="node">
<title>src/app/manifest.ts</title>
<g id="a_node2"><a xlink:href="src/app/manifest.ts" xlink:title="manifest.ts">
<path fill="#ddfeff" stroke="black" d="M193.5,-78C193.5,-78 138.5,-78 138.5,-78 135.5,-78 132.5,-75 132.5,-72 132.5,-72 132.5,-66 132.5,-66 132.5,-63 135.5,-60 138.5,-60 138.5,-60 193.5,-60 193.5,-60 196.5,-60 199.5,-63 199.5,-66 199.5,-66 199.5,-72 199.5,-72 199.5,-75 196.5,-78 193.5,-78"/>
<text text-anchor="start" x="140.5" y="-66.8" font-family="Helvetica,sans-Serif" font-size="9.00">manifest.ts</text>
</a>
</g>
</g>
<!-- src/app/layout.tsx&#45;&gt;src/app/manifest.ts -->
<g id="edge1" class="edge">
<title>src/app/layout.tsx&#45;&gt;src/app/manifest.ts</title>
<path fill="none" stroke="#000000" stroke-width="2" stroke-opacity="0.200000" d="M90.52,-69C101.67,-69 114.53,-69 126.39,-69"/>
<polygon fill="#000000" fill-opacity="0.200000" stroke="#000000" stroke-width="2" stroke-opacity="0.200000" points="126.48,-71.1 132.48,-69 126.48,-66.9 126.48,-71.1"/>
</g>
<!-- src/client/components/loading&#45;page.tsx -->
<g id="node3" class="node">
<title>src/client/components/loading&#45;page.tsx</title>
<g id="a_node3"><a xlink:href="src/client/components/loading-page.tsx" xlink:title="loading&#45;page.tsx">
<path fill="#bbfeff" stroke="black" d="M206,-332C206,-332 126,-332 126,-332 123,-332 120,-329 120,-326 120,-326 120,-320 120,-320 120,-317 123,-314 126,-314 126,-314 206,-314 206,-314 209,-314 212,-317 212,-320 212,-320 212,-326 212,-326 212,-329 209,-332 206,-332"/>
<text text-anchor="start" x="128" y="-320.8" font-family="Helvetica,sans-Serif" font-size="9.00">loading&#45;page.tsx</text>
</a>
</g>
</g>
<!-- src/app/layout.tsx&#45;&gt;src/client/components/loading&#45;page.tsx -->
<g id="edge2" class="edge">
<title>src/app/layout.tsx&#45;&gt;src/client/components/loading&#45;page.tsx</title>
<path fill="none" stroke="#000000" stroke-width="2" stroke-opacity="0.200000" d="M90.19,-78.12C92.43,-79.77 94.43,-81.71 96,-84 109.65,-103.89 89.77,-281.52 104,-301 106.89,-304.96 110.57,-308.21 114.68,-310.88"/>
<polygon fill="#000000" fill-opacity="0.200000" stroke="#000000" stroke-width="2" stroke-opacity="0.200000" points="113.84,-312.82 120.09,-313.96 115.91,-309.17 113.84,-312.82"/>
</g>
<!-- src/client/styles/globals.css -->
<g id="node4" class="node">
<title>src/client/styles/globals.css</title>
<g id="a_node4"><a xlink:href="src/client/styles/globals.css" xlink:title="globals.css">
<path fill="#ffffcc" stroke="black" d="M192.5,-272C192.5,-272 139.5,-272 139.5,-272 136.5,-272 133.5,-269 133.5,-266 133.5,-266 133.5,-260 133.5,-260 133.5,-257 136.5,-254 139.5,-254 139.5,-254 192.5,-254 192.5,-254 195.5,-254 198.5,-257 198.5,-260 198.5,-260 198.5,-266 198.5,-266 198.5,-269 195.5,-272 192.5,-272"/>
<text text-anchor="start" x="141.5" y="-260.8" font-family="Helvetica,sans-Serif" font-size="9.00">globals.css</text>
</a>
</g>
</g>
<!-- src/app/layout.tsx&#45;&gt;src/client/styles/globals.css -->
<g id="edge3" class="edge">
<title>src/app/layout.tsx&#45;&gt;src/client/styles/globals.css</title>
<path fill="none" stroke="#000000" stroke-width="2" stroke-opacity="0.200000" d="M90.11,-78.18C92.37,-79.81 94.39,-81.74 96,-84 110.59,-104.51 94,-173.9 104,-197 113.46,-218.87 133.35,-238.14 147.85,-250.12"/>
<polygon fill="#000000" fill-opacity="0.200000" stroke="#000000" stroke-width="2" stroke-opacity="0.200000" points="146.55,-251.77 152.54,-253.9 149.18,-248.5 146.55,-251.77"/>
</g>
<!-- src/app/page.tsx -->
<g id="node5" class="node">
<title>src/app/page.tsx</title>
<g id="a_node5"><a xlink:href="src/app/page.tsx" xlink:title="page.tsx">
<path fill="#bbfeff" stroke="black" d="M82,-108C82,-108 38,-108 38,-108 35,-108 32,-105 32,-102 32,-102 32,-96 32,-96 32,-93 35,-90 38,-90 38,-90 82,-90 82,-90 85,-90 88,-93 88,-96 88,-96 88,-102 88,-102 88,-105 85,-108 82,-108"/>
<text text-anchor="start" x="40" y="-96.8" font-family="Helvetica,sans-Serif" font-size="9.00">page.tsx</text>
</a>
</g>
</g>
<!-- src/client/components/home&#45;page.tsx -->
<g id="node6" class="node">
<title>src/client/components/home&#45;page.tsx</title>
<g id="a_node6"><a xlink:href="src/client/components/home-page.tsx" xlink:title="home&#45;page.tsx">
<path fill="#bbfeff" stroke="black" d="M202,-362C202,-362 130,-362 130,-362 127,-362 124,-359 124,-356 124,-356 124,-350 124,-350 124,-347 127,-344 130,-344 130,-344 202,-344 202,-344 205,-344 208,-347 208,-350 208,-350 208,-356 208,-356 208,-359 205,-362 202,-362"/>
<text text-anchor="start" x="132" y="-350.8" font-family="Helvetica,sans-Serif" font-size="9.00">home&#45;page.tsx</text>
</a>
</g>
</g>
<!-- src/app/page.tsx&#45;&gt;src/client/components/home&#45;page.tsx -->
<g id="edge4" class="edge">
<title>src/app/page.tsx&#45;&gt;src/client/components/home&#45;page.tsx</title>
<path fill="none" stroke="#000000" stroke-width="2" stroke-opacity="0.200000" d="M88.19,-105.99C91.23,-107.82 93.97,-110.11 96,-113 110.39,-133.46 88.22,-318.59 104,-338 107.69,-342.54 112.51,-345.83 117.82,-348.2"/>
<polygon fill="#000000" fill-opacity="0.200000" stroke="#000000" stroke-width="2" stroke-opacity="0.200000" points="117.4,-350.29 123.75,-350.43 118.87,-346.36 117.4,-350.29"/>
</g>
<!-- src/client/components/timer&#45;form.tsx -->
<g id="node10" class="node">
<title>src/client/components/timer&#45;form.tsx</title>
<g id="a_node10"><a xlink:href="src/client/components/timer-form.tsx" xlink:title="timer&#45;form.tsx">
<path fill="#bbfeff" stroke="black" d="M300,-347C300,-347 232,-347 232,-347 229,-347 226,-344 226,-341 226,-341 226,-335 226,-335 226,-332 229,-329 232,-329 232,-329 300,-329 300,-329 303,-329 306,-332 306,-335 306,-335 306,-341 306,-341 306,-344 303,-347 300,-347"/>
<text text-anchor="start" x="234" y="-335.8" font-family="Helvetica,sans-Serif" font-size="9.00">timer&#45;form.tsx</text>
</a>
</g>
</g>
<!-- src/client/components/home&#45;page.tsx&#45;&gt;src/client/components/timer&#45;form.tsx -->
<g id="edge7" class="edge">
<title>src/client/components/home&#45;page.tsx&#45;&gt;src/client/components/timer&#45;form.tsx</title>
<path fill="none" stroke="#000000" stroke-width="2" stroke-opacity="0.200000" d="M208.28,-346.68C212.12,-346.09 216.03,-345.5 219.91,-344.9"/>
<polygon fill="#000000" fill-opacity="0.200000" stroke="#000000" stroke-width="2" stroke-opacity="0.200000" points="220.35,-346.96 225.96,-343.98 219.71,-342.81 220.35,-346.96"/>
</g>
<!-- src/app/timer/page.tsx -->
<g id="node7" class="node">
<title>src/app/timer/page.tsx</title>
<g id="a_node7"><a xlink:href="src/app/timer/page.tsx" xlink:title="page.tsx">
<path fill="#bbfeff" stroke="black" d="M82,-142C82,-142 38,-142 38,-142 35,-142 32,-139 32,-136 32,-136 32,-130 32,-130 32,-127 35,-124 38,-124 38,-124 82,-124 82,-124 85,-124 88,-127 88,-130 88,-130 88,-136 88,-136 88,-139 85,-142 82,-142"/>
<text text-anchor="start" x="40" y="-130.8" font-family="Helvetica,sans-Serif" font-size="9.00">page.tsx</text>
</a>
</g>
</g>
<!-- src/client/components/timer&#45;page.tsx -->
<g id="node8" class="node">
<title>src/client/components/timer&#45;page.tsx</title>
<g id="a_node8"><a xlink:href="src/client/components/timer-page.tsx" xlink:title="timer&#45;page.tsx">
<path fill="#bbfeff" stroke="black" d="M301,-384C301,-384 231,-384 231,-384 228,-384 225,-381 225,-378 225,-378 225,-372 225,-372 225,-369 228,-366 231,-366 231,-366 301,-366 301,-366 304,-366 307,-369 307,-372 307,-372 307,-378 307,-378 307,-381 304,-384 301,-384"/>
<text text-anchor="start" x="233" y="-372.8" font-family="Helvetica,sans-Serif" font-size="9.00">timer&#45;page.tsx</text>
</a>
</g>
</g>
<!-- src/app/timer/page.tsx&#45;&gt;src/client/components/timer&#45;page.tsx -->
<g id="edge5" class="edge">
<title>src/app/timer/page.tsx&#45;&gt;src/client/components/timer&#45;page.tsx</title>
<path fill="none" stroke="#000000" stroke-width="2" stroke-opacity="0.200000" d="M61.22,-142.19C62.38,-181.85 69.13,-337.62 104,-368 137.5,-397.19 191.4,-392.85 227.49,-385.36"/>
<polygon fill="#000000" fill-opacity="0.200000" stroke="#000000" stroke-width="2" stroke-opacity="0.200000" points="228.16,-387.36 233.57,-384.03 227.26,-383.26 228.16,-387.36"/>
</g>
<!-- src/lib/time.ts -->
<g id="node9" class="node">
<title>src/lib/time.ts</title>
<g id="a_node9"><a xlink:href="src/lib/time.ts" xlink:title="time.ts">
<path fill="#ddfeff" stroke="black" d="M555,-48C555,-48 513,-48 513,-48 510,-48 507,-45 507,-42 507,-42 507,-36 507,-36 507,-33 510,-30 513,-30 513,-30 555,-30 555,-30 558,-30 561,-33 561,-36 561,-36 561,-42 561,-42 561,-45 558,-48 555,-48"/>
<text text-anchor="start" x="518" y="-36.8" font-family="Helvetica,sans-Serif" font-size="9.00">time.ts</text>
</a>
</g>
</g>
<!-- src/app/timer/page.tsx&#45;&gt;src/lib/time.ts -->
<g id="edge6" class="edge">
<title>src/app/timer/page.tsx&#45;&gt;src/lib/time.ts</title>
<path fill="none" stroke="#000000" stroke-width="2" stroke-opacity="0.200000" d="M88.21,-125.22C118.61,-116.37 169.17,-101.17 212,-86 260.7,-68.75 269.52,-53.98 320,-43 363.92,-33.45 376.07,-39.11 421,-38 447.83,-37.34 478.29,-37.68 500.66,-38.14"/>
<polygon fill="#000000" fill-opacity="0.200000" stroke="#000000" stroke-width="2" stroke-opacity="0.200000" points="500.7,-40.24 506.75,-38.27 500.79,-36.04 500.7,-40.24"/>
</g>
<!-- src/client/components/timer&#45;page.tsx&#45;&gt;src/lib/time.ts -->
<g id="edge16" class="edge">
<title>src/client/components/timer&#45;page.tsx&#45;&gt;src/lib/time.ts</title>
<path fill="none" stroke="#000000" stroke-width="2" stroke-opacity="0.200000" d="M290.38,-366C296.49,-362.69 302.59,-358.41 307,-353 319.35,-337.86 313.19,-329.31 320,-311 359.07,-205.98 335.15,-152.01 421,-80 442.72,-61.78 459.44,-80.77 483,-65 488.02,-61.64 486.16,-57.62 491,-54 494.09,-51.69 497.57,-49.7 501.17,-48.01"/>
<polygon fill="#000000" fill-opacity="0.200000" stroke="#000000" stroke-width="2" stroke-opacity="0.200000" points="502.19,-49.86 506.89,-45.59 500.55,-46 502.19,-49.86"/>
</g>
<!-- src/client/db.ts -->
<g id="node12" class="node">
<title>src/client/db.ts</title>
<g id="a_node12"><a xlink:href="src/client/db.ts" xlink:title="db.ts">
<path fill="#ddfeff" stroke="black" d="M555,-391C555,-391 513,-391 513,-391 510,-391 507,-388 507,-385 507,-385 507,-379 507,-379 507,-376 510,-373 513,-373 513,-373 555,-373 555,-373 558,-373 561,-376 561,-379 561,-379 561,-385 561,-385 561,-388 558,-391 555,-391"/>
<text text-anchor="start" x="522" y="-379.8" font-family="Helvetica,sans-Serif" font-size="9.00">db.ts</text>
</a>
</g>
</g>
<!-- src/client/components/timer&#45;page.tsx&#45;&gt;src/client/db.ts -->
<g id="edge11" class="edge">
<title>src/client/components/timer&#45;page.tsx&#45;&gt;src/client/db.ts</title>
<path fill="none" stroke="#000000" stroke-width="2" stroke-opacity="0.200000" d="M271.27,-384.18C278.74,-398.97 295.72,-427.58 320,-439 338.7,-447.79 396.61,-451.59 413,-439 423.94,-430.59 411.13,-418.64 421,-409 422.47,-407.56 468.43,-396.79 501.01,-389.3"/>
<polygon fill="#000000" fill-opacity="0.200000" stroke="#000000" stroke-width="2" stroke-opacity="0.200000" points="501.55,-391.33 506.93,-387.94 500.61,-387.24 501.55,-391.33"/>
</g>
<!-- src/client/hooks/sync.tsx -->
<g id="node13" class="node">
<title>src/client/hooks/sync.tsx</title>
<g id="a_node13"><a xlink:href="src/client/hooks/sync.tsx" xlink:title="sync.tsx">
<path fill="#bbfeff" stroke="black" d="M477,-438C477,-438 435,-438 435,-438 432,-438 429,-435 429,-432 429,-432 429,-426 429,-426 429,-423 432,-420 435,-420 435,-420 477,-420 477,-420 480,-420 483,-423 483,-426 483,-426 483,-432 483,-432 483,-435 480,-438 477,-438"/>
<text text-anchor="start" x="437" y="-426.8" font-family="Helvetica,sans-Serif" font-size="9.00">sync.tsx</text>
</a>
</g>
</g>
<!-- src/client/components/timer&#45;page.tsx&#45;&gt;src/client/hooks/sync.tsx -->
<g id="edge12" class="edge">
<title>src/client/components/timer&#45;page.tsx&#45;&gt;src/client/hooks/sync.tsx</title>
<path fill="none" stroke="#000000" stroke-width="2" stroke-opacity="0.200000" d="M269.61,-384.16C275.31,-402.21 290.76,-441.98 320,-458 356.25,-477.86 373.54,-470.3 413,-458 423.17,-454.83 433.06,-448.24 440.68,-442.14"/>
<polygon fill="#000000" fill-opacity="0.200000" stroke="#000000" stroke-width="2" stroke-opacity="0.200000" points="442.31,-443.51 445.57,-438.05 439.62,-440.29 442.31,-443.51"/>
</g>
<!-- src/client/components/ui/link.tsx -->
<g id="node14" class="node">
<title>src/client/components/ui/link.tsx</title>
<g id="a_node14"><a xlink:href="src/client/components/ui/link.tsx" xlink:title="link.tsx">
<path fill="#bbfeff" stroke="black" d="M383.5,-370C383.5,-370 341.5,-370 341.5,-370 338.5,-370 335.5,-367 335.5,-364 335.5,-364 335.5,-358 335.5,-358 335.5,-355 338.5,-352 341.5,-352 341.5,-352 383.5,-352 383.5,-352 386.5,-352 389.5,-355 389.5,-358 389.5,-358 389.5,-364 389.5,-364 389.5,-367 386.5,-370 383.5,-370"/>
<text text-anchor="start" x="346" y="-358.8" font-family="Helvetica,sans-Serif" font-size="9.00">link.tsx</text>
</a>
</g>
</g>
<!-- src/client/components/timer&#45;page.tsx&#45;&gt;src/client/components/ui/link.tsx -->
<g id="edge13" class="edge">
<title>src/client/components/timer&#45;page.tsx&#45;&gt;src/client/components/ui/link.tsx</title>
<path fill="none" stroke="#000000" stroke-width="2" stroke-opacity="0.200000" d="M307.08,-369.06C314.39,-367.98 321.95,-366.86 329.01,-365.81"/>
<polygon fill="#000000" fill-opacity="0.200000" stroke="#000000" stroke-width="2" stroke-opacity="0.200000" points="329.71,-367.83 335.34,-364.88 329.1,-363.68 329.71,-367.83"/>
</g>
<!-- src/client/components/visual&#45;timer.tsx -->
<g id="node15" class="node">
<title>src/client/components/visual&#45;timer.tsx</title>
<g id="a_node15"><a xlink:href="src/client/components/visual-timer.tsx" xlink:title="visual&#45;timer.tsx">
<path fill="#bbfeff" stroke="black" d="M399,-422C399,-422 326,-422 326,-422 323,-422 320,-419 320,-416 320,-416 320,-410 320,-410 320,-407 323,-404 326,-404 326,-404 399,-404 399,-404 402,-404 405,-407 405,-410 405,-410 405,-416 405,-416 405,-419 402,-422 399,-422"/>
<text text-anchor="start" x="328" y="-410.8" font-family="Helvetica,sans-Serif" font-size="9.00">visual&#45;timer.tsx</text>
</a>
</g>
</g>
<!-- src/client/components/timer&#45;page.tsx&#45;&gt;src/client/components/visual&#45;timer.tsx -->
<g id="edge14" class="edge">
<title>src/client/components/timer&#45;page.tsx&#45;&gt;src/client/components/visual&#45;timer.tsx</title>
<path fill="none" stroke="#000000" stroke-width="2" stroke-opacity="0.200000" d="M285.94,-384.13C295.96,-388.82 308.53,-394.48 320,-399 322.39,-399.94 324.87,-400.88 327.37,-401.79"/>
<polygon fill="#000000" fill-opacity="0.200000" stroke="#000000" stroke-width="2" stroke-opacity="0.200000" points="326.88,-403.85 333.23,-403.89 328.29,-399.89 326.88,-403.85"/>
</g>
<!-- src/lib/error.ts -->
<g id="node16" class="node">
<title>src/lib/error.ts</title>
<g id="a_node16"><a xlink:href="src/lib/error.ts" xlink:title="error.ts">
<path fill="#ddfeff" stroke="black" d="M650.5,-48C650.5,-48 608.5,-48 608.5,-48 605.5,-48 602.5,-45 602.5,-42 602.5,-42 602.5,-36 602.5,-36 602.5,-33 605.5,-30 608.5,-30 608.5,-30 650.5,-30 650.5,-30 653.5,-30 656.5,-33 656.5,-36 656.5,-36 656.5,-42 656.5,-42 656.5,-45 653.5,-48 650.5,-48"/>
<text text-anchor="start" x="613" y="-36.8" font-family="Helvetica,sans-Serif" font-size="9.00">error.ts</text>
</a>
</g>
</g>
<!-- src/client/components/timer&#45;page.tsx&#45;&gt;src/lib/error.ts -->
<g id="edge15" class="edge">
<title>src/client/components/timer&#45;page.tsx&#45;&gt;src/lib/error.ts</title>
<path fill="none" stroke="#000000" stroke-width="2" stroke-opacity="0.200000" d="M292.54,-365.96C298.22,-362.75 303.56,-358.51 307,-353 338.36,-302.81 284.97,-134.7 320,-87 367.93,-21.71 411.26,-38.22 491,-24 532.79,-16.55 544.68,-16.76 586.5,-24 591.54,-24.87 596.79,-26.3 601.78,-27.93"/>
<polygon fill="#000000" fill-opacity="0.200000" stroke="#000000" stroke-width="2" stroke-opacity="0.200000" points="601.16,-29.93 607.52,-29.92 602.54,-25.97 601.16,-29.93"/>
</g>
<!-- src/lib/time.ts&#45;&gt;src/lib/error.ts -->
<g id="edge28" class="edge">
<title>src/lib/time.ts&#45;&gt;src/lib/error.ts</title>
<path fill="none" stroke="#000000" stroke-width="2" stroke-opacity="0.200000" d="M561.04,-39C571.9,-39 584.61,-39 596.06,-39"/>
<polygon fill="#000000" fill-opacity="0.200000" stroke="#000000" stroke-width="2" stroke-opacity="0.200000" points="596.27,-41.1 602.27,-39 596.27,-36.9 596.27,-41.1"/>
</g>
<!-- src/client/components/timer&#45;form.tsx&#45;&gt;src/lib/time.ts -->
<g id="edge10" class="edge">
<title>src/client/components/timer&#45;form.tsx&#45;&gt;src/lib/time.ts</title>
<path fill="none" stroke="#000000" stroke-width="2" stroke-opacity="0.200000" d="M267.45,-328.82C269.74,-286.14 281.54,-107.7 320,-71 345.35,-46.81 447.71,-40.89 500.76,-39.45"/>
<polygon fill="#000000" fill-opacity="0.200000" stroke="#000000" stroke-width="2" stroke-opacity="0.200000" points="501.03,-41.55 506.98,-39.3 500.93,-37.35 501.03,-41.55"/>
</g>
<!-- src/client/components/ui/button.tsx -->
<g id="node11" class="node">
<title>src/client/components/ui/button.tsx</title>
<g id="a_node11"><a xlink:href="src/client/components/ui/button.tsx" xlink:title="button.tsx">
<path fill="#bbfeff" stroke="black" d="M388.5,-340C388.5,-340 336.5,-340 336.5,-340 333.5,-340 330.5,-337 330.5,-334 330.5,-334 330.5,-328 330.5,-328 330.5,-325 333.5,-322 336.5,-322 336.5,-322 388.5,-322 388.5,-322 391.5,-322 394.5,-325 394.5,-328 394.5,-328 394.5,-334 394.5,-334 394.5,-337 391.5,-340 388.5,-340"/>
<text text-anchor="start" x="338.5" y="-328.8" font-family="Helvetica,sans-Serif" font-size="9.00">button.tsx</text>
</a>
</g>
</g>
<!-- src/client/components/timer&#45;form.tsx&#45;&gt;src/client/components/ui/button.tsx -->
<g id="edge8" class="edge">
<title>src/client/components/timer&#45;form.tsx&#45;&gt;src/client/components/ui/button.tsx</title>
<path fill="none" stroke="#000000" stroke-width="2" stroke-opacity="0.200000" d="M306.26,-335.09C312.14,-334.66 318.19,-334.21 324.04,-333.77"/>
<polygon fill="#000000" fill-opacity="0.200000" stroke="#000000" stroke-width="2" stroke-opacity="0.200000" points="324.45,-335.85 330.28,-333.31 324.14,-331.66 324.45,-335.85"/>
</g>
<!-- src/client/components/timer&#45;form.tsx&#45;&gt;src/client/db.ts -->
<g id="edge9" class="edge">
<title>src/client/components/timer&#45;form.tsx&#45;&gt;src/client/db.ts</title>
<path fill="none" stroke="#000000" stroke-width="2" stroke-opacity="0.200000" d="M291.61,-347.16C297.43,-350.39 303.09,-354.61 307,-360 325.09,-384.89 296.29,-408.39 320,-428 335.93,-441.17 396.8,-440.83 413,-428 425.17,-418.36 409.36,-404.27 421,-394 426.91,-388.78 469.81,-385.38 500.76,-383.57"/>
<polygon fill="#000000" fill-opacity="0.200000" stroke="#000000" stroke-width="2" stroke-opacity="0.200000" points="500.9,-385.67 506.77,-383.23 500.66,-381.47 500.9,-385.67"/>
</g>
<!-- src/lib/utils.ts -->
<g id="node17" class="node">
<title>src/lib/utils.ts</title>
<g id="a_node17"><a xlink:href="src/lib/utils.ts" xlink:title="utils.ts">
<path fill="#ddfeff" stroke="black" d="M555,-78C555,-78 513,-78 513,-78 510,-78 507,-75 507,-72 507,-72 507,-66 507,-66 507,-63 510,-60 513,-60 513,-60 555,-60 555,-60 558,-60 561,-63 561,-66 561,-66 561,-72 561,-72 561,-75 558,-78 555,-78"/>
<text text-anchor="start" x="518.5" y="-66.8" font-family="Helvetica,sans-Serif" font-size="9.00">utils.ts</text>
</a>
</g>
</g>
<!-- src/client/components/ui/button.tsx&#45;&gt;src/lib/utils.ts -->
<g id="edge17" class="edge">
<title>src/client/components/ui/button.tsx&#45;&gt;src/lib/utils.ts</title>
<path fill="none" stroke="#000000" stroke-width="2" stroke-opacity="0.200000" d="M364.54,-321.81C369.1,-282.88 388.66,-131.95 421,-99 426.7,-93.19 469.89,-82.75 500.94,-75.85"/>
<polygon fill="#000000" fill-opacity="0.200000" stroke="#000000" stroke-width="2" stroke-opacity="0.200000" points="501.56,-77.86 506.97,-74.52 500.66,-73.76 501.56,-77.86"/>
</g>
<!-- src/client/hooks/sync.tsx&#45;&gt;src/client/db.ts -->
<g id="edge24" class="edge">
<title>src/client/hooks/sync.tsx&#45;&gt;src/client/db.ts</title>
<path fill="none" stroke="#000000" stroke-width="2" stroke-opacity="0.200000" d="M476.62,-419.87C478.82,-418.65 480.99,-417.35 483,-416 486.92,-413.37 487.22,-411.84 491,-409 497.73,-403.93 505.41,-398.82 512.34,-394.43"/>
<polygon fill="#000000" fill-opacity="0.200000" stroke="#000000" stroke-width="2" stroke-opacity="0.200000" points="513.5,-396.18 517.47,-391.22 511.27,-392.62 513.5,-396.18"/>
</g>
<!-- src/client/hooks/useUserId.ts -->
<g id="node19" class="node">
<title>src/client/hooks/useUserId.ts</title>
<g id="a_node19"><a xlink:href="src/client/hooks/useUserId.ts" xlink:title="useUserId.ts">
<path fill="#ddfeff" stroke="black" d="M564.5,-438C564.5,-438 503.5,-438 503.5,-438 500.5,-438 497.5,-435 497.5,-432 497.5,-432 497.5,-426 497.5,-426 497.5,-423 500.5,-420 503.5,-420 503.5,-420 564.5,-420 564.5,-420 567.5,-420 570.5,-423 570.5,-426 570.5,-426 570.5,-432 570.5,-432 570.5,-435 567.5,-438 564.5,-438"/>
<text text-anchor="start" x="505.5" y="-426.8" font-family="Helvetica,sans-Serif" font-size="9.00">useUserId.ts</text>
</a>
</g>
</g>
<!-- src/client/hooks/sync.tsx&#45;&gt;src/client/hooks/useUserId.ts -->
<g id="edge23" class="edge">
<title>src/client/hooks/sync.tsx&#45;&gt;src/client/hooks/useUserId.ts</title>
<path fill="none" stroke="#000000" stroke-width="2" stroke-opacity="0.200000" d="M483.15,-429C485.72,-429 488.35,-429 491.02,-429"/>
<polygon fill="#000000" fill-opacity="0.200000" stroke="#000000" stroke-width="2" stroke-opacity="0.200000" points="491.27,-431.1 497.27,-429 491.27,-426.9 491.27,-431.1"/>
</g>
<!-- src/server/actions/index.ts -->
<g id="node20" class="node">
<title>src/server/actions/index.ts</title>
<g id="a_node20"><a xlink:href="src/server/actions/index.ts" xlink:title="index.ts">
<path fill="#ddfeff" stroke="black" d="M555,-152C555,-152 513,-152 513,-152 510,-152 507,-149 507,-146 507,-146 507,-140 507,-140 507,-137 510,-134 513,-134 513,-134 555,-134 555,-134 558,-134 561,-137 561,-140 561,-140 561,-146 561,-146 561,-149 558,-152 555,-152"/>
<text text-anchor="start" x="515.5" y="-140.8" font-family="Helvetica,sans-Serif" font-size="9.00">index.ts</text>
</a>
</g>
</g>
<!-- src/client/hooks/sync.tsx&#45;&gt;src/server/actions/index.ts -->
<g id="edge25" class="edge">
<title>src/client/hooks/sync.tsx&#45;&gt;src/server/actions/index.ts</title>
<path fill="none" stroke="#000000" stroke-width="2" stroke-opacity="0.200000" d="M479.86,-419.67C481.06,-418.57 482.12,-417.35 483,-416 493.96,-399.11 486.29,-254.57 491,-235 497.94,-206.17 514.01,-175.33 524.13,-157.69"/>
<polygon fill="#000000" fill-opacity="0.200000" stroke="#000000" stroke-width="2" stroke-opacity="0.200000" points="526.11,-158.47 527.32,-152.23 522.48,-156.35 526.11,-158.47"/>
</g>
<!-- src/client/components/ui/link.tsx&#45;&gt;src/client/db.ts -->
<g id="edge18" class="edge">
<title>src/client/components/ui/link.tsx&#45;&gt;src/client/db.ts</title>
<path fill="none" stroke="#000000" stroke-opacity="0.200000" d="M389.73,-362.19C414.02,-363.53 451.09,-366.18 483,-371 488.87,-371.89 495.07,-373.06 501.04,-374.31"/>
<polygon fill="none" stroke="#000000" stroke-opacity="0.200000" points="500.61,-376.36 506.91,-375.57 501.49,-372.26 500.61,-376.36"/>
</g>
<!-- src/client/nav.ts -->
<g id="node18" class="node">
<title>src/client/nav.ts</title>
<g id="a_node18"><a xlink:href="src/client/nav.ts" xlink:title="nav.ts">
<path fill="#ddfeff" stroke="black" d="M477,-348C477,-348 435,-348 435,-348 432,-348 429,-345 429,-342 429,-342 429,-336 429,-336 429,-333 432,-330 435,-330 435,-330 477,-330 477,-330 480,-330 483,-333 483,-336 483,-336 483,-342 483,-342 483,-345 480,-348 477,-348"/>
<text text-anchor="start" x="442" y="-336.8" font-family="Helvetica,sans-Serif" font-size="9.00">nav.ts</text>
</a>
</g>
</g>
<!-- src/client/components/ui/link.tsx&#45;&gt;src/client/nav.ts -->
<g id="edge19" class="edge">
<title>src/client/components/ui/link.tsx&#45;&gt;src/client/nav.ts</title>
<path fill="none" stroke="#000000" stroke-width="2" stroke-opacity="0.200000" d="M389.97,-354.64C400.3,-352.15 412.24,-349.28 423.04,-346.68"/>
<polygon fill="#000000" fill-opacity="0.200000" stroke="#000000" stroke-width="2" stroke-opacity="0.200000" points="423.57,-348.72 428.91,-345.27 422.59,-344.63 423.57,-348.72"/>
</g>
<!-- src/client/components/visual&#45;timer.tsx&#45;&gt;src/client/db.ts -->
<g id="edge20" class="edge">
<title>src/client/components/visual&#45;timer.tsx&#45;&gt;src/client/db.ts</title>
<path fill="none" stroke="#000000" stroke-width="2" stroke-opacity="0.200000" d="M405.22,-403.9C407.98,-402.49 410.61,-400.87 413,-399 418.65,-394.59 414.85,-388.68 421,-385 444.75,-370.79 476.7,-371.45 500.39,-374.84"/>
<polygon fill="#000000" fill-opacity="0.200000" stroke="#000000" stroke-width="2" stroke-opacity="0.200000" points="500.28,-376.95 506.54,-375.8 500.94,-372.8 500.28,-376.95"/>
</g>
<!-- src/client/components/visual&#45;timer.tsx&#45;&gt;src/client/hooks/sync.tsx -->
<g id="edge21" class="edge">
<title>src/client/components/visual&#45;timer.tsx&#45;&gt;src/client/hooks/sync.tsx</title>
<path fill="none" stroke="#000000" stroke-width="2" stroke-opacity="0.200000" d="M405.23,-420.3C411.12,-421.33 417.09,-422.37 422.76,-423.36"/>
<polygon fill="#000000" fill-opacity="0.200000" stroke="#000000" stroke-width="2" stroke-opacity="0.200000" points="422.5,-425.45 428.77,-424.41 423.23,-421.31 422.5,-425.45"/>
</g>
<!-- src/client/components/visual&#45;timer.tsx&#45;&gt;src/lib/error.ts -->
<g id="edge22" class="edge">
<title>src/client/components/visual&#45;timer.tsx&#45;&gt;src/lib/error.ts</title>
<path fill="none" stroke="#000000" stroke-width="2" stroke-opacity="0.200000" d="M405,-405.89C408.04,-404.06 410.78,-401.8 413,-399 424.36,-384.72 415.54,-252.41 421,-235 438.55,-178.99 446.1,-160.81 491,-123 526.07,-93.47 548.76,-110.03 586.5,-84 598.94,-75.42 610.44,-62.6 618.26,-52.83"/>
<polygon fill="#000000" fill-opacity="0.200000" stroke="#000000" stroke-width="2" stroke-opacity="0.200000" points="619.96,-54.06 621.99,-48.04 616.65,-51.48 619.96,-54.06"/>
</g>
<!-- src/client/nav.ts&#45;&gt;src/lib/time.ts -->
<g id="edge27" class="edge">
<title>src/client/nav.ts&#45;&gt;src/lib/time.ts</title>
<path fill="none" stroke="#000000" stroke-width="2" stroke-opacity="0.200000" d="M457.81,-329.92C462.09,-282.49 482.14,-65.1 491,-54 493.66,-50.67 497.12,-48.07 500.91,-46.05"/>
<polygon fill="#000000" fill-opacity="0.200000" stroke="#000000" stroke-width="2" stroke-opacity="0.200000" points="502.03,-47.85 506.65,-43.49 500.32,-44.02 502.03,-47.85"/>
</g>
<!-- src/client/nav.ts&#45;&gt;src/client/db.ts -->
<g id="edge26" class="edge">
<title>src/client/nav.ts&#45;&gt;src/client/db.ts</title>
<path fill="none" stroke="#000000" stroke-opacity="0.200000" d="M473.12,-348.12C484.3,-354.45 499.32,-362.95 511.52,-369.85"/>
<polygon fill="none" stroke="#000000" stroke-opacity="0.200000" points="510.65,-371.77 516.91,-372.89 512.72,-368.11 510.65,-371.77"/>
</g>
<!-- src/server/db/schema.ts -->
<g id="node21" class="node">
<title>src/server/db/schema.ts</title>
<g id="a_node21"><a xlink:href="src/server/db/schema.ts" xlink:title="schema.ts">
<path fill="#ddfeff" stroke="black" d="M729.5,-152C729.5,-152 678.5,-152 678.5,-152 675.5,-152 672.5,-149 672.5,-146 672.5,-146 672.5,-140 672.5,-140 672.5,-137 675.5,-134 678.5,-134 678.5,-134 729.5,-134 729.5,-134 732.5,-134 735.5,-137 735.5,-140 735.5,-140 735.5,-146 735.5,-146 735.5,-149 732.5,-152 729.5,-152"/>
<text text-anchor="start" x="680.5" y="-140.8" font-family="Helvetica,sans-Serif" font-size="9.00">schema.ts</text>
</a>
</g>
</g>
<!-- src/server/actions/index.ts&#45;&gt;src/server/db/schema.ts -->
<g id="edge29" class="edge">
<title>src/server/actions/index.ts&#45;&gt;src/server/db/schema.ts</title>
<path fill="none" stroke="#000000" stroke-width="2" stroke-opacity="0.200000" d="M561.1,-134.94C571.4,-132.15 583.4,-129.38 594.5,-128 625.37,-124.17 633.92,-122.25 664.5,-128 668.96,-128.84 673.57,-130.18 677.97,-131.72"/>
<polygon fill="#000000" fill-opacity="0.200000" stroke="#000000" stroke-width="2" stroke-opacity="0.200000" points="677.47,-133.78 683.83,-133.92 678.95,-129.84 677.47,-133.78"/>
</g>
<!-- src/server/db/index.ts -->
<g id="node22" class="node">
<title>src/server/db/index.ts</title>
<g id="a_node22"><a xlink:href="src/server/db/index.ts" xlink:title="index.ts">
<path fill="#ddfeff" stroke="black" d="M650.5,-152C650.5,-152 608.5,-152 608.5,-152 605.5,-152 602.5,-149 602.5,-146 602.5,-146 602.5,-140 602.5,-140 602.5,-137 605.5,-134 608.5,-134 608.5,-134 650.5,-134 650.5,-134 653.5,-134 656.5,-137 656.5,-140 656.5,-140 656.5,-146 656.5,-146 656.5,-149 653.5,-152 650.5,-152"/>
<text text-anchor="start" x="611" y="-140.8" font-family="Helvetica,sans-Serif" font-size="9.00">index.ts</text>
</a>
</g>
</g>
<!-- src/server/actions/index.ts&#45;&gt;src/server/db/index.ts -->
<g id="edge30" class="edge">
<title>src/server/actions/index.ts&#45;&gt;src/server/db/index.ts</title>
<path fill="none" stroke="#000000" stroke-width="2" stroke-opacity="0.200000" d="M561.04,-143C571.9,-143 584.61,-143 596.06,-143"/>
<polygon fill="#000000" fill-opacity="0.200000" stroke="#000000" stroke-width="2" stroke-opacity="0.200000" points="596.27,-145.1 602.27,-143 596.27,-140.9 596.27,-145.1"/>
</g>
<!-- src/server/db/index.ts&#45;&gt;src/server/db/schema.ts -->
<g id="edge31" class="edge">
<title>src/server/db/index.ts&#45;&gt;src/server/db/schema.ts</title>
<path fill="none" stroke="#000000" stroke-width="2" stroke-opacity="0.200000" d="M656.67,-143C659.66,-143 662.75,-143 665.84,-143"/>
<polygon fill="#000000" fill-opacity="0.200000" stroke="#000000" stroke-width="2" stroke-opacity="0.200000" points="666.17,-145.1 672.17,-143 666.17,-140.9 666.17,-145.1"/>
</g>
<!-- src/server/env.ts -->
<g id="node23" class="node">
<title>src/server/env.ts</title>
<g id="a_node23"><a xlink:href="src/server/env.ts" xlink:title="env.ts">
<path fill="#ddfeff" stroke="black" d="M725,-204C725,-204 683,-204 683,-204 680,-204 677,-201 677,-198 677,-198 677,-192 677,-192 677,-189 680,-186 683,-186 683,-186 725,-186 725,-186 728,-186 731,-189 731,-192 731,-192 731,-198 731,-198 731,-201 728,-204 725,-204"/>
<text text-anchor="start" x="690" y="-192.8" font-family="Helvetica,sans-Serif" font-size="9.00">env.ts</text>
</a>
</g>
</g>
<!-- src/server/db/index.ts&#45;&gt;src/server/env.ts -->
<g id="edge32" class="edge">
<title>src/server/db/index.ts&#45;&gt;src/server/env.ts</title>
<path fill="none" stroke="#000000" stroke-width="2" stroke-opacity="0.200000" d="M639.17,-152.32C647.23,-160.61 659.86,-172.66 672.5,-181 673.49,-181.65 674.51,-182.28 675.55,-182.9"/>
<polygon fill="#000000" fill-opacity="0.200000" stroke="#000000" stroke-width="2" stroke-opacity="0.200000" points="674.63,-184.8 680.91,-185.84 676.66,-181.11 674.63,-184.8"/>
</g>
</g>
</svg>
