<?xml version="1.0" encoding="UTF-8" standalone="no"?>
<!DOCTYPE svg PUBLIC "-//W3C//DTD SVG 1.1//EN"
 "http://www.w3.org/Graphics/SVG/1.1/DTD/svg11.dtd">
<!-- Generated by graphviz version 2.43.0 (0)
 -->
<!-- Title: dependency&#45;cruiser output Pages: 1 -->
<svg width="701pt" height="680pt"
 viewBox="0.00 0.00 700.50 680.00" xmlns="http://www.w3.org/2000/svg" xmlns:xlink="http://www.w3.org/1999/xlink">
<g id="graph0" class="graph" transform="scale(1 1) rotate(0) translate(4 676)">
<title>dependency&#45;cruiser output</title>
<polygon fill="white" stroke="transparent" points="-4,4 -4,-676 696.5,-676 696.5,4 -4,4"/>
<g id="clust1" class="cluster">
<title>cluster_src</title>
<path fill="#ffffff" stroke="black" stroke-width="2" d="M20,-26C20,-26 672.5,-26 672.5,-26 678.5,-26 684.5,-32 684.5,-38 684.5,-38 684.5,-652 684.5,-652 684.5,-658 678.5,-664 672.5,-664 672.5,-664 20,-664 20,-664 14,-664 8,-658 8,-652 8,-652 8,-38 8,-38 8,-32 14,-26 20,-26"/>
<text text-anchor="middle" x="346.25" y="-652.8" font-family="Helvetica,sans-Serif" font-weight="bold" font-size="9.00">src</text>
</g>
<g id="clust2" class="cluster">
<title>cluster_src/app</title>
<path fill="#ffffff" stroke="black" stroke-width="2" d="M28,-496C28,-496 195.5,-496 195.5,-496 201.5,-496 207.5,-502 207.5,-508 207.5,-508 207.5,-626 207.5,-626 207.5,-632 201.5,-638 195.5,-638 195.5,-638 28,-638 28,-638 22,-638 16,-632 16,-626 16,-626 16,-508 16,-508 16,-502 22,-496 28,-496"/>
<text text-anchor="middle" x="111.75" y="-626.8" font-family="Helvetica,sans-Serif" font-weight="bold" font-size="9.00">app</text>
</g>
<g id="clust3" class="cluster">
<title>cluster_src/app/timer</title>
<path fill="#ffffff" stroke="black" stroke-width="2" d="M36,-560C36,-560 84,-560 84,-560 90,-560 96,-566 96,-572 96,-572 96,-600 96,-600 96,-606 90,-612 84,-612 84,-612 36,-612 36,-612 30,-612 24,-606 24,-600 24,-600 24,-572 24,-572 24,-566 30,-560 36,-560"/>
<text text-anchor="middle" x="60" y="-600.8" font-family="Helvetica,sans-Serif" font-weight="bold" font-size="9.00">timer</text>
</g>
<g id="clust4" class="cluster">
<title>cluster_src/client</title>
<path fill="#ffffff" stroke="black" stroke-width="2" d="M116,-186C116,-186 577.5,-186 577.5,-186 583.5,-186 589.5,-192 589.5,-198 589.5,-198 589.5,-476 589.5,-476 589.5,-482 583.5,-488 577.5,-488 577.5,-488 116,-488 116,-488 110,-488 104,-482 104,-476 104,-476 104,-198 104,-198 104,-192 110,-186 116,-186"/>
<text text-anchor="middle" x="346.75" y="-476.8" font-family="Helvetica,sans-Serif" font-weight="bold" font-size="9.00">client</text>
</g>
<g id="clust5" class="cluster">
<title>cluster_src/client/components</title>
<path fill="#ffffff" stroke="black" stroke-width="2" d="M124,-294C124,-294 403,-294 403,-294 409,-294 415,-300 415,-306 415,-306 415,-450 415,-450 415,-456 409,-462 403,-462 403,-462 124,-462 124,-462 118,-462 112,-456 112,-450 112,-450 112,-306 112,-306 112,-300 118,-294 124,-294"/>
<text text-anchor="middle" x="263.5" y="-450.8" font-family="Helvetica,sans-Serif" font-weight="bold" font-size="9.00">components</text>
</g>
<g id="clust6" class="cluster">
<title>cluster_src/client/components/ui</title>
<path fill="#ffffff" stroke="black" stroke-width="2" d="M336.5,-328C336.5,-328 392.5,-328 392.5,-328 398.5,-328 404.5,-334 404.5,-340 404.5,-340 404.5,-398 404.5,-398 404.5,-404 398.5,-410 392.5,-410 392.5,-410 336.5,-410 336.5,-410 330.5,-410 324.5,-404 324.5,-398 324.5,-398 324.5,-340 324.5,-340 324.5,-334 330.5,-328 336.5,-328"/>
<text text-anchor="middle" x="364.5" y="-398.8" font-family="Helvetica,sans-Serif" font-weight="bold" font-size="9.00">ui</text>
</g>
<g id="clust7" class="cluster">
<title>cluster_src/client/hooks</title>
<path fill="#ffffff" stroke="black" stroke-width="2" d="M341.5,-228C341.5,-228 498.5,-228 498.5,-228 504.5,-228 510.5,-234 510.5,-240 510.5,-240 510.5,-268 510.5,-268 510.5,-274 504.5,-280 498.5,-280 498.5,-280 341.5,-280 341.5,-280 335.5,-280 329.5,-274 329.5,-268 329.5,-268 329.5,-240 329.5,-240 329.5,-234 335.5,-228 341.5,-228"/>
<text text-anchor="middle" x="420" y="-268.8" font-family="Helvetica,sans-Serif" font-weight="bold" font-size="9.00">hooks</text>
</g>
<g id="clust8" class="cluster">
<title>cluster_src/client/styles</title>
<path fill="#ffffff" stroke="black" stroke-width="2" d="M137.5,-234C137.5,-234 194.5,-234 194.5,-234 200.5,-234 206.5,-240 206.5,-246 206.5,-246 206.5,-274 206.5,-274 206.5,-280 200.5,-286 194.5,-286 194.5,-286 137.5,-286 137.5,-286 131.5,-286 125.5,-280 125.5,-274 125.5,-274 125.5,-246 125.5,-246 125.5,-240 131.5,-234 137.5,-234"/>
<text text-anchor="middle" x="166" y="-274.8" font-family="Helvetica,sans-Serif" font-weight="bold" font-size="9.00">styles</text>
</g>
<g id="clust9" class="cluster">
<title>cluster_src/lib</title>
<path fill="#ffffff" stroke="black" stroke-width="2" d="M530.5,-496C530.5,-496 576.5,-496 576.5,-496 582.5,-496 588.5,-502 588.5,-508 588.5,-508 588.5,-596 588.5,-596 588.5,-602 582.5,-608 576.5,-608 576.5,-608 530.5,-608 530.5,-608 524.5,-608 518.5,-602 518.5,-596 518.5,-596 518.5,-508 518.5,-508 518.5,-502 524.5,-496 530.5,-496"/>
<text text-anchor="middle" x="553.5" y="-596.8" font-family="Helvetica,sans-Serif" font-weight="bold" font-size="9.00">lib</text>
</g>
<g id="clust10" class="cluster">
<title>cluster_src/server</title>
<path fill="#ffffff" stroke="black" stroke-width="2" d="M435,-34C435,-34 664.5,-34 664.5,-34 670.5,-34 676.5,-40 676.5,-46 676.5,-46 676.5,-140 676.5,-140 676.5,-146 670.5,-152 664.5,-152 664.5,-152 435,-152 435,-152 429,-152 423,-146 423,-140 423,-140 423,-46 423,-46 423,-40 429,-34 435,-34"/>
<text text-anchor="middle" x="549.75" y="-140.8" font-family="Helvetica,sans-Serif" font-weight="bold" font-size="9.00">server</text>
</g>
<g id="clust11" class="cluster">
<title>cluster_src/server/actions</title>
<path fill="#ffffff" stroke="black" stroke-width="2" d="M443,-48C443,-48 489,-48 489,-48 495,-48 501,-54 501,-60 501,-60 501,-88 501,-88 501,-94 495,-100 489,-100 489,-100 443,-100 443,-100 437,-100 431,-94 431,-88 431,-88 431,-60 431,-60 431,-54 437,-48 443,-48"/>
<text text-anchor="middle" x="466" y="-88.8" font-family="Helvetica,sans-Serif" font-weight="bold" font-size="9.00">actions</text>
</g>
<g id="clust12" class="cluster">
<title>cluster_src/server/db</title>
<path fill="#ffffff" stroke="black" stroke-width="2" d="M530.5,-48C530.5,-48 656.5,-48 656.5,-48 662.5,-48 668.5,-54 668.5,-60 668.5,-60 668.5,-88 668.5,-88 668.5,-94 662.5,-100 656.5,-100 656.5,-100 530.5,-100 530.5,-100 524.5,-100 518.5,-94 518.5,-88 518.5,-88 518.5,-60 518.5,-60 518.5,-54 524.5,-48 530.5,-48"/>
<text text-anchor="middle" x="593.5" y="-88.8" font-family="Helvetica,sans-Serif" font-weight="bold" font-size="9.00">db</text>
</g>
<!-- assert -->
<g id="node1" class="node">
<title>assert</title>
<g id="a_node1"><a xlink:href="https://nodejs.org/api/assert.html" xlink:title="assert">
<path fill="#ffffcc" stroke="grey" d="M288,-18C288,-18 246,-18 246,-18 243,-18 240,-15 240,-12 240,-12 240,-6 240,-6 240,-3 243,0 246,0 246,0 288,0 288,0 291,0 294,-3 294,-6 294,-6 294,-12 294,-12 294,-15 291,-18 288,-18"/>
<text text-anchor="middle" x="267" y="-6.8" font-family="Helvetica,sans-Serif" font-size="9.00" fill="grey">assert</text>
</a>
</g>
</g>
<!-- src/app/layout.tsx -->
<g id="node2" class="node">
<title>src/app/layout.tsx</title>
<g id="a_node2"><a xlink:href="src/app/layout.tsx" xlink:title="layout.tsx">
<path fill="#bbfeff" stroke="black" d="M84.5,-522C84.5,-522 35.5,-522 35.5,-522 32.5,-522 29.5,-519 29.5,-516 29.5,-516 29.5,-510 29.5,-510 29.5,-507 32.5,-504 35.5,-504 35.5,-504 84.5,-504 84.5,-504 87.5,-504 90.5,-507 90.5,-510 90.5,-510 90.5,-516 90.5,-516 90.5,-519 87.5,-522 84.5,-522"/>
<text text-anchor="start" x="37.5" y="-510.8" font-family="Helvetica,sans-Serif" font-size="9.00">layout.tsx</text>
</a>
</g>
</g>
<!-- src/app/manifest.ts -->
<g id="node3" class="node">
<title>src/app/manifest.ts</title>
<g id="a_node3"><a xlink:href="src/app/manifest.ts" xlink:title="manifest.ts">
<path fill="#ddfeff" stroke="black" d="M193.5,-522C193.5,-522 138.5,-522 138.5,-522 135.5,-522 132.5,-519 132.5,-516 132.5,-516 132.5,-510 132.5,-510 132.5,-507 135.5,-504 138.5,-504 138.5,-504 193.5,-504 193.5,-504 196.5,-504 199.5,-507 199.5,-510 199.5,-510 199.5,-516 199.5,-516 199.5,-519 196.5,-522 193.5,-522"/>
<text text-anchor="start" x="140.5" y="-510.8" font-family="Helvetica,sans-Serif" font-size="9.00">manifest.ts</text>
</a>
</g>
</g>
<!-- src/app/layout.tsx&#45;&gt;src/app/manifest.ts -->
<g id="edge1" class="edge">
<title>src/app/layout.tsx&#45;&gt;src/app/manifest.ts</title>
<path fill="none" stroke="#000000" stroke-width="2" stroke-opacity="0.200000" d="M90.52,-513C101.67,-513 114.53,-513 126.39,-513"/>
<polygon fill="#000000" fill-opacity="0.200000" stroke="#000000" stroke-width="2" stroke-opacity="0.200000" points="126.48,-515.1 132.48,-513 126.48,-510.9 126.48,-515.1"/>
</g>
<!-- src/client/components/loading&#45;page.tsx -->
<g id="node4" class="node">
<title>src/client/components/loading&#45;page.tsx</title>
<g id="a_node4"><a xlink:href="src/client/components/loading-page.tsx" xlink:title="loading&#45;page.tsx">
<path fill="#bbfeff" stroke="black" d="M206,-320C206,-320 126,-320 126,-320 123,-320 120,-317 120,-314 120,-314 120,-308 120,-308 120,-305 123,-302 126,-302 126,-302 206,-302 206,-302 209,-302 212,-305 212,-308 212,-308 212,-314 212,-314 212,-317 209,-320 206,-320"/>
<text text-anchor="start" x="128" y="-308.8" font-family="Helvetica,sans-Serif" font-size="9.00">loading&#45;page.tsx</text>
</a>
</g>
</g>
<!-- src/app/layout.tsx&#45;&gt;src/client/components/loading&#45;page.tsx -->
<g id="edge2" class="edge">
<title>src/app/layout.tsx&#45;&gt;src/client/components/loading&#45;page.tsx</title>
<path fill="none" stroke="#000000" stroke-width="2" stroke-opacity="0.200000" d="M61.88,-503.57C65.25,-469.28 78.52,-351.87 104,-326 106.98,-322.97 110.47,-320.52 114.24,-318.53"/>
<polygon fill="#000000" fill-opacity="0.200000" stroke="#000000" stroke-width="2" stroke-opacity="0.200000" points="115.34,-320.34 119.94,-315.95 113.61,-316.52 115.34,-320.34"/>
</g>
<!-- src/client/styles/globals.css -->
<g id="node5" class="node">
<title>src/client/styles/globals.css</title>
<g id="a_node5"><a xlink:href="src/client/styles/globals.css" xlink:title="globals.css">
<path fill="#ffffcc" stroke="black" d="M192.5,-260C192.5,-260 139.5,-260 139.5,-260 136.5,-260 133.5,-257 133.5,-254 133.5,-254 133.5,-248 133.5,-248 133.5,-245 136.5,-242 139.5,-242 139.5,-242 192.5,-242 192.5,-242 195.5,-242 198.5,-245 198.5,-248 198.5,-248 198.5,-254 198.5,-254 198.5,-257 195.5,-260 192.5,-260"/>
<text text-anchor="start" x="141.5" y="-248.8" font-family="Helvetica,sans-Serif" font-size="9.00">globals.css</text>
</a>
</g>
</g>
<!-- src/app/layout.tsx&#45;&gt;src/client/styles/globals.css -->
<g id="edge3" class="edge">
<title>src/app/layout.tsx&#45;&gt;src/client/styles/globals.css</title>
<path fill="none" stroke="#000000" stroke-width="2" stroke-opacity="0.200000" d="M61.81,-503.96C65.28,-466.93 79.78,-327.11 104,-291 112.14,-278.87 125.32,-269.55 137.36,-262.97"/>
<polygon fill="#000000" fill-opacity="0.200000" stroke="#000000" stroke-width="2" stroke-opacity="0.200000" points="138.44,-264.78 142.78,-260.14 136.49,-261.05 138.44,-264.78"/>
</g>
<!-- src/app/page.tsx -->
<g id="node6" class="node">
<title>src/app/page.tsx</title>
<g id="a_node6"><a xlink:href="src/app/page.tsx" xlink:title="page.tsx">
<path fill="#bbfeff" stroke="black" d="M82,-552C82,-552 38,-552 38,-552 35,-552 32,-549 32,-546 32,-546 32,-540 32,-540 32,-537 35,-534 38,-534 38,-534 82,-534 82,-534 85,-534 88,-537 88,-540 88,-540 88,-546 88,-546 88,-549 85,-552 82,-552"/>
<text text-anchor="start" x="40" y="-540.8" font-family="Helvetica,sans-Serif" font-size="9.00">page.tsx</text>
</a>
</g>
</g>
<!-- src/client/components/router.tsx -->
<g id="node7" class="node">
<title>src/client/components/router.tsx</title>
<g id="a_node7"><a xlink:href="src/client/components/router.tsx" xlink:title="router.tsx">
<path fill="#bbfeff" stroke="black" d="M190,-350C190,-350 142,-350 142,-350 139,-350 136,-347 136,-344 136,-344 136,-338 136,-338 136,-335 139,-332 142,-332 142,-332 190,-332 190,-332 193,-332 196,-335 196,-338 196,-338 196,-344 196,-344 196,-347 193,-350 190,-350"/>
<text text-anchor="start" x="144" y="-338.8" font-family="Helvetica,sans-Serif" font-size="9.00">router.tsx</text>
</a>
</g>
</g>
<!-- src/app/page.tsx&#45;&gt;src/client/components/router.tsx -->
<g id="edge4" class="edge">
<title>src/app/page.tsx&#45;&gt;src/client/components/router.tsx</title>
<path fill="none" stroke="#000000" stroke-width="2" stroke-opacity="0.200000" d="M88.06,-534.63C91.05,-532.83 93.8,-530.64 96,-528 106.22,-515.75 99.24,-508.23 104,-493 120.18,-441.28 146.08,-382.32 158.26,-355.57"/>
<polygon fill="#000000" fill-opacity="0.200000" stroke="#000000" stroke-width="2" stroke-opacity="0.200000" points="160.19,-356.4 160.77,-350.07 156.37,-354.65 160.19,-356.4"/>
</g>
<!-- src/client/components/router.tsx&#45;&gt;assert -->
<g id="edge16" class="edge">
<title>src/client/components/router.tsx&#45;&gt;assert</title>
<path fill="none" stroke="#000000" stroke-dasharray="5,2" stroke-opacity="0.200000" d="M196.23,-336.63C202.28,-334.39 208.01,-331.04 212,-326 231.81,-300.99 219.88,-214.5 225,-183 234.66,-123.51 253.26,-54.15 261.67,-24.13"/>
<polygon fill="#000000" fill-opacity="0.200000" stroke="#000000" stroke-opacity="0.200000" points="263.7,-24.68 263.31,-18.34 259.66,-23.54 263.7,-24.68"/>
</g>
<!-- src/lib/time.ts -->
<g id="node9" class="node">
<title>src/lib/time.ts</title>
<g id="a_node9"><a xlink:href="src/lib/time.ts" xlink:title="time.ts">
<path fill="#ddfeff" stroke="black" d="M574.5,-582C574.5,-582 532.5,-582 532.5,-582 529.5,-582 526.5,-579 526.5,-576 526.5,-576 526.5,-570 526.5,-570 526.5,-567 529.5,-564 532.5,-564 532.5,-564 574.5,-564 574.5,-564 577.5,-564 580.5,-567 580.5,-570 580.5,-570 580.5,-576 580.5,-576 580.5,-579 577.5,-582 574.5,-582"/>
<text text-anchor="start" x="537.5" y="-570.8" font-family="Helvetica,sans-Serif" font-size="9.00">time.ts</text>
</a>
</g>
</g>
<!-- src/client/components/router.tsx&#45;&gt;src/lib/time.ts -->
<g id="edge15" class="edge">
<title>src/client/components/router.tsx&#45;&gt;src/lib/time.ts</title>
<path fill="none" stroke="#000000" stroke-width="2" stroke-opacity="0.200000" d="M176.9,-350.3C200.59,-372.24 262.96,-428.12 322,-465 389.97,-507.46 477.32,-543.96 522.48,-561.64"/>
<polygon fill="#000000" fill-opacity="0.200000" stroke="#000000" stroke-width="2" stroke-opacity="0.200000" points="521.94,-563.69 528.3,-563.91 523.47,-559.77 521.94,-563.69"/>
</g>
<!-- src/client/components/home&#45;page.tsx -->
<g id="node10" class="node">
<title>src/client/components/home&#45;page.tsx</title>
<g id="a_node10"><a xlink:href="src/client/components/home-page.tsx" xlink:title="home&#45;page.tsx">
<path fill="#bbfeff" stroke="black" d="M303,-336C303,-336 231,-336 231,-336 228,-336 225,-333 225,-330 225,-330 225,-324 225,-324 225,-321 228,-318 231,-318 231,-318 303,-318 303,-318 306,-318 309,-321 309,-324 309,-324 309,-330 309,-330 309,-333 306,-336 303,-336"/>
<text text-anchor="start" x="233" y="-324.8" font-family="Helvetica,sans-Serif" font-size="9.00">home&#45;page.tsx</text>
</a>
</g>
</g>
<!-- src/client/components/router.tsx&#45;&gt;src/client/components/home&#45;page.tsx -->
<g id="edge8" class="edge">
<title>src/client/components/router.tsx&#45;&gt;src/client/components/home&#45;page.tsx</title>
<path fill="none" stroke="#000000" stroke-width="2" stroke-opacity="0.200000" d="M196.17,-336.88C203.21,-335.88 210.91,-334.79 218.55,-333.71"/>
<polygon fill="#000000" fill-opacity="0.200000" stroke="#000000" stroke-width="2" stroke-opacity="0.200000" points="219.29,-335.73 224.94,-332.81 218.7,-331.57 219.29,-335.73"/>
</g>
<!-- src/client/components/timer&#45;page.tsx -->
<g id="node12" class="node">
<title>src/client/components/timer&#45;page.tsx</title>
<g id="a_node12"><a xlink:href="src/client/components/timer-page.tsx" xlink:title="timer&#45;page.tsx">
<path fill="#bbfeff" stroke="black" d="M302,-368C302,-368 232,-368 232,-368 229,-368 226,-365 226,-362 226,-362 226,-356 226,-356 226,-353 229,-350 232,-350 232,-350 302,-350 302,-350 305,-350 308,-353 308,-356 308,-356 308,-362 308,-362 308,-365 305,-368 302,-368"/>
<text text-anchor="start" x="234" y="-356.8" font-family="Helvetica,sans-Serif" font-size="9.00">timer&#45;page.tsx</text>
</a>
</g>
</g>
<!-- src/client/components/router.tsx&#45;&gt;src/client/components/timer&#45;page.tsx -->
<g id="edge9" class="edge">
<title>src/client/components/router.tsx&#45;&gt;src/client/components/timer&#45;page.tsx</title>
<path fill="none" stroke="#000000" stroke-width="2" stroke-opacity="0.200000" d="M196.17,-346.3C203.53,-347.64 211.62,-349.11 219.6,-350.56"/>
<polygon fill="#000000" fill-opacity="0.200000" stroke="#000000" stroke-width="2" stroke-opacity="0.200000" points="219.39,-352.66 225.67,-351.67 220.14,-348.53 219.39,-352.66"/>
</g>
<!-- src/client/db.ts -->
<g id="node13" class="node">
<title>src/client/db.ts</title>
<g id="a_node13"><a xlink:href="src/client/db.ts" xlink:title="db.ts">
<path fill="#ddfeff" stroke="black" d="M574.5,-232C574.5,-232 532.5,-232 532.5,-232 529.5,-232 526.5,-229 526.5,-226 526.5,-226 526.5,-220 526.5,-220 526.5,-217 529.5,-214 532.5,-214 532.5,-214 574.5,-214 574.5,-214 577.5,-214 580.5,-217 580.5,-220 580.5,-220 580.5,-226 580.5,-226 580.5,-229 577.5,-232 574.5,-232"/>
<text text-anchor="start" x="541.5" y="-220.8" font-family="Helvetica,sans-Serif" font-size="9.00">db.ts</text>
</a>
</g>
</g>
<!-- src/client/components/router.tsx&#45;&gt;src/client/db.ts -->
<g id="edge10" class="edge">
<title>src/client/components/router.tsx&#45;&gt;src/client/db.ts</title>
<path fill="none" stroke="#000000" stroke-width="2" stroke-opacity="0.200000" d="M196.18,-336.59C202.23,-334.36 207.98,-331.01 212,-326 229.48,-304.22 204.26,-219.7 225,-201 248.57,-179.76 479.53,-199.12 510.5,-206 516.25,-207.28 522.23,-209.26 527.82,-211.43"/>
<polygon fill="#000000" fill-opacity="0.200000" stroke="#000000" stroke-width="2" stroke-opacity="0.200000" points="527.34,-213.51 533.69,-213.83 528.93,-209.62 527.34,-213.51"/>
</g>
<!-- src/client/hooks/sync.ts -->
<g id="node14" class="node">
<title>src/client/hooks/sync.ts</title>
<g id="a_node14"><a xlink:href="src/client/hooks/sync.ts" xlink:title="sync.ts">
<path fill="#ddfeff" stroke="black" d="M385.5,-254C385.5,-254 343.5,-254 343.5,-254 340.5,-254 337.5,-251 337.5,-248 337.5,-248 337.5,-242 337.5,-242 337.5,-239 340.5,-236 343.5,-236 343.5,-236 385.5,-236 385.5,-236 388.5,-236 391.5,-239 391.5,-242 391.5,-242 391.5,-248 391.5,-248 391.5,-251 388.5,-254 385.5,-254"/>
<text text-anchor="start" x="348" y="-242.8" font-family="Helvetica,sans-Serif" font-size="9.00">sync.ts</text>
</a>
</g>
</g>
<!-- src/client/components/router.tsx&#45;&gt;src/client/hooks/sync.ts -->
<g id="edge11" class="edge">
<title>src/client/components/router.tsx&#45;&gt;src/client/hooks/sync.ts</title>
<path fill="none" stroke="#000000" stroke-width="2" stroke-opacity="0.200000" d="M196.27,-336.1C202.17,-333.88 207.83,-330.67 212,-326 230.48,-305.33 204.76,-283.94 225,-265 253.27,-238.55 300.02,-237.28 331.29,-240.09"/>
<polygon fill="#000000" fill-opacity="0.200000" stroke="#000000" stroke-width="2" stroke-opacity="0.200000" points="331.14,-242.19 337.32,-240.7 331.56,-238.01 331.14,-242.19"/>
</g>
<!-- src/client/hooks/useUserId.ts -->
<g id="node15" class="node">
<title>src/client/hooks/useUserId.ts</title>
<g id="a_node15"><a xlink:href="src/client/hooks/useUserId.ts" xlink:title="useUserId.ts">
<path fill="#ddfeff" stroke="black" d="M496.5,-254C496.5,-254 435.5,-254 435.5,-254 432.5,-254 429.5,-251 429.5,-248 429.5,-248 429.5,-242 429.5,-242 429.5,-239 432.5,-236 435.5,-236 435.5,-236 496.5,-236 496.5,-236 499.5,-236 502.5,-239 502.5,-242 502.5,-242 502.5,-248 502.5,-248 502.5,-251 499.5,-254 496.5,-254"/>
<text text-anchor="start" x="437.5" y="-242.8" font-family="Helvetica,sans-Serif" font-size="9.00">useUserId.ts</text>
</a>
</g>
</g>
<!-- src/client/components/router.tsx&#45;&gt;src/client/hooks/useUserId.ts -->
<g id="edge12" class="edge">
<title>src/client/components/router.tsx&#45;&gt;src/client/hooks/useUserId.ts</title>
<path fill="none" stroke="#000000" stroke-width="2" stroke-opacity="0.200000" d="M196.04,-336.48C202.09,-334.25 207.88,-330.93 212,-326 237.92,-294.99 195.28,-263.39 225,-236 256.07,-207.37 373.2,-223.87 415,-230 416.89,-230.28 422.98,-232.01 430.29,-234.2"/>
<polygon fill="#000000" fill-opacity="0.200000" stroke="#000000" stroke-width="2" stroke-opacity="0.200000" points="429.71,-236.22 436.07,-235.94 430.93,-232.2 429.71,-236.22"/>
</g>
<!-- src/client/nav.ts -->
<g id="node16" class="node">
<title>src/client/nav.ts</title>
<g id="a_node16"><a xlink:href="src/client/nav.ts" xlink:title="nav.ts">
<path fill="#ddfeff" stroke="black" d="M487,-320C487,-320 445,-320 445,-320 442,-320 439,-317 439,-314 439,-314 439,-308 439,-308 439,-305 442,-302 445,-302 445,-302 487,-302 487,-302 490,-302 493,-305 493,-308 493,-308 493,-314 493,-314 493,-317 490,-320 487,-320"/>
<text text-anchor="start" x="452" y="-308.8" font-family="Helvetica,sans-Serif" font-size="9.00">nav.ts</text>
</a>
</g>
</g>
<!-- src/client/components/router.tsx&#45;&gt;src/client/nav.ts -->
<g id="edge13" class="edge">
<title>src/client/components/router.tsx&#45;&gt;src/client/nav.ts</title>
<path fill="none" stroke="#000000" stroke-width="2" stroke-opacity="0.200000" d="M196.07,-333.69C201.59,-331.66 207.15,-329.12 212,-326 219.14,-321.4 217.52,-316.02 225,-312 299.65,-271.9 331.15,-283.69 415,-296 421.25,-296.92 427.81,-298.45 434.04,-300.19"/>
<polygon fill="#000000" fill-opacity="0.200000" stroke="#000000" stroke-width="2" stroke-opacity="0.200000" points="433.79,-302.31 440.14,-301.99 434.98,-298.28 433.79,-302.31"/>
</g>
<!-- src/client/routes.ts -->
<g id="node17" class="node">
<title>src/client/routes.ts</title>
<g id="a_node17"><a xlink:href="src/client/routes.ts" xlink:title="routes.ts">
<path fill="#ddfeff" stroke="black" d="M575.5,-320C575.5,-320 531.5,-320 531.5,-320 528.5,-320 525.5,-317 525.5,-314 525.5,-314 525.5,-308 525.5,-308 525.5,-305 528.5,-302 531.5,-302 531.5,-302 575.5,-302 575.5,-302 578.5,-302 581.5,-305 581.5,-308 581.5,-308 581.5,-314 581.5,-314 581.5,-317 578.5,-320 575.5,-320"/>
<text text-anchor="start" x="533.5" y="-308.8" font-family="Helvetica,sans-Serif" font-size="9.00">routes.ts</text>
</a>
</g>
</g>
<!-- src/client/components/router.tsx&#45;&gt;src/client/routes.ts -->
<g id="edge14" class="edge">
<title>src/client/components/router.tsx&#45;&gt;src/client/routes.ts</title>
<path fill="none" stroke="#000000" stroke-opacity="0.200000" d="M196.13,-336.55C202.18,-334.32 207.94,-330.98 212,-326 227.54,-306.91 206.6,-232.35 225,-216 248.72,-194.92 484.31,-207.08 510.5,-225 513.71,-227.19 534.67,-272.14 545.71,-296.16"/>
<polygon fill="none" stroke="#000000" stroke-opacity="0.200000" points="543.88,-297.2 548.29,-301.77 547.7,-295.44 543.88,-297.2"/>
</g>
<!-- src/app/timer/page.tsx -->
<g id="node8" class="node">
<title>src/app/timer/page.tsx</title>
<g id="a_node8"><a xlink:href="src/app/timer/page.tsx" xlink:title="page.tsx">
<path fill="#bbfeff" stroke="black" d="M82,-586C82,-586 38,-586 38,-586 35,-586 32,-583 32,-580 32,-580 32,-574 32,-574 32,-571 35,-568 38,-568 38,-568 82,-568 82,-568 85,-568 88,-571 88,-574 88,-574 88,-580 88,-580 88,-583 85,-586 82,-586"/>
<text text-anchor="start" x="40" y="-574.8" font-family="Helvetica,sans-Serif" font-size="9.00">page.tsx</text>
</a>
</g>
</g>
<!-- src/app/timer/page.tsx&#45;&gt;src/client/components/router.tsx -->
<g id="edge5" class="edge">
<title>src/app/timer/page.tsx&#45;&gt;src/client/components/router.tsx</title>
<path fill="none" stroke="#000000" stroke-width="2" stroke-opacity="0.200000" d="M88.3,-570.45C91.25,-568.77 93.92,-566.66 96,-564 105.78,-551.49 100.12,-508.4 104,-493 117.18,-440.71 144.31,-382.47 157.49,-355.8"/>
<polygon fill="#000000" fill-opacity="0.200000" stroke="#000000" stroke-width="2" stroke-opacity="0.200000" points="159.43,-356.61 160.23,-350.3 155.67,-354.74 159.43,-356.61"/>
</g>
<!-- src/app/timer/page.tsx&#45;&gt;src/lib/time.ts -->
<g id="edge6" class="edge">
<title>src/app/timer/page.tsx&#45;&gt;src/lib/time.ts</title>
<path fill="none" stroke="#000000" stroke-width="2" stroke-opacity="0.200000" d="M88.19,-576.57C127.45,-575.98 202.29,-575 266,-575 266,-575 266,-575 365.5,-575 419.82,-575 483.02,-574.15 520.28,-573.55"/>
<polygon fill="#000000" fill-opacity="0.200000" stroke="#000000" stroke-width="2" stroke-opacity="0.200000" points="520.52,-575.65 526.48,-573.45 520.45,-571.45 520.52,-575.65"/>
</g>
<!-- src/client/components/timer&#45;form.tsx -->
<g id="node11" class="node">
<title>src/client/components/timer&#45;form.tsx</title>
<g id="a_node11"><a xlink:href="src/client/components/timer-form.tsx" xlink:title="timer&#45;form.tsx">
<path fill="#bbfeff" stroke="black" d="M398.5,-320C398.5,-320 330.5,-320 330.5,-320 327.5,-320 324.5,-317 324.5,-314 324.5,-314 324.5,-308 324.5,-308 324.5,-305 327.5,-302 330.5,-302 330.5,-302 398.5,-302 398.5,-302 401.5,-302 404.5,-305 404.5,-308 404.5,-308 404.5,-314 404.5,-314 404.5,-317 401.5,-320 398.5,-320"/>
<text text-anchor="start" x="332.5" y="-308.8" font-family="Helvetica,sans-Serif" font-size="9.00">timer&#45;form.tsx</text>
</a>
</g>
</g>
<!-- src/client/components/home&#45;page.tsx&#45;&gt;src/client/components/timer&#45;form.tsx -->
<g id="edge7" class="edge">
<title>src/client/components/home&#45;page.tsx&#45;&gt;src/client/components/timer&#45;form.tsx</title>
<path fill="none" stroke="#000000" stroke-width="2" stroke-opacity="0.200000" d="M309.05,-320.12C312.06,-319.62 315.09,-319.11 318.12,-318.6"/>
<polygon fill="#000000" fill-opacity="0.200000" stroke="#000000" stroke-width="2" stroke-opacity="0.200000" points="318.72,-320.63 324.29,-317.57 318.03,-316.49 318.72,-320.63"/>
</g>
<!-- src/client/components/timer&#45;form.tsx&#45;&gt;src/lib/time.ts -->
<g id="edge21" class="edge">
<title>src/client/components/timer&#45;form.tsx&#45;&gt;src/lib/time.ts</title>
<path fill="none" stroke="#000000" stroke-width="2" stroke-opacity="0.200000" d="M404.54,-316.93C408.52,-318.93 412.15,-321.56 415,-325 427.68,-340.28 412.63,-397.07 423,-414 446.99,-453.17 486.51,-429.83 510.5,-469 520.87,-485.93 506.92,-541.87 518.5,-558 519.26,-559.06 520.12,-560.05 521.04,-560.97"/>
<polygon fill="#000000" fill-opacity="0.200000" stroke="#000000" stroke-width="2" stroke-opacity="0.200000" points="520.18,-562.96 526.19,-565.01 522.77,-559.65 520.18,-562.96"/>
</g>
<!-- src/client/components/timer&#45;form.tsx&#45;&gt;src/client/db.ts -->
<g id="edge18" class="edge">
<title>src/client/components/timer&#45;form.tsx&#45;&gt;src/client/db.ts</title>
<path fill="none" stroke="#000000" stroke-width="2" stroke-opacity="0.200000" d="M397.59,-301.98C405.83,-299.84 414.71,-297.69 423,-296 461.52,-288.14 477.06,-303.68 510.5,-283 527.72,-272.35 539.77,-251.73 546.42,-237.67"/>
<polygon fill="#000000" fill-opacity="0.200000" stroke="#000000" stroke-width="2" stroke-opacity="0.200000" points="548.38,-238.42 548.93,-232.09 544.55,-236.7 548.38,-238.42"/>
</g>
<!-- src/client/components/timer&#45;form.tsx&#45;&gt;src/client/hooks/useUserId.ts -->
<g id="edge19" class="edge">
<title>src/client/components/timer&#45;form.tsx&#45;&gt;src/client/hooks/useUserId.ts</title>
<path fill="none" stroke="#000000" stroke-width="2" stroke-opacity="0.200000" d="M389.51,-301.91C398.59,-297.43 408.33,-291.2 415,-283 422.36,-273.95 414.71,-266.21 423,-258 423.35,-257.66 423.7,-257.32 424.06,-257"/>
<polygon fill="#000000" fill-opacity="0.200000" stroke="#000000" stroke-width="2" stroke-opacity="0.200000" points="425.58,-258.49 429.19,-253.25 423.1,-255.1 425.58,-258.49"/>
</g>
<!-- src/client/components/timer&#45;form.tsx&#45;&gt;src/client/nav.ts -->
<g id="edge17" class="edge">
<title>src/client/components/timer&#45;form.tsx&#45;&gt;src/client/nav.ts</title>
<path fill="none" stroke="#000000" stroke-width="2" stroke-opacity="0.200000" d="M404.54,-311C413.92,-311 423.83,-311 432.85,-311"/>
<polygon fill="#000000" fill-opacity="0.200000" stroke="#000000" stroke-width="2" stroke-opacity="0.200000" points="432.94,-313.1 438.94,-311 432.94,-308.9 432.94,-313.1"/>
</g>
<!-- src/lib/error.ts -->
<g id="node18" class="node">
<title>src/lib/error.ts</title>
<g id="a_node18"><a xlink:href="src/lib/error.ts" xlink:title="error.ts">
<path fill="#ddfeff" stroke="black" d="M574.5,-522C574.5,-522 532.5,-522 532.5,-522 529.5,-522 526.5,-519 526.5,-516 526.5,-516 526.5,-510 526.5,-510 526.5,-507 529.5,-504 532.5,-504 532.5,-504 574.5,-504 574.5,-504 577.5,-504 580.5,-507 580.5,-510 580.5,-510 580.5,-516 580.5,-516 580.5,-519 577.5,-522 574.5,-522"/>
<text text-anchor="start" x="537" y="-510.8" font-family="Helvetica,sans-Serif" font-size="9.00">error.ts</text>
</a>
</g>
</g>
<!-- src/client/components/timer&#45;form.tsx&#45;&gt;src/lib/error.ts -->
<g id="edge20" class="edge">
<title>src/client/components/timer&#45;form.tsx&#45;&gt;src/lib/error.ts</title>
<path fill="none" stroke="#000000" stroke-width="2" stroke-opacity="0.200000" d="M404.85,-317.31C408.68,-319.26 412.18,-321.77 415,-325 431.82,-344.28 409.19,-360.47 423,-382 447.93,-420.86 485.37,-399.27 510.5,-438 523.47,-457.98 505.58,-470.98 518.5,-491 520.75,-494.49 523.77,-497.54 527.09,-500.17"/>
<polygon fill="#000000" fill-opacity="0.200000" stroke="#000000" stroke-width="2" stroke-opacity="0.200000" points="526.36,-502.22 532.48,-503.95 528.78,-498.78 526.36,-502.22"/>
</g>
<!-- src/client/components/timer&#45;page.tsx&#45;&gt;src/lib/time.ts -->
<g id="edge24" class="edge">
<title>src/client/components/timer&#45;page.tsx&#45;&gt;src/lib/time.ts</title>
<path fill="none" stroke="#000000" stroke-width="2" stroke-opacity="0.200000" d="M271.89,-368.16C279.38,-384.83 297.26,-420.41 322,-442 391.8,-502.92 450.19,-460.67 510.5,-531 518.65,-540.5 510.23,-548.6 518.5,-558 519.33,-558.94 520.23,-559.83 521.19,-560.67"/>
<polygon fill="#000000" fill-opacity="0.200000" stroke="#000000" stroke-width="2" stroke-opacity="0.200000" points="520.27,-562.59 526.36,-564.4 522.73,-559.19 520.27,-562.59"/>
</g>
<!-- src/client/components/ui/link.tsx -->
<g id="node19" class="node">
<title>src/client/components/ui/link.tsx</title>
<g id="a_node19"><a xlink:href="src/client/components/ui/link.tsx" xlink:title="link.tsx">
<path fill="#bbfeff" stroke="black" d="M385.5,-354C385.5,-354 343.5,-354 343.5,-354 340.5,-354 337.5,-351 337.5,-348 337.5,-348 337.5,-342 337.5,-342 337.5,-339 340.5,-336 343.5,-336 343.5,-336 385.5,-336 385.5,-336 388.5,-336 391.5,-339 391.5,-342 391.5,-342 391.5,-348 391.5,-348 391.5,-351 388.5,-354 385.5,-354"/>
<text text-anchor="start" x="348" y="-342.8" font-family="Helvetica,sans-Serif" font-size="9.00">link.tsx</text>
</a>
</g>
</g>
<!-- src/client/components/timer&#45;page.tsx&#45;&gt;src/client/components/ui/link.tsx -->
<g id="edge22" class="edge">
<title>src/client/components/timer&#45;page.tsx&#45;&gt;src/client/components/ui/link.tsx</title>
<path fill="none" stroke="#000000" stroke-width="2" stroke-opacity="0.200000" d="M308.22,-353.1C315.95,-351.97 323.95,-350.8 331.37,-349.71"/>
<polygon fill="#000000" fill-opacity="0.200000" stroke="#000000" stroke-width="2" stroke-opacity="0.200000" points="331.83,-351.77 337.46,-348.82 331.22,-347.61 331.83,-351.77"/>
</g>
<!-- src/client/components/visual&#45;timer.tsx -->
<g id="node20" class="node">
<title>src/client/components/visual&#45;timer.tsx</title>
<g id="a_node20"><a xlink:href="src/client/components/visual-timer.tsx" xlink:title="visual&#45;timer.tsx">
<path fill="#bbfeff" stroke="black" d="M401,-436C401,-436 328,-436 328,-436 325,-436 322,-433 322,-430 322,-430 322,-424 322,-424 322,-421 325,-418 328,-418 328,-418 401,-418 401,-418 404,-418 407,-421 407,-424 407,-424 407,-430 407,-430 407,-433 404,-436 401,-436"/>
<text text-anchor="start" x="330" y="-424.8" font-family="Helvetica,sans-Serif" font-size="9.00">visual&#45;timer.tsx</text>
</a>
</g>
</g>
<!-- src/client/components/timer&#45;page.tsx&#45;&gt;src/client/components/visual&#45;timer.tsx -->
<g id="edge23" class="edge">
<title>src/client/components/timer&#45;page.tsx&#45;&gt;src/client/components/visual&#45;timer.tsx</title>
<path fill="none" stroke="#000000" stroke-width="2" stroke-opacity="0.200000" d="M275.04,-368.33C284.5,-380.26 302.4,-400.84 322,-413 323.3,-413.81 324.65,-414.57 326.04,-415.3"/>
<polygon fill="#000000" fill-opacity="0.200000" stroke="#000000" stroke-width="2" stroke-opacity="0.200000" points="325.22,-417.23 331.54,-417.92 327.02,-413.44 325.22,-417.23"/>
</g>
<!-- src/client/hooks/sync.ts&#45;&gt;src/lib/time.ts -->
<g id="edge31" class="edge">
<title>src/client/hooks/sync.ts&#45;&gt;src/lib/time.ts</title>
<path fill="none" stroke="#000000" stroke-width="2" stroke-opacity="0.200000" d="M380.46,-254.31C392.07,-262.44 407.43,-275.37 415,-291 424.72,-311.06 408.42,-374.14 423,-391 449.09,-421.18 484.79,-380.49 510.5,-411 531.58,-436.02 499.9,-531.09 518.5,-558 519.4,-559.3 520.44,-560.49 521.58,-561.58"/>
<polygon fill="#000000" fill-opacity="0.200000" stroke="#000000" stroke-width="2" stroke-opacity="0.200000" points="520.39,-563.31 526.43,-565.28 522.94,-559.97 520.39,-563.31"/>
</g>
<!-- src/client/hooks/sync.ts&#45;&gt;src/client/db.ts -->
<g id="edge29" class="edge">
<title>src/client/hooks/sync.ts&#45;&gt;src/client/db.ts</title>
<path fill="none" stroke="#000000" stroke-width="2" stroke-opacity="0.200000" d="M391.65,-238.12C406.43,-234.24 422.15,-230.13 423,-230 455.75,-224.9 493.65,-223.35 519.95,-222.95"/>
<polygon fill="#000000" fill-opacity="0.200000" stroke="#000000" stroke-width="2" stroke-opacity="0.200000" points="520.07,-225.05 526.05,-222.88 520.02,-220.85 520.07,-225.05"/>
</g>
<!-- src/client/hooks/sync.ts&#45;&gt;src/client/hooks/useUserId.ts -->
<g id="edge28" class="edge">
<title>src/client/hooks/sync.ts&#45;&gt;src/client/hooks/useUserId.ts</title>
<path fill="none" stroke="#000000" stroke-width="2" stroke-opacity="0.200000" d="M391.64,-245C401.27,-245 412.43,-245 423.1,-245"/>
<polygon fill="#000000" fill-opacity="0.200000" stroke="#000000" stroke-width="2" stroke-opacity="0.200000" points="423.31,-247.1 429.31,-245 423.31,-242.9 423.31,-247.1"/>
</g>
<!-- src/client/hooks/sync.ts&#45;&gt;src/lib/error.ts -->
<g id="edge30" class="edge">
<title>src/client/hooks/sync.ts&#45;&gt;src/lib/error.ts</title>
<path fill="none" stroke="#000000" stroke-width="2" stroke-opacity="0.200000" d="M379.92,-254.02C391.54,-262.15 407.19,-275.23 415,-291 423.12,-307.41 411.5,-358.75 423,-373 448.65,-404.77 484.99,-369.12 510.5,-401 523.05,-416.68 508.13,-473.8 518.5,-491 520.6,-494.48 523.48,-497.51 526.68,-500.11"/>
<polygon fill="#000000" fill-opacity="0.200000" stroke="#000000" stroke-width="2" stroke-opacity="0.200000" points="525.82,-502.07 531.92,-503.86 528.26,-498.66 525.82,-502.07"/>
</g>
<!-- src/server/actions/index.ts -->
<g id="node23" class="node">
<title>src/server/actions/index.ts</title>
<g id="a_node23"><a xlink:href="src/server/actions/index.ts" xlink:title="index.ts">
<path fill="#ddfeff" stroke="black" d="M487,-74C487,-74 445,-74 445,-74 442,-74 439,-71 439,-68 439,-68 439,-62 439,-62 439,-59 442,-56 445,-56 445,-56 487,-56 487,-56 490,-56 493,-59 493,-62 493,-62 493,-68 493,-68 493,-71 490,-74 487,-74"/>
<text text-anchor="start" x="447.5" y="-62.8" font-family="Helvetica,sans-Serif" font-size="9.00">index.ts</text>
</a>
</g>
</g>
<!-- src/client/hooks/sync.ts&#45;&gt;src/server/actions/index.ts -->
<g id="edge32" class="edge">
<title>src/client/hooks/sync.ts&#45;&gt;src/server/actions/index.ts</title>
<path fill="none" stroke="#000000" stroke-width="2" stroke-opacity="0.200000" d="M365.87,-235.9C367.52,-208.08 376.32,-123.24 423,-78 425.95,-75.14 429.51,-72.92 433.29,-71.18"/>
<polygon fill="#000000" fill-opacity="0.200000" stroke="#000000" stroke-width="2" stroke-opacity="0.200000" points="434.14,-73.1 438.96,-68.96 432.61,-69.19 434.14,-73.1"/>
</g>
<!-- src/client/nav.ts&#45;&gt;src/client/db.ts -->
<g id="edge34" class="edge">
<title>src/client/nav.ts&#45;&gt;src/client/db.ts</title>
<path fill="none" stroke="#000000" stroke-width="2" stroke-opacity="0.200000" d="M493.39,-303.23C499.44,-300.63 505.55,-297.27 510.5,-293 527.94,-277.97 540.16,-253.83 546.76,-238.19"/>
<polygon fill="#000000" fill-opacity="0.200000" stroke="#000000" stroke-width="2" stroke-opacity="0.200000" points="548.78,-238.81 549.09,-232.46 544.89,-237.22 548.78,-238.81"/>
</g>
<!-- src/client/nav.ts&#45;&gt;src/client/routes.ts -->
<g id="edge33" class="edge">
<title>src/client/nav.ts&#45;&gt;src/client/routes.ts</title>
<path fill="none" stroke="#000000" stroke-opacity="0.200000" d="M493.12,-311C501.34,-311 510.53,-311 519.18,-311"/>
<polygon fill="none" stroke="#000000" stroke-opacity="0.200000" points="519.36,-313.1 525.36,-311 519.36,-308.9 519.36,-313.1"/>
</g>
<!-- src/client/nav.ts&#45;&gt;src/lib/error.ts -->
<g id="edge35" class="edge">
<title>src/client/nav.ts&#45;&gt;src/lib/error.ts</title>
<path fill="none" stroke="#000000" stroke-width="2" stroke-opacity="0.200000" d="M475.9,-320.33C486.31,-331.89 503.04,-352.67 510.5,-374 519.1,-398.6 505.27,-468.55 518.5,-491 520.56,-494.5 523.42,-497.54 526.62,-500.15"/>
<polygon fill="#000000" fill-opacity="0.200000" stroke="#000000" stroke-width="2" stroke-opacity="0.200000" points="525.75,-502.11 531.85,-503.9 528.2,-498.7 525.75,-502.11"/>
</g>
<!-- src/client/components/ui/link.tsx&#45;&gt;src/client/nav.ts -->
<g id="edge26" class="edge">
<title>src/client/components/ui/link.tsx&#45;&gt;src/client/nav.ts</title>
<path fill="none" stroke="#000000" stroke-width="2" stroke-opacity="0.200000" d="M391.65,-338.87C399.25,-336.89 407.51,-334.54 415,-332 423.1,-329.25 431.75,-325.81 439.53,-322.51"/>
<polygon fill="#000000" fill-opacity="0.200000" stroke="#000000" stroke-width="2" stroke-opacity="0.200000" points="440.61,-324.33 445.3,-320.03 438.95,-320.47 440.61,-324.33"/>
</g>
<!-- src/client/components/ui/link.tsx&#45;&gt;src/client/routes.ts -->
<g id="edge27" class="edge">
<title>src/client/components/ui/link.tsx&#45;&gt;src/client/routes.ts</title>
<path fill="none" stroke="#000000" stroke-width="2" stroke-opacity="0.200000" d="M391.74,-343.25C421.02,-340.91 469.65,-335.85 510.5,-326 514.85,-324.95 519.37,-323.61 523.77,-322.17"/>
<polygon fill="#000000" fill-opacity="0.200000" stroke="#000000" stroke-width="2" stroke-opacity="0.200000" points="524.67,-324.08 529.66,-320.15 523.3,-320.11 524.67,-324.08"/>
</g>
<!-- src/client/components/ui/button.tsx -->
<g id="node21" class="node">
<title>src/client/components/ui/button.tsx</title>
<g id="a_node21"><a xlink:href="src/client/components/ui/button.tsx" xlink:title="button.tsx">
<path fill="#bbfeff" stroke="black" d="M390.5,-384C390.5,-384 338.5,-384 338.5,-384 335.5,-384 332.5,-381 332.5,-378 332.5,-378 332.5,-372 332.5,-372 332.5,-369 335.5,-366 338.5,-366 338.5,-366 390.5,-366 390.5,-366 393.5,-366 396.5,-369 396.5,-372 396.5,-372 396.5,-378 396.5,-378 396.5,-381 393.5,-384 390.5,-384"/>
<text text-anchor="start" x="340.5" y="-372.8" font-family="Helvetica,sans-Serif" font-size="9.00">button.tsx</text>
</a>
</g>
</g>
<!-- src/lib/utils.ts -->
<g id="node22" class="node">
<title>src/lib/utils.ts</title>
<g id="a_node22"><a xlink:href="src/lib/utils.ts" xlink:title="utils.ts">
<path fill="#ddfeff" stroke="black" d="M574.5,-552C574.5,-552 532.5,-552 532.5,-552 529.5,-552 526.5,-549 526.5,-546 526.5,-546 526.5,-540 526.5,-540 526.5,-537 529.5,-534 532.5,-534 532.5,-534 574.5,-534 574.5,-534 577.5,-534 580.5,-537 580.5,-540 580.5,-540 580.5,-546 580.5,-546 580.5,-549 577.5,-552 574.5,-552"/>
<text text-anchor="start" x="538" y="-540.8" font-family="Helvetica,sans-Serif" font-size="9.00">utils.ts</text>
</a>
</g>
</g>
<!-- src/client/components/ui/button.tsx&#45;&gt;src/lib/utils.ts -->
<g id="edge25" class="edge">
<title>src/client/components/ui/button.tsx&#45;&gt;src/lib/utils.ts</title>
<path fill="none" stroke="#000000" stroke-width="2" stroke-opacity="0.200000" d="M396.62,-377.63C403.48,-379.6 410.14,-382.82 415,-388 427.7,-401.54 411.51,-414.42 423,-429 449.46,-462.59 485.02,-434.66 510.5,-469 526.27,-490.25 502.59,-506.85 518.5,-528 519.29,-529.04 520.16,-530.02 521.1,-530.92"/>
<polygon fill="#000000" fill-opacity="0.200000" stroke="#000000" stroke-width="2" stroke-opacity="0.200000" points="520.27,-532.93 526.31,-534.92 522.83,-529.6 520.27,-532.93"/>
</g>
<!-- src/server/db/schema.ts -->
<g id="node24" class="node">
<title>src/server/db/schema.ts</title>
<g id="a_node24"><a xlink:href="src/server/db/schema.ts" xlink:title="schema.ts">
<path fill="#ddfeff" stroke="black" d="M654.5,-74C654.5,-74 603.5,-74 603.5,-74 600.5,-74 597.5,-71 597.5,-68 597.5,-68 597.5,-62 597.5,-62 597.5,-59 600.5,-56 603.5,-56 603.5,-56 654.5,-56 654.5,-56 657.5,-56 660.5,-59 660.5,-62 660.5,-62 660.5,-68 660.5,-68 660.5,-71 657.5,-74 654.5,-74"/>
<text text-anchor="start" x="605.5" y="-62.8" font-family="Helvetica,sans-Serif" font-size="9.00">schema.ts</text>
</a>
</g>
</g>
<!-- src/server/actions/index.ts&#45;&gt;src/server/db/schema.ts -->
<g id="edge36" class="edge">
<title>src/server/actions/index.ts&#45;&gt;src/server/db/schema.ts</title>
<path fill="none" stroke="#000000" stroke-width="2" stroke-opacity="0.200000" d="M492.62,-55.99C500.79,-53.54 509.93,-51.22 518.5,-50 549.74,-45.54 558.49,-44.17 589.5,-50 593.96,-50.84 598.57,-52.18 602.97,-53.72"/>
<polygon fill="#000000" fill-opacity="0.200000" stroke="#000000" stroke-width="2" stroke-opacity="0.200000" points="602.47,-55.78 608.83,-55.92 603.95,-51.84 602.47,-55.78"/>
</g>
<!-- src/server/db/index.ts -->
<g id="node25" class="node">
<title>src/server/db/index.ts</title>
<g id="a_node25"><a xlink:href="src/server/db/index.ts" xlink:title="index.ts">
<path fill="#ddfeff" stroke="black" d="M574.5,-74C574.5,-74 532.5,-74 532.5,-74 529.5,-74 526.5,-71 526.5,-68 526.5,-68 526.5,-62 526.5,-62 526.5,-59 529.5,-56 532.5,-56 532.5,-56 574.5,-56 574.5,-56 577.5,-56 580.5,-59 580.5,-62 580.5,-62 580.5,-68 580.5,-68 580.5,-71 577.5,-74 574.5,-74"/>
<text text-anchor="start" x="535" y="-62.8" font-family="Helvetica,sans-Serif" font-size="9.00">index.ts</text>
</a>
</g>
</g>
<!-- src/server/actions/index.ts&#45;&gt;src/server/db/index.ts -->
<g id="edge37" class="edge">
<title>src/server/actions/index.ts&#45;&gt;src/server/db/index.ts</title>
<path fill="none" stroke="#000000" stroke-width="2" stroke-opacity="0.200000" d="M493.12,-65C501.66,-65 511.24,-65 520.18,-65"/>
<polygon fill="#000000" fill-opacity="0.200000" stroke="#000000" stroke-width="2" stroke-opacity="0.200000" points="520.25,-67.1 526.25,-65 520.25,-62.9 520.25,-67.1"/>
</g>
<!-- src/server/db/index.ts&#45;&gt;src/server/db/schema.ts -->
<g id="edge38" class="edge">
<title>src/server/db/index.ts&#45;&gt;src/server/db/schema.ts</title>
<path fill="none" stroke="#000000" stroke-width="2" stroke-opacity="0.200000" d="M580.62,-65C584.11,-65 587.74,-65 591.37,-65"/>
<polygon fill="#000000" fill-opacity="0.200000" stroke="#000000" stroke-width="2" stroke-opacity="0.200000" points="591.44,-67.1 597.44,-65 591.44,-62.9 591.44,-67.1"/>
</g>
<!-- src/server/env.ts -->
<g id="node26" class="node">
<title>src/server/env.ts</title>
<g id="a_node26"><a xlink:href="src/server/env.ts" xlink:title="env.ts">
<path fill="#ddfeff" stroke="black" d="M650,-126C650,-126 608,-126 608,-126 605,-126 602,-123 602,-120 602,-120 602,-114 602,-114 602,-111 605,-108 608,-108 608,-108 650,-108 650,-108 653,-108 656,-111 656,-114 656,-114 656,-120 656,-120 656,-123 653,-126 650,-126"/>
<text text-anchor="start" x="615" y="-114.8" font-family="Helvetica,sans-Serif" font-size="9.00">env.ts</text>
</a>
</g>
</g>
<!-- src/server/db/index.ts&#45;&gt;src/server/env.ts -->
<g id="edge39" class="edge">
<title>src/server/db/index.ts&#45;&gt;src/server/env.ts</title>
<path fill="none" stroke="#000000" stroke-width="2" stroke-opacity="0.200000" d="M563.42,-74.3C571.69,-82.58 584.64,-94.63 597.5,-103 598.61,-103.72 599.77,-104.43 600.95,-105.11"/>
<polygon fill="#000000" fill-opacity="0.200000" stroke="#000000" stroke-width="2" stroke-opacity="0.200000" points="599.97,-106.97 606.25,-107.98 601.97,-103.28 599.97,-106.97"/>
</g>
<!-- src/test&#45;setup.ts -->
<g id="node27" class="node">
<title>src/test&#45;setup.ts</title>
<g id="a_node27"><a xlink:href="src/test-setup.ts" xlink:title="test&#45;setup.ts">
<path fill="#ddfeff" stroke="black" d="M497,-178C497,-178 435,-178 435,-178 432,-178 429,-175 429,-172 429,-172 429,-166 429,-166 429,-163 432,-160 435,-160 435,-160 497,-160 497,-160 500,-160 503,-163 503,-166 503,-166 503,-172 503,-172 503,-175 500,-178 497,-178"/>
<text text-anchor="start" x="437" y="-166.8" font-family="Helvetica,sans-Serif" font-size="9.00">test&#45;setup.ts</text>
</a>
</g>
</g>
<!-- src/test&#45;setup.ts&#45;&gt;src/client/db.ts -->
<g id="edge40" class="edge">
<title>src/test&#45;setup.ts&#45;&gt;src/client/db.ts</title>
<path fill="none" stroke="#000000" stroke-width="2" stroke-opacity="0.200000" d="M500.46,-178.04C503.95,-179.49 507.36,-181.14 510.5,-183 522.19,-189.94 533.23,-200.69 541.05,-209.29"/>
<polygon fill="#000000" fill-opacity="0.200000" stroke="#000000" stroke-width="2" stroke-opacity="0.200000" points="539.51,-210.71 545.05,-213.82 542.65,-207.93 539.51,-210.71"/>
</g>
</g>
</svg>
