<?xml version="1.0" encoding="UTF-8" standalone="no"?>
<!DOCTYPE svg PUBLIC "-//W3C//DTD SVG 1.1//EN"
 "http://www.w3.org/Graphics/SVG/1.1/DTD/svg11.dtd">
<!-- Generated by graphviz version 2.43.0 (0)
 -->
<!-- Title: dependency&#45;cruiser output Pages: 1 -->
<svg width="776pt" height="660pt"
 viewBox="0.00 0.00 775.50 660.00" xmlns="http://www.w3.org/2000/svg" xmlns:xlink="http://www.w3.org/1999/xlink">
<g id="graph0" class="graph" transform="scale(1 1) rotate(0) translate(4 656)">
<title>dependency&#45;cruiser output</title>
<polygon fill="white" stroke="transparent" points="-4,4 -4,-656 771.5,-656 771.5,4 -4,4"/>
<g id="clust1" class="cluster">
<title>cluster_src</title>
<path fill="#ffffff" stroke="black" stroke-width="2" d="M20,-8C20,-8 747.5,-8 747.5,-8 753.5,-8 759.5,-14 759.5,-20 759.5,-20 759.5,-632 759.5,-632 759.5,-638 753.5,-644 747.5,-644 747.5,-644 20,-644 20,-644 14,-644 8,-638 8,-632 8,-632 8,-20 8,-20 8,-14 14,-8 20,-8"/>
<text text-anchor="middle" x="383.75" y="-632.8" font-family="Helvetica,sans-Serif" font-weight="bold" font-size="9.00">src</text>
</g>
<g id="clust2" class="cluster">
<title>cluster_src/app</title>
<path fill="#ffffff" stroke="black" stroke-width="2" d="M28,-16C28,-16 195.5,-16 195.5,-16 201.5,-16 207.5,-22 207.5,-28 207.5,-28 207.5,-146 207.5,-146 207.5,-152 201.5,-158 195.5,-158 195.5,-158 28,-158 28,-158 22,-158 16,-152 16,-146 16,-146 16,-28 16,-28 16,-22 22,-16 28,-16"/>
<text text-anchor="middle" x="111.75" y="-146.8" font-family="Helvetica,sans-Serif" font-weight="bold" font-size="9.00">app</text>
</g>
<g id="clust3" class="cluster">
<title>cluster_src/app/timer</title>
<path fill="#ffffff" stroke="black" stroke-width="2" d="M36,-80C36,-80 84,-80 84,-80 90,-80 96,-86 96,-92 96,-92 96,-120 96,-120 96,-126 90,-132 84,-132 84,-132 36,-132 36,-132 30,-132 24,-126 24,-120 24,-120 24,-92 24,-92 24,-86 30,-80 36,-80"/>
<text text-anchor="middle" x="60" y="-120.8" font-family="Helvetica,sans-Serif" font-weight="bold" font-size="9.00">timer</text>
</g>
<g id="clust4" class="cluster">
<title>cluster_src/client</title>
<path fill="#ffffff" stroke="black" stroke-width="2" d="M116,-166C116,-166 574.5,-166 574.5,-166 580.5,-166 586.5,-172 586.5,-178 586.5,-178 586.5,-390 586.5,-390 586.5,-396 580.5,-402 574.5,-402 574.5,-402 116,-402 116,-402 110,-402 104,-396 104,-390 104,-390 104,-178 104,-178 104,-172 110,-166 116,-166"/>
<text text-anchor="middle" x="345.25" y="-390.8" font-family="Helvetica,sans-Serif" font-weight="bold" font-size="9.00">client</text>
</g>
<g id="clust5" class="cluster">
<title>cluster_src/client/components</title>
<path fill="#ffffff" stroke="black" stroke-width="2" d="M124,-234C124,-234 401,-234 401,-234 407,-234 413,-240 413,-246 413,-246 413,-364 413,-364 413,-370 407,-376 401,-376 401,-376 124,-376 124,-376 118,-376 112,-370 112,-364 112,-364 112,-246 112,-246 112,-240 118,-234 124,-234"/>
<text text-anchor="middle" x="262.5" y="-364.8" font-family="Helvetica,sans-Serif" font-weight="bold" font-size="9.00">components</text>
</g>
<g id="clust6" class="cluster">
<title>cluster_src/client/components/ui</title>
<path fill="#ffffff" stroke="black" stroke-width="2" d="M334.5,-242C334.5,-242 390.5,-242 390.5,-242 396.5,-242 402.5,-248 402.5,-254 402.5,-254 402.5,-312 402.5,-312 402.5,-318 396.5,-324 390.5,-324 390.5,-324 334.5,-324 334.5,-324 328.5,-324 322.5,-318 322.5,-312 322.5,-312 322.5,-254 322.5,-254 322.5,-248 328.5,-242 334.5,-242"/>
<text text-anchor="middle" x="362.5" y="-312.8" font-family="Helvetica,sans-Serif" font-weight="bold" font-size="9.00">ui</text>
</g>
<g id="clust7" class="cluster">
<title>cluster_src/client/hooks</title>
<path fill="#ffffff" stroke="black" stroke-width="2" d="M433,-174C433,-174 566.5,-174 566.5,-174 572.5,-174 578.5,-180 578.5,-186 578.5,-186 578.5,-214 578.5,-214 578.5,-220 572.5,-226 566.5,-226 566.5,-226 433,-226 433,-226 427,-226 421,-220 421,-214 421,-214 421,-186 421,-186 421,-180 427,-174 433,-174"/>
<text text-anchor="middle" x="499.75" y="-214.8" font-family="Helvetica,sans-Serif" font-weight="bold" font-size="9.00">hooks</text>
</g>
<g id="clust8" class="cluster">
<title>cluster_src/client/styles</title>
<path fill="#ffffff" stroke="black" stroke-width="2" d="M137.5,-174C137.5,-174 194.5,-174 194.5,-174 200.5,-174 206.5,-180 206.5,-186 206.5,-186 206.5,-214 206.5,-214 206.5,-220 200.5,-226 194.5,-226 194.5,-226 137.5,-226 137.5,-226 131.5,-226 125.5,-220 125.5,-214 125.5,-214 125.5,-186 125.5,-186 125.5,-180 131.5,-174 137.5,-174"/>
<text text-anchor="middle" x="166" y="-214.8" font-family="Helvetica,sans-Serif" font-weight="bold" font-size="9.00">styles</text>
</g>
<g id="clust9" class="cluster">
<title>cluster_src/lib</title>
<path fill="#ffffff" stroke="black" stroke-width="2" d="M511,-410C511,-410 652.5,-410 652.5,-410 658.5,-410 664.5,-416 664.5,-422 664.5,-422 664.5,-480 664.5,-480 664.5,-486 658.5,-492 652.5,-492 652.5,-492 511,-492 511,-492 505,-492 499,-486 499,-480 499,-480 499,-422 499,-422 499,-416 505,-410 511,-410"/>
<text text-anchor="middle" x="581.75" y="-480.8" font-family="Helvetica,sans-Serif" font-weight="bold" font-size="9.00">lib</text>
</g>
<g id="clust10" class="cluster">
<title>cluster_src/server</title>
<path fill="#ffffff" stroke="black" stroke-width="2" d="M503,-500C503,-500 739.5,-500 739.5,-500 745.5,-500 751.5,-506 751.5,-512 751.5,-512 751.5,-606 751.5,-606 751.5,-612 745.5,-618 739.5,-618 739.5,-618 503,-618 503,-618 497,-618 491,-612 491,-606 491,-606 491,-512 491,-512 491,-506 497,-500 503,-500"/>
<text text-anchor="middle" x="621.25" y="-606.8" font-family="Helvetica,sans-Serif" font-weight="bold" font-size="9.00">server</text>
</g>
<g id="clust11" class="cluster">
<title>cluster_src/server/actions</title>
<path fill="#ffffff" stroke="black" stroke-width="2" d="M511,-508C511,-508 557,-508 557,-508 563,-508 569,-514 569,-520 569,-520 569,-548 569,-548 569,-554 563,-560 557,-560 557,-560 511,-560 511,-560 505,-560 499,-554 499,-548 499,-548 499,-520 499,-520 499,-514 505,-508 511,-508"/>
<text text-anchor="middle" x="534" y="-548.8" font-family="Helvetica,sans-Serif" font-weight="bold" font-size="9.00">actions</text>
</g>
<g id="clust12" class="cluster">
<title>cluster_src/server/db</title>
<path fill="#ffffff" stroke="black" stroke-width="2" d="M606.5,-514C606.5,-514 731.5,-514 731.5,-514 737.5,-514 743.5,-520 743.5,-526 743.5,-526 743.5,-554 743.5,-554 743.5,-560 737.5,-566 731.5,-566 731.5,-566 606.5,-566 606.5,-566 600.5,-566 594.5,-560 594.5,-554 594.5,-554 594.5,-526 594.5,-526 594.5,-520 600.5,-514 606.5,-514"/>
<text text-anchor="middle" x="669" y="-554.8" font-family="Helvetica,sans-Serif" font-weight="bold" font-size="9.00">db</text>
</g>
<!-- src/app/layout.tsx -->
<g id="node1" class="node">
<title>src/app/layout.tsx</title>
<g id="a_node1"><a xlink:href="src/app/layout.tsx" xlink:title="layout.tsx">
<path fill="#bbfeff" stroke="black" d="M84.5,-42C84.5,-42 35.5,-42 35.5,-42 32.5,-42 29.5,-39 29.5,-36 29.5,-36 29.5,-30 29.5,-30 29.5,-27 32.5,-24 35.5,-24 35.5,-24 84.5,-24 84.5,-24 87.5,-24 90.5,-27 90.5,-30 90.5,-30 90.5,-36 90.5,-36 90.5,-39 87.5,-42 84.5,-42"/>
<text text-anchor="start" x="37.5" y="-30.8" font-family="Helvetica,sans-Serif" font-size="9.00">layout.tsx</text>
</a>
</g>
</g>
<!-- src/app/manifest.ts -->
<g id="node2" class="node">
<title>src/app/manifest.ts</title>
<g id="a_node2"><a xlink:href="src/app/manifest.ts" xlink:title="manifest.ts">
<path fill="#ddfeff" stroke="black" d="M193.5,-42C193.5,-42 138.5,-42 138.5,-42 135.5,-42 132.5,-39 132.5,-36 132.5,-36 132.5,-30 132.5,-30 132.5,-27 135.5,-24 138.5,-24 138.5,-24 193.5,-24 193.5,-24 196.5,-24 199.5,-27 199.5,-30 199.5,-30 199.5,-36 199.5,-36 199.5,-39 196.5,-42 193.5,-42"/>
<text text-anchor="start" x="140.5" y="-30.8" font-family="Helvetica,sans-Serif" font-size="9.00">manifest.ts</text>
</a>
</g>
</g>
<!-- src/app/layout.tsx&#45;&gt;src/app/manifest.ts -->
<g id="edge1" class="edge">
<title>src/app/layout.tsx&#45;&gt;src/app/manifest.ts</title>
<path fill="none" stroke="#000000" stroke-width="2" stroke-opacity="0.200000" d="M90.52,-33C101.67,-33 114.53,-33 126.39,-33"/>
<polygon fill="#000000" fill-opacity="0.200000" stroke="#000000" stroke-width="2" stroke-opacity="0.200000" points="126.48,-35.1 132.48,-33 126.48,-30.9 126.48,-35.1"/>
</g>
<!-- src/client/components/loading&#45;page.tsx -->
<g id="node3" class="node">
<title>src/client/components/loading&#45;page.tsx</title>
<g id="a_node3"><a xlink:href="src/client/components/loading-page.tsx" xlink:title="loading&#45;page.tsx">
<path fill="#bbfeff" stroke="black" d="M206,-260C206,-260 126,-260 126,-260 123,-260 120,-257 120,-254 120,-254 120,-248 120,-248 120,-245 123,-242 126,-242 126,-242 206,-242 206,-242 209,-242 212,-245 212,-248 212,-248 212,-254 212,-254 212,-257 209,-260 206,-260"/>
<text text-anchor="start" x="128" y="-248.8" font-family="Helvetica,sans-Serif" font-size="9.00">loading&#45;page.tsx</text>
</a>
</g>
</g>
<!-- src/app/layout.tsx&#45;&gt;src/client/components/loading&#45;page.tsx -->
<g id="edge2" class="edge">
<title>src/app/layout.tsx&#45;&gt;src/client/components/loading&#45;page.tsx</title>
<path fill="none" stroke="#000000" stroke-width="2" stroke-opacity="0.200000" d="M90.17,-42.13C92.42,-43.78 94.42,-45.72 96,-48 107.45,-64.56 92.07,-212.79 104,-229 106.91,-232.95 110.6,-236.2 114.71,-238.86"/>
<polygon fill="#000000" fill-opacity="0.200000" stroke="#000000" stroke-width="2" stroke-opacity="0.200000" points="113.87,-240.8 120.13,-241.93 115.94,-237.15 113.87,-240.8"/>
</g>
<!-- src/client/hooks/sync.tsx -->
<g id="node4" class="node">
<title>src/client/hooks/sync.tsx</title>
<g id="a_node4"><a xlink:href="src/client/hooks/sync.tsx" xlink:title="sync.tsx">
<path fill="#bbfeff" stroke="black" d="M477,-200C477,-200 435,-200 435,-200 432,-200 429,-197 429,-194 429,-194 429,-188 429,-188 429,-185 432,-182 435,-182 435,-182 477,-182 477,-182 480,-182 483,-185 483,-188 483,-188 483,-194 483,-194 483,-197 480,-200 477,-200"/>
<text text-anchor="start" x="437" y="-188.8" font-family="Helvetica,sans-Serif" font-size="9.00">sync.tsx</text>
</a>
</g>
</g>
<!-- src/app/layout.tsx&#45;&gt;src/client/hooks/sync.tsx -->
<g id="edge3" class="edge">
<title>src/app/layout.tsx&#45;&gt;src/client/hooks/sync.tsx</title>
<path fill="none" stroke="#000000" stroke-width="2" stroke-opacity="0.200000" d="M83.6,-42.06C151.19,-69.17 351.74,-149.59 426.49,-179.57"/>
<polygon fill="#000000" fill-opacity="0.200000" stroke="#000000" stroke-width="2" stroke-opacity="0.200000" points="426.14,-181.69 432.49,-181.97 427.71,-177.79 426.14,-181.69"/>
</g>
<!-- src/client/styles/globals.css -->
<g id="node5" class="node">
<title>src/client/styles/globals.css</title>
<g id="a_node5"><a xlink:href="src/client/styles/globals.css" xlink:title="globals.css">
<path fill="#ffffcc" stroke="black" d="M192.5,-200C192.5,-200 139.5,-200 139.5,-200 136.5,-200 133.5,-197 133.5,-194 133.5,-194 133.5,-188 133.5,-188 133.5,-185 136.5,-182 139.5,-182 139.5,-182 192.5,-182 192.5,-182 195.5,-182 198.5,-185 198.5,-188 198.5,-188 198.5,-194 198.5,-194 198.5,-197 195.5,-200 192.5,-200"/>
<text text-anchor="start" x="141.5" y="-188.8" font-family="Helvetica,sans-Serif" font-size="9.00">globals.css</text>
</a>
</g>
</g>
<!-- src/app/layout.tsx&#45;&gt;src/client/styles/globals.css -->
<g id="edge4" class="edge">
<title>src/app/layout.tsx&#45;&gt;src/client/styles/globals.css</title>
<path fill="none" stroke="#000000" stroke-width="2" stroke-opacity="0.200000" d="M90.11,-42.18C92.37,-43.81 94.39,-45.74 96,-48 110.59,-68.51 89.95,-140.11 104,-161 109.67,-169.43 118.43,-175.59 127.56,-180.04"/>
<polygon fill="#000000" fill-opacity="0.200000" stroke="#000000" stroke-width="2" stroke-opacity="0.200000" points="126.93,-182.06 133.27,-182.6 128.65,-178.23 126.93,-182.06"/>
</g>
<!-- src/lib/time.ts -->
<g id="node10" class="node">
<title>src/lib/time.ts</title>
<g id="a_node10"><a xlink:href="src/lib/time.ts" xlink:title="time.ts">
<path fill="#ddfeff" stroke="black" d="M555,-466C555,-466 513,-466 513,-466 510,-466 507,-463 507,-460 507,-460 507,-454 507,-454 507,-451 510,-448 513,-448 513,-448 555,-448 555,-448 558,-448 561,-451 561,-454 561,-454 561,-460 561,-460 561,-463 558,-466 555,-466"/>
<text text-anchor="start" x="518" y="-454.8" font-family="Helvetica,sans-Serif" font-size="9.00">time.ts</text>
</a>
</g>
</g>
<!-- src/client/hooks/sync.tsx&#45;&gt;src/lib/time.ts -->
<g id="edge21" class="edge">
<title>src/client/hooks/sync.tsx&#45;&gt;src/lib/time.ts</title>
<path fill="none" stroke="#000000" stroke-width="2" stroke-opacity="0.200000" d="M479.88,-200.32C481.07,-201.42 482.13,-202.64 483,-204 497.29,-226.27 475.4,-420.63 491,-442 493.64,-445.61 497.22,-448.36 501.19,-450.44"/>
<polygon fill="#000000" fill-opacity="0.200000" stroke="#000000" stroke-width="2" stroke-opacity="0.200000" points="500.45,-452.41 506.79,-452.9 502.14,-448.57 500.45,-452.41"/>
</g>
<!-- src/client/db.ts -->
<g id="node13" class="node">
<title>src/client/db.ts</title>
<g id="a_node13"><a xlink:href="src/client/db.ts" xlink:title="db.ts">
<path fill="#ddfeff" stroke="black" d="M555,-255C555,-255 513,-255 513,-255 510,-255 507,-252 507,-249 507,-249 507,-243 507,-243 507,-240 510,-237 513,-237 513,-237 555,-237 555,-237 558,-237 561,-240 561,-243 561,-243 561,-249 561,-249 561,-252 558,-255 555,-255"/>
<text text-anchor="start" x="522" y="-243.8" font-family="Helvetica,sans-Serif" font-size="9.00">db.ts</text>
</a>
</g>
</g>
<!-- src/client/hooks/sync.tsx&#45;&gt;src/client/db.ts -->
<g id="edge19" class="edge">
<title>src/client/hooks/sync.tsx&#45;&gt;src/client/db.ts</title>
<path fill="none" stroke="#000000" stroke-width="2" stroke-opacity="0.200000" d="M478.98,-200.24C480.45,-201.37 481.82,-202.62 483,-204 490.59,-212.86 483.07,-220.45 491,-229 493.88,-232.1 497.4,-234.65 501.16,-236.74"/>
<polygon fill="#000000" fill-opacity="0.200000" stroke="#000000" stroke-width="2" stroke-opacity="0.200000" points="500.5,-238.75 506.81,-239.48 502.33,-234.97 500.5,-238.75"/>
</g>
<!-- src/client/hooks/useUserId.ts -->
<g id="node18" class="node">
<title>src/client/hooks/useUserId.ts</title>
<g id="a_node18"><a xlink:href="src/client/hooks/useUserId.ts" xlink:title="useUserId.ts">
<path fill="#ddfeff" stroke="black" d="M564.5,-200C564.5,-200 503.5,-200 503.5,-200 500.5,-200 497.5,-197 497.5,-194 497.5,-194 497.5,-188 497.5,-188 497.5,-185 500.5,-182 503.5,-182 503.5,-182 564.5,-182 564.5,-182 567.5,-182 570.5,-185 570.5,-188 570.5,-188 570.5,-194 570.5,-194 570.5,-197 567.5,-200 564.5,-200"/>
<text text-anchor="start" x="505.5" y="-188.8" font-family="Helvetica,sans-Serif" font-size="9.00">useUserId.ts</text>
</a>
</g>
</g>
<!-- src/client/hooks/sync.tsx&#45;&gt;src/client/hooks/useUserId.ts -->
<g id="edge18" class="edge">
<title>src/client/hooks/sync.tsx&#45;&gt;src/client/hooks/useUserId.ts</title>
<path fill="none" stroke="#000000" stroke-width="2" stroke-opacity="0.200000" d="M483.15,-191C485.72,-191 488.35,-191 491.02,-191"/>
<polygon fill="#000000" fill-opacity="0.200000" stroke="#000000" stroke-width="2" stroke-opacity="0.200000" points="491.27,-193.1 497.27,-191 491.27,-188.9 491.27,-193.1"/>
</g>
<!-- src/lib/error.ts -->
<g id="node19" class="node">
<title>src/lib/error.ts</title>
<g id="a_node19"><a xlink:href="src/lib/error.ts" xlink:title="error.ts">
<path fill="#ddfeff" stroke="black" d="M650.5,-451C650.5,-451 608.5,-451 608.5,-451 605.5,-451 602.5,-448 602.5,-445 602.5,-445 602.5,-439 602.5,-439 602.5,-436 605.5,-433 608.5,-433 608.5,-433 650.5,-433 650.5,-433 653.5,-433 656.5,-436 656.5,-439 656.5,-439 656.5,-445 656.5,-445 656.5,-448 653.5,-451 650.5,-451"/>
<text text-anchor="start" x="613" y="-439.8" font-family="Helvetica,sans-Serif" font-size="9.00">error.ts</text>
</a>
</g>
</g>
<!-- src/client/hooks/sync.tsx&#45;&gt;src/lib/error.ts -->
<g id="edge20" class="edge">
<title>src/client/hooks/sync.tsx&#45;&gt;src/lib/error.ts</title>
<path fill="none" stroke="#000000" stroke-width="2" stroke-opacity="0.200000" d="M479.83,-200.35C481.03,-201.44 482.11,-202.65 483,-204 498.62,-227.58 478.01,-305.88 491,-331 497.95,-344.44 575.86,-403.09 611.22,-429.29"/>
<polygon fill="#000000" fill-opacity="0.200000" stroke="#000000" stroke-width="2" stroke-opacity="0.200000" points="610.04,-431.03 616.12,-432.91 612.54,-427.65 610.04,-431.03"/>
</g>
<!-- src/server/actions/index.ts -->
<g id="node20" class="node">
<title>src/server/actions/index.ts</title>
<g id="a_node20"><a xlink:href="src/server/actions/index.ts" xlink:title="index.ts">
<path fill="#ddfeff" stroke="black" d="M555,-534C555,-534 513,-534 513,-534 510,-534 507,-531 507,-528 507,-528 507,-522 507,-522 507,-519 510,-516 513,-516 513,-516 555,-516 555,-516 558,-516 561,-519 561,-522 561,-522 561,-528 561,-528 561,-531 558,-534 555,-534"/>
<text text-anchor="start" x="515.5" y="-522.8" font-family="Helvetica,sans-Serif" font-size="9.00">index.ts</text>
</a>
</g>
</g>
<!-- src/client/hooks/sync.tsx&#45;&gt;src/server/actions/index.ts -->
<g id="edge22" class="edge">
<title>src/client/hooks/sync.tsx&#45;&gt;src/server/actions/index.ts</title>
<path fill="none" stroke="#000000" stroke-width="2" stroke-opacity="0.200000" d="M479.89,-200.31C481.08,-201.41 482.13,-202.64 483,-204 500.38,-231.28 475.81,-466.45 491,-495 494.82,-502.19 501.22,-508.05 507.89,-512.62"/>
<polygon fill="#000000" fill-opacity="0.200000" stroke="#000000" stroke-width="2" stroke-opacity="0.200000" points="506.81,-514.43 513,-515.87 509.06,-510.88 506.81,-514.43"/>
</g>
<!-- src/app/page.tsx -->
<g id="node6" class="node">
<title>src/app/page.tsx</title>
<g id="a_node6"><a xlink:href="src/app/page.tsx" xlink:title="page.tsx">
<path fill="#bbfeff" stroke="black" d="M82,-72C82,-72 38,-72 38,-72 35,-72 32,-69 32,-66 32,-66 32,-60 32,-60 32,-57 35,-54 38,-54 38,-54 82,-54 82,-54 85,-54 88,-57 88,-60 88,-60 88,-66 88,-66 88,-69 85,-72 82,-72"/>
<text text-anchor="start" x="40" y="-60.8" font-family="Helvetica,sans-Serif" font-size="9.00">page.tsx</text>
</a>
</g>
</g>
<!-- src/client/components/home&#45;page.tsx -->
<g id="node7" class="node">
<title>src/client/components/home&#45;page.tsx</title>
<g id="a_node7"><a xlink:href="src/client/components/home-page.tsx" xlink:title="home&#45;page.tsx">
<path fill="#bbfeff" stroke="black" d="M202,-294C202,-294 130,-294 130,-294 127,-294 124,-291 124,-288 124,-288 124,-282 124,-282 124,-279 127,-276 130,-276 130,-276 202,-276 202,-276 205,-276 208,-279 208,-282 208,-282 208,-288 208,-288 208,-291 205,-294 202,-294"/>
<text text-anchor="start" x="132" y="-282.8" font-family="Helvetica,sans-Serif" font-size="9.00">home&#45;page.tsx</text>
</a>
</g>
</g>
<!-- src/app/page.tsx&#45;&gt;src/client/components/home&#45;page.tsx -->
<g id="edge5" class="edge">
<title>src/app/page.tsx&#45;&gt;src/client/components/home&#45;page.tsx</title>
<path fill="none" stroke="#000000" stroke-width="2" stroke-opacity="0.200000" d="M88.17,-70.01C91.22,-71.83 93.96,-74.12 96,-77 108.15,-94.15 91.19,-249.34 104,-266 107.75,-270.88 112.75,-274.54 118.26,-277.27"/>
<polygon fill="#000000" fill-opacity="0.200000" stroke="#000000" stroke-width="2" stroke-opacity="0.200000" points="117.59,-279.27 123.93,-279.71 119.25,-275.41 117.59,-279.27"/>
</g>
<!-- src/client/components/timer&#45;form.tsx -->
<g id="node11" class="node">
<title>src/client/components/timer&#45;form.tsx</title>
<g id="a_node11"><a xlink:href="src/client/components/timer-form.tsx" xlink:title="timer&#45;form.tsx">
<path fill="#bbfeff" stroke="black" d="M300,-296C300,-296 232,-296 232,-296 229,-296 226,-293 226,-290 226,-290 226,-284 226,-284 226,-281 229,-278 232,-278 232,-278 300,-278 300,-278 303,-278 306,-281 306,-284 306,-284 306,-290 306,-290 306,-293 303,-296 300,-296"/>
<text text-anchor="start" x="234" y="-284.8" font-family="Helvetica,sans-Serif" font-size="9.00">timer&#45;form.tsx</text>
</a>
</g>
</g>
<!-- src/client/components/home&#45;page.tsx&#45;&gt;src/client/components/timer&#45;form.tsx -->
<g id="edge8" class="edge">
<title>src/client/components/home&#45;page.tsx&#45;&gt;src/client/components/timer&#45;form.tsx</title>
<path fill="none" stroke="#000000" stroke-width="2" stroke-opacity="0.200000" d="M208.28,-285.84C212.12,-285.92 216.03,-286 219.91,-286.08"/>
<polygon fill="#000000" fill-opacity="0.200000" stroke="#000000" stroke-width="2" stroke-opacity="0.200000" points="219.92,-288.18 225.96,-286.2 220,-283.98 219.92,-288.18"/>
</g>
<!-- src/app/timer/page.tsx -->
<g id="node8" class="node">
<title>src/app/timer/page.tsx</title>
<g id="a_node8"><a xlink:href="src/app/timer/page.tsx" xlink:title="page.tsx">
<path fill="#bbfeff" stroke="black" d="M82,-106C82,-106 38,-106 38,-106 35,-106 32,-103 32,-100 32,-100 32,-94 32,-94 32,-91 35,-88 38,-88 38,-88 82,-88 82,-88 85,-88 88,-91 88,-94 88,-94 88,-100 88,-100 88,-103 85,-106 82,-106"/>
<text text-anchor="start" x="40" y="-94.8" font-family="Helvetica,sans-Serif" font-size="9.00">page.tsx</text>
</a>
</g>
</g>
<!-- src/client/components/timer&#45;page.tsx -->
<g id="node9" class="node">
<title>src/client/components/timer&#45;page.tsx</title>
<g id="a_node9"><a xlink:href="src/client/components/timer-page.tsx" xlink:title="timer&#45;page.tsx">
<path fill="#bbfeff" stroke="black" d="M301,-339C301,-339 231,-339 231,-339 228,-339 225,-336 225,-333 225,-333 225,-327 225,-327 225,-324 228,-321 231,-321 231,-321 301,-321 301,-321 304,-321 307,-324 307,-327 307,-327 307,-333 307,-333 307,-336 304,-339 301,-339"/>
<text text-anchor="start" x="233" y="-327.8" font-family="Helvetica,sans-Serif" font-size="9.00">timer&#45;page.tsx</text>
</a>
</g>
</g>
<!-- src/app/timer/page.tsx&#45;&gt;src/client/components/timer&#45;page.tsx -->
<g id="edge6" class="edge">
<title>src/app/timer/page.tsx&#45;&gt;src/client/components/timer&#45;page.tsx</title>
<path fill="none" stroke="#000000" stroke-width="2" stroke-opacity="0.200000" d="M61.63,-106.27C64.27,-142.3 75.64,-272.32 104,-300 133.91,-329.19 182.56,-334.75 218.56,-334.19"/>
<polygon fill="#000000" fill-opacity="0.200000" stroke="#000000" stroke-width="2" stroke-opacity="0.200000" points="218.73,-336.29 224.67,-334.04 218.62,-332.09 218.73,-336.29"/>
</g>
<!-- src/app/timer/page.tsx&#45;&gt;src/lib/time.ts -->
<g id="edge7" class="edge">
<title>src/app/timer/page.tsx&#45;&gt;src/lib/time.ts</title>
<path fill="none" stroke="#000000" stroke-width="2" stroke-opacity="0.200000" d="M61.16,-106.23C62.1,-149.99 68.18,-336.17 104,-379 152.51,-437.01 189.38,-434 265,-434 265,-434 265,-434 363.5,-434 411.59,-434 466.65,-443.2 500.63,-449.96"/>
<polygon fill="#000000" fill-opacity="0.200000" stroke="#000000" stroke-width="2" stroke-opacity="0.200000" points="500.43,-452.07 506.73,-451.2 501.26,-447.95 500.43,-452.07"/>
</g>
<!-- src/client/components/timer&#45;page.tsx&#45;&gt;src/lib/time.ts -->
<g id="edge14" class="edge">
<title>src/client/components/timer&#45;page.tsx&#45;&gt;src/lib/time.ts</title>
<path fill="none" stroke="#000000" stroke-width="2" stroke-opacity="0.200000" d="M276.46,-339.1C286.56,-348.41 303.36,-362.78 320,-372 387.26,-409.27 422.36,-382.71 483,-430 488.05,-433.94 485.95,-438.06 491,-442 494.04,-444.38 497.5,-446.4 501.08,-448.11"/>
<polygon fill="#000000" fill-opacity="0.200000" stroke="#000000" stroke-width="2" stroke-opacity="0.200000" points="500.44,-450.12 506.79,-450.55 502.1,-446.26 500.44,-450.12"/>
</g>
<!-- src/client/components/ui/link.tsx -->
<g id="node14" class="node">
<title>src/client/components/ui/link.tsx</title>
<g id="a_node14"><a xlink:href="src/client/components/ui/link.tsx" xlink:title="link.tsx">
<path fill="#bbfeff" stroke="black" d="M383.5,-268C383.5,-268 341.5,-268 341.5,-268 338.5,-268 335.5,-265 335.5,-262 335.5,-262 335.5,-256 335.5,-256 335.5,-253 338.5,-250 341.5,-250 341.5,-250 383.5,-250 383.5,-250 386.5,-250 389.5,-253 389.5,-256 389.5,-256 389.5,-262 389.5,-262 389.5,-265 386.5,-268 383.5,-268"/>
<text text-anchor="start" x="346" y="-256.8" font-family="Helvetica,sans-Serif" font-size="9.00">link.tsx</text>
</a>
</g>
</g>
<!-- src/client/components/timer&#45;page.tsx&#45;&gt;src/client/components/ui/link.tsx -->
<g id="edge12" class="edge">
<title>src/client/components/timer&#45;page.tsx&#45;&gt;src/client/components/ui/link.tsx</title>
<path fill="none" stroke="#000000" stroke-width="2" stroke-opacity="0.200000" d="M284.14,-320.8C291.88,-315.99 300.69,-309.54 307,-302 315.81,-291.48 309.88,-283.27 320,-274 322.82,-271.42 326.11,-269.27 329.59,-267.49"/>
<polygon fill="#000000" fill-opacity="0.200000" stroke="#000000" stroke-width="2" stroke-opacity="0.200000" points="330.56,-269.36 335.17,-264.99 328.84,-265.53 330.56,-269.36"/>
</g>
<!-- src/client/components/visual&#45;timer.tsx -->
<g id="node15" class="node">
<title>src/client/components/visual&#45;timer.tsx</title>
<g id="a_node15"><a xlink:href="src/client/components/visual-timer.tsx" xlink:title="visual&#45;timer.tsx">
<path fill="#bbfeff" stroke="black" d="M399,-350C399,-350 326,-350 326,-350 323,-350 320,-347 320,-344 320,-344 320,-338 320,-338 320,-335 323,-332 326,-332 326,-332 399,-332 399,-332 402,-332 405,-335 405,-338 405,-338 405,-344 405,-344 405,-347 402,-350 399,-350"/>
<text text-anchor="start" x="328" y="-338.8" font-family="Helvetica,sans-Serif" font-size="9.00">visual&#45;timer.tsx</text>
</a>
</g>
</g>
<!-- src/client/components/timer&#45;page.tsx&#45;&gt;src/client/components/visual&#45;timer.tsx -->
<g id="edge13" class="edge">
<title>src/client/components/timer&#45;page.tsx&#45;&gt;src/client/components/visual&#45;timer.tsx</title>
<path fill="none" stroke="#000000" stroke-width="2" stroke-opacity="0.200000" d="M307.08,-334.66C309.32,-334.93 311.59,-335.19 313.86,-335.45"/>
<polygon fill="#000000" fill-opacity="0.200000" stroke="#000000" stroke-width="2" stroke-opacity="0.200000" points="313.65,-337.54 319.85,-336.15 314.13,-333.37 313.65,-337.54"/>
</g>
<!-- src/lib/time.ts&#45;&gt;src/lib/error.ts -->
<g id="edge25" class="edge">
<title>src/lib/time.ts&#45;&gt;src/lib/error.ts</title>
<path fill="none" stroke="#000000" stroke-width="2" stroke-opacity="0.200000" d="M561.04,-452.82C571.9,-451.08 584.61,-449.04 596.06,-447.2"/>
<polygon fill="#000000" fill-opacity="0.200000" stroke="#000000" stroke-width="2" stroke-opacity="0.200000" points="596.68,-449.23 602.27,-446.21 596.01,-445.08 596.68,-449.23"/>
</g>
<!-- src/client/components/timer&#45;form.tsx&#45;&gt;src/lib/time.ts -->
<g id="edge11" class="edge">
<title>src/client/components/timer&#45;form.tsx&#45;&gt;src/lib/time.ts</title>
<path fill="none" stroke="#000000" stroke-width="2" stroke-opacity="0.200000" d="M284.99,-296.1C292.72,-300.81 301.28,-307.21 307,-315 318.32,-330.41 305.66,-343.36 320,-356 351.53,-383.78 372.35,-362.38 413,-373 444.82,-381.31 461.61,-372.02 483,-397 496.21,-412.43 477.88,-426.49 491,-442 493.75,-445.26 497.27,-447.81 501.09,-449.8"/>
<polygon fill="#000000" fill-opacity="0.200000" stroke="#000000" stroke-width="2" stroke-opacity="0.200000" points="500.51,-451.85 506.85,-452.35 502.21,-448 500.51,-451.85"/>
</g>
<!-- src/client/components/ui/button.tsx -->
<g id="node12" class="node">
<title>src/client/components/ui/button.tsx</title>
<g id="a_node12"><a xlink:href="src/client/components/ui/button.tsx" xlink:title="button.tsx">
<path fill="#bbfeff" stroke="black" d="M388.5,-298C388.5,-298 336.5,-298 336.5,-298 333.5,-298 330.5,-295 330.5,-292 330.5,-292 330.5,-286 330.5,-286 330.5,-283 333.5,-280 336.5,-280 336.5,-280 388.5,-280 388.5,-280 391.5,-280 394.5,-283 394.5,-286 394.5,-286 394.5,-292 394.5,-292 394.5,-295 391.5,-298 388.5,-298"/>
<text text-anchor="start" x="338.5" y="-286.8" font-family="Helvetica,sans-Serif" font-size="9.00">button.tsx</text>
</a>
</g>
</g>
<!-- src/client/components/timer&#45;form.tsx&#45;&gt;src/client/components/ui/button.tsx -->
<g id="edge9" class="edge">
<title>src/client/components/timer&#45;form.tsx&#45;&gt;src/client/components/ui/button.tsx</title>
<path fill="none" stroke="#000000" stroke-width="2" stroke-opacity="0.200000" d="M306.26,-287.83C312.14,-287.96 318.19,-288.08 324.04,-288.21"/>
<polygon fill="#000000" fill-opacity="0.200000" stroke="#000000" stroke-width="2" stroke-opacity="0.200000" points="324.24,-290.31 330.28,-288.34 324.33,-286.11 324.24,-290.31"/>
</g>
<!-- src/client/components/timer&#45;form.tsx&#45;&gt;src/client/db.ts -->
<g id="edge10" class="edge">
<title>src/client/components/timer&#45;form.tsx&#45;&gt;src/client/db.ts</title>
<path fill="none" stroke="#000000" stroke-width="2" stroke-opacity="0.200000" d="M273.63,-277.77C282.6,-266.15 299.85,-246.77 320,-239 352.01,-226.66 449.43,-235.87 500.69,-241.89"/>
<polygon fill="#000000" fill-opacity="0.200000" stroke="#000000" stroke-width="2" stroke-opacity="0.200000" points="500.5,-243.98 506.7,-242.6 500.99,-239.81 500.5,-243.98"/>
</g>
<!-- src/lib/utils.ts -->
<g id="node16" class="node">
<title>src/lib/utils.ts</title>
<g id="a_node16"><a xlink:href="src/lib/utils.ts" xlink:title="utils.ts">
<path fill="#ddfeff" stroke="black" d="M555,-436C555,-436 513,-436 513,-436 510,-436 507,-433 507,-430 507,-430 507,-424 507,-424 507,-421 510,-418 513,-418 513,-418 555,-418 555,-418 558,-418 561,-421 561,-424 561,-424 561,-430 561,-430 561,-433 558,-436 555,-436"/>
<text text-anchor="start" x="518.5" y="-424.8" font-family="Helvetica,sans-Serif" font-size="9.00">utils.ts</text>
</a>
</g>
</g>
<!-- src/client/components/ui/button.tsx&#45;&gt;src/lib/utils.ts -->
<g id="edge15" class="edge">
<title>src/client/components/ui/button.tsx&#45;&gt;src/lib/utils.ts</title>
<path fill="none" stroke="#000000" stroke-width="2" stroke-opacity="0.200000" d="M394.68,-292.6C401.29,-294.55 407.83,-297.52 413,-302 419.92,-308 415.23,-313.88 421,-321 442.12,-347.04 458.54,-341.06 483,-364 499.01,-379.01 514.2,-399.33 523.55,-412.79"/>
<polygon fill="#000000" fill-opacity="0.200000" stroke="#000000" stroke-width="2" stroke-opacity="0.200000" points="521.83,-413.99 526.95,-417.75 525.3,-411.62 521.83,-413.99"/>
</g>
<!-- src/client/components/ui/link.tsx&#45;&gt;src/client/db.ts -->
<g id="edge16" class="edge">
<title>src/client/components/ui/link.tsx&#45;&gt;src/client/db.ts</title>
<path fill="none" stroke="#000000" stroke-opacity="0.200000" d="M389.61,-257C419.47,-254.71 468.39,-250.96 500.64,-248.48"/>
<polygon fill="none" stroke="#000000" stroke-opacity="0.200000" points="501.04,-250.56 506.86,-248.01 500.71,-246.37 501.04,-250.56"/>
</g>
<!-- src/client/nav.ts -->
<g id="node17" class="node">
<title>src/client/nav.ts</title>
<g id="a_node17"><a xlink:href="src/client/nav.ts" xlink:title="nav.ts">
<path fill="#ddfeff" stroke="black" d="M477,-280C477,-280 435,-280 435,-280 432,-280 429,-277 429,-274 429,-274 429,-268 429,-268 429,-265 432,-262 435,-262 435,-262 477,-262 477,-262 480,-262 483,-265 483,-268 483,-268 483,-274 483,-274 483,-277 480,-280 477,-280"/>
<text text-anchor="start" x="442" y="-268.8" font-family="Helvetica,sans-Serif" font-size="9.00">nav.ts</text>
</a>
</g>
</g>
<!-- src/client/components/ui/link.tsx&#45;&gt;src/client/nav.ts -->
<g id="edge17" class="edge">
<title>src/client/components/ui/link.tsx&#45;&gt;src/client/nav.ts</title>
<path fill="none" stroke="#000000" stroke-width="2" stroke-opacity="0.200000" d="M389.97,-262.47C400.2,-263.81 412.01,-265.36 422.74,-266.77"/>
<polygon fill="#000000" fill-opacity="0.200000" stroke="#000000" stroke-width="2" stroke-opacity="0.200000" points="422.69,-268.88 428.91,-267.58 423.23,-264.72 422.69,-268.88"/>
</g>
<!-- src/client/nav.ts&#45;&gt;src/lib/time.ts -->
<g id="edge24" class="edge">
<title>src/client/nav.ts&#45;&gt;src/lib/time.ts</title>
<path fill="none" stroke="#000000" stroke-width="2" stroke-opacity="0.200000" d="M460.11,-280.12C465.62,-296.63 477.07,-332.7 483,-364 486.25,-381.12 480.25,-428.29 491,-442 493.63,-445.36 497.08,-447.96 500.86,-449.99"/>
<polygon fill="#000000" fill-opacity="0.200000" stroke="#000000" stroke-width="2" stroke-opacity="0.200000" points="500.26,-452.02 506.6,-452.56 501.98,-448.19 500.26,-452.02"/>
</g>
<!-- src/client/nav.ts&#45;&gt;src/client/db.ts -->
<g id="edge23" class="edge">
<title>src/client/nav.ts&#45;&gt;src/client/db.ts</title>
<path fill="none" stroke="#000000" stroke-opacity="0.200000" d="M483.15,-262.4C488.89,-260.51 495.02,-258.49 500.95,-256.54"/>
<polygon fill="none" stroke="#000000" stroke-opacity="0.200000" points="501.75,-258.49 506.8,-254.62 500.44,-254.5 501.75,-258.49"/>
</g>
<!-- src/server/db/schema.ts -->
<g id="node21" class="node">
<title>src/server/db/schema.ts</title>
<g id="a_node21"><a xlink:href="src/server/db/schema.ts" xlink:title="schema.ts">
<path fill="#ddfeff" stroke="black" d="M729.5,-540C729.5,-540 678.5,-540 678.5,-540 675.5,-540 672.5,-537 672.5,-534 672.5,-534 672.5,-528 672.5,-528 672.5,-525 675.5,-522 678.5,-522 678.5,-522 729.5,-522 729.5,-522 732.5,-522 735.5,-525 735.5,-528 735.5,-528 735.5,-534 735.5,-534 735.5,-537 732.5,-540 729.5,-540"/>
<text text-anchor="start" x="680.5" y="-528.8" font-family="Helvetica,sans-Serif" font-size="9.00">schema.ts</text>
</a>
</g>
</g>
<!-- src/server/actions/index.ts&#45;&gt;src/server/db/schema.ts -->
<g id="edge26" class="edge">
<title>src/server/actions/index.ts&#45;&gt;src/server/db/schema.ts</title>
<path fill="none" stroke="#000000" stroke-width="2" stroke-opacity="0.200000" d="M561.02,-519.34C587.34,-514.52 629.06,-509.34 664.5,-516 668.96,-516.84 673.57,-518.18 677.97,-519.72"/>
<polygon fill="#000000" fill-opacity="0.200000" stroke="#000000" stroke-width="2" stroke-opacity="0.200000" points="677.47,-521.78 683.83,-521.92 678.95,-517.84 677.47,-521.78"/>
</g>
<!-- src/server/db/index.ts -->
<g id="node22" class="node">
<title>src/server/db/index.ts</title>
<g id="a_node22"><a xlink:href="src/server/db/index.ts" xlink:title="index.ts">
<path fill="#ddfeff" stroke="black" d="M650.5,-540C650.5,-540 608.5,-540 608.5,-540 605.5,-540 602.5,-537 602.5,-534 602.5,-534 602.5,-528 602.5,-528 602.5,-525 605.5,-522 608.5,-522 608.5,-522 650.5,-522 650.5,-522 653.5,-522 656.5,-525 656.5,-528 656.5,-528 656.5,-534 656.5,-534 656.5,-537 653.5,-540 650.5,-540"/>
<text text-anchor="start" x="611" y="-528.8" font-family="Helvetica,sans-Serif" font-size="9.00">index.ts</text>
</a>
</g>
</g>
<!-- src/server/actions/index.ts&#45;&gt;src/server/db/index.ts -->
<g id="edge27" class="edge">
<title>src/server/actions/index.ts&#45;&gt;src/server/db/index.ts</title>
<path fill="none" stroke="#000000" stroke-width="2" stroke-opacity="0.200000" d="M561.04,-526.67C571.9,-527.37 584.61,-528.18 596.06,-528.92"/>
<polygon fill="#000000" fill-opacity="0.200000" stroke="#000000" stroke-width="2" stroke-opacity="0.200000" points="596.15,-531.03 602.27,-529.32 596.42,-526.84 596.15,-531.03"/>
</g>
<!-- src/server/db/index.ts&#45;&gt;src/server/db/schema.ts -->
<g id="edge28" class="edge">
<title>src/server/db/index.ts&#45;&gt;src/server/db/schema.ts</title>
<path fill="none" stroke="#000000" stroke-width="2" stroke-opacity="0.200000" d="M656.67,-531C659.66,-531 662.75,-531 665.84,-531"/>
<polygon fill="#000000" fill-opacity="0.200000" stroke="#000000" stroke-width="2" stroke-opacity="0.200000" points="666.17,-533.1 672.17,-531 666.17,-528.9 666.17,-533.1"/>
</g>
<!-- src/server/env.ts -->
<g id="node23" class="node">
<title>src/server/env.ts</title>
<g id="a_node23"><a xlink:href="src/server/env.ts" xlink:title="env.ts">
<path fill="#ddfeff" stroke="black" d="M725,-592C725,-592 683,-592 683,-592 680,-592 677,-589 677,-586 677,-586 677,-580 677,-580 677,-577 680,-574 683,-574 683,-574 725,-574 725,-574 728,-574 731,-577 731,-580 731,-580 731,-586 731,-586 731,-589 728,-592 725,-592"/>
<text text-anchor="start" x="690" y="-580.8" font-family="Helvetica,sans-Serif" font-size="9.00">env.ts</text>
</a>
</g>
</g>
<!-- src/server/db/index.ts&#45;&gt;src/server/env.ts -->
<g id="edge29" class="edge">
<title>src/server/db/index.ts&#45;&gt;src/server/env.ts</title>
<path fill="none" stroke="#000000" stroke-width="2" stroke-opacity="0.200000" d="M639.17,-540.32C647.23,-548.61 659.86,-560.66 672.5,-569 673.49,-569.65 674.51,-570.28 675.55,-570.9"/>
<polygon fill="#000000" fill-opacity="0.200000" stroke="#000000" stroke-width="2" stroke-opacity="0.200000" points="674.63,-572.8 680.91,-573.84 676.66,-569.11 674.63,-572.8"/>
</g>
</g>
</svg>
