<?xml version="1.0" encoding="UTF-8" standalone="no"?>
<!DOCTYPE svg PUBLIC "-//W3C//DTD SVG 1.1//EN"
 "http://www.w3.org/Graphics/SVG/1.1/DTD/svg11.dtd">
<!-- Generated by graphviz version 2.43.0 (0)
 -->
<!-- Title: dependency&#45;cruiser output Pages: 1 -->
<svg width="776pt" height="534pt"
 viewBox="0.00 0.00 775.50 534.00" xmlns="http://www.w3.org/2000/svg" xmlns:xlink="http://www.w3.org/1999/xlink">
<g id="graph0" class="graph" transform="scale(1 1) rotate(0) translate(4 530)">
<title>dependency&#45;cruiser output</title>
<polygon fill="white" stroke="transparent" points="-4,4 -4,-530 771.5,-530 771.5,4 -4,4"/>
<g id="clust1" class="cluster">
<title>cluster_src</title>
<path fill="#ffffff" stroke="black" stroke-width="2" d="M20,-8C20,-8 747.5,-8 747.5,-8 753.5,-8 759.5,-14 759.5,-20 759.5,-20 759.5,-506 759.5,-506 759.5,-512 753.5,-518 747.5,-518 747.5,-518 20,-518 20,-518 14,-518 8,-512 8,-506 8,-506 8,-20 8,-20 8,-14 14,-8 20,-8"/>
<text text-anchor="middle" x="383.75" y="-506.8" font-family="Helvetica,sans-Serif" font-weight="bold" font-size="9.00">src</text>
</g>
<g id="clust2" class="cluster">
<title>cluster_src/app</title>
<path fill="#ffffff" stroke="black" stroke-width="2" d="M28,-16C28,-16 195.5,-16 195.5,-16 201.5,-16 207.5,-22 207.5,-28 207.5,-28 207.5,-146 207.5,-146 207.5,-152 201.5,-158 195.5,-158 195.5,-158 28,-158 28,-158 22,-158 16,-152 16,-146 16,-146 16,-28 16,-28 16,-22 22,-16 28,-16"/>
<text text-anchor="middle" x="111.75" y="-146.8" font-family="Helvetica,sans-Serif" font-weight="bold" font-size="9.00">app</text>
</g>
<g id="clust3" class="cluster">
<title>cluster_src/app/timer</title>
<path fill="#ffffff" stroke="black" stroke-width="2" d="M36,-80C36,-80 84,-80 84,-80 90,-80 96,-86 96,-92 96,-92 96,-120 96,-120 96,-126 90,-132 84,-132 84,-132 36,-132 36,-132 30,-132 24,-126 24,-120 24,-120 24,-92 24,-92 24,-86 30,-80 36,-80"/>
<text text-anchor="middle" x="60" y="-120.8" font-family="Helvetica,sans-Serif" font-weight="bold" font-size="9.00">timer</text>
</g>
<g id="clust4" class="cluster">
<title>cluster_src/client</title>
<path fill="#ffffff" stroke="black" stroke-width="2" d="M116,-166C116,-166 574.5,-166 574.5,-166 580.5,-166 586.5,-172 586.5,-178 586.5,-178 586.5,-390 586.5,-390 586.5,-396 580.5,-402 574.5,-402 574.5,-402 116,-402 116,-402 110,-402 104,-396 104,-390 104,-390 104,-178 104,-178 104,-172 110,-166 116,-166"/>
<text text-anchor="middle" x="345.25" y="-390.8" font-family="Helvetica,sans-Serif" font-weight="bold" font-size="9.00">client</text>
</g>
<g id="clust5" class="cluster">
<title>cluster_src/client/components</title>
<path fill="#ffffff" stroke="black" stroke-width="2" d="M124,-234C124,-234 401,-234 401,-234 407,-234 413,-240 413,-246 413,-246 413,-364 413,-364 413,-370 407,-376 401,-376 401,-376 124,-376 124,-376 118,-376 112,-370 112,-364 112,-364 112,-246 112,-246 112,-240 118,-234 124,-234"/>
<text text-anchor="middle" x="262.5" y="-364.8" font-family="Helvetica,sans-Serif" font-weight="bold" font-size="9.00">components</text>
</g>
<g id="clust6" class="cluster">
<title>cluster_src/client/components/ui</title>
<path fill="#ffffff" stroke="black" stroke-width="2" d="M334.5,-242C334.5,-242 390.5,-242 390.5,-242 396.5,-242 402.5,-248 402.5,-254 402.5,-254 402.5,-312 402.5,-312 402.5,-318 396.5,-324 390.5,-324 390.5,-324 334.5,-324 334.5,-324 328.5,-324 322.5,-318 322.5,-312 322.5,-312 322.5,-254 322.5,-254 322.5,-248 328.5,-242 334.5,-242"/>
<text text-anchor="middle" x="362.5" y="-312.8" font-family="Helvetica,sans-Serif" font-weight="bold" font-size="9.00">ui</text>
</g>
<g id="clust7" class="cluster">
<title>cluster_src/client/hooks</title>
<path fill="#ffffff" stroke="black" stroke-width="2" d="M433,-174C433,-174 566.5,-174 566.5,-174 572.5,-174 578.5,-180 578.5,-186 578.5,-186 578.5,-214 578.5,-214 578.5,-220 572.5,-226 566.5,-226 566.5,-226 433,-226 433,-226 427,-226 421,-220 421,-214 421,-214 421,-186 421,-186 421,-180 427,-174 433,-174"/>
<text text-anchor="middle" x="499.75" y="-214.8" font-family="Helvetica,sans-Serif" font-weight="bold" font-size="9.00">hooks</text>
</g>
<g id="clust8" class="cluster">
<title>cluster_src/client/styles</title>
<path fill="#ffffff" stroke="black" stroke-width="2" d="M137.5,-174C137.5,-174 194.5,-174 194.5,-174 200.5,-174 206.5,-180 206.5,-186 206.5,-186 206.5,-214 206.5,-214 206.5,-220 200.5,-226 194.5,-226 194.5,-226 137.5,-226 137.5,-226 131.5,-226 125.5,-220 125.5,-214 125.5,-214 125.5,-186 125.5,-186 125.5,-180 131.5,-174 137.5,-174"/>
<text text-anchor="middle" x="166" y="-214.8" font-family="Helvetica,sans-Serif" font-weight="bold" font-size="9.00">styles</text>
</g>
<g id="clust9" class="cluster">
<title>cluster_src/lib</title>
<path fill="#ffffff" stroke="black" stroke-width="2" d="M511,-410C511,-410 652.5,-410 652.5,-410 658.5,-410 664.5,-416 664.5,-422 664.5,-422 664.5,-480 664.5,-480 664.5,-486 658.5,-492 652.5,-492 652.5,-492 511,-492 511,-492 505,-492 499,-486 499,-480 499,-480 499,-422 499,-422 499,-416 505,-410 511,-410"/>
<text text-anchor="middle" x="581.75" y="-480.8" font-family="Helvetica,sans-Serif" font-weight="bold" font-size="9.00">lib</text>
</g>
<g id="clust10" class="cluster">
<title>cluster_src/server</title>
<path fill="#ffffff" stroke="black" stroke-width="2" d="M503,-40C503,-40 739.5,-40 739.5,-40 745.5,-40 751.5,-46 751.5,-52 751.5,-52 751.5,-146 751.5,-146 751.5,-152 745.5,-158 739.5,-158 739.5,-158 503,-158 503,-158 497,-158 491,-152 491,-146 491,-146 491,-52 491,-52 491,-46 497,-40 503,-40"/>
<text text-anchor="middle" x="621.25" y="-146.8" font-family="Helvetica,sans-Serif" font-weight="bold" font-size="9.00">server</text>
</g>
<g id="clust11" class="cluster">
<title>cluster_src/server/actions</title>
<path fill="#ffffff" stroke="black" stroke-width="2" d="M511,-54C511,-54 557,-54 557,-54 563,-54 569,-60 569,-66 569,-66 569,-94 569,-94 569,-100 563,-106 557,-106 557,-106 511,-106 511,-106 505,-106 499,-100 499,-94 499,-94 499,-66 499,-66 499,-60 505,-54 511,-54"/>
<text text-anchor="middle" x="534" y="-94.8" font-family="Helvetica,sans-Serif" font-weight="bold" font-size="9.00">actions</text>
</g>
<g id="clust12" class="cluster">
<title>cluster_src/server/db</title>
<path fill="#ffffff" stroke="black" stroke-width="2" d="M606.5,-54C606.5,-54 731.5,-54 731.5,-54 737.5,-54 743.5,-60 743.5,-66 743.5,-66 743.5,-94 743.5,-94 743.5,-100 737.5,-106 731.5,-106 731.5,-106 606.5,-106 606.5,-106 600.5,-106 594.5,-100 594.5,-94 594.5,-94 594.5,-66 594.5,-66 594.5,-60 600.5,-54 606.5,-54"/>
<text text-anchor="middle" x="669" y="-94.8" font-family="Helvetica,sans-Serif" font-weight="bold" font-size="9.00">db</text>
</g>
<!-- src/app/layout.tsx -->
<g id="node1" class="node">
<title>src/app/layout.tsx</title>
<g id="a_node1"><a xlink:href="src/app/layout.tsx" xlink:title="layout.tsx">
<path fill="#bbfeff" stroke="black" d="M84.5,-42C84.5,-42 35.5,-42 35.5,-42 32.5,-42 29.5,-39 29.5,-36 29.5,-36 29.5,-30 29.5,-30 29.5,-27 32.5,-24 35.5,-24 35.5,-24 84.5,-24 84.5,-24 87.5,-24 90.5,-27 90.5,-30 90.5,-30 90.5,-36 90.5,-36 90.5,-39 87.5,-42 84.5,-42"/>
<text text-anchor="start" x="37.5" y="-30.8" font-family="Helvetica,sans-Serif" font-size="9.00">layout.tsx</text>
</a>
</g>
</g>
<!-- src/app/manifest.ts -->
<g id="node2" class="node">
<title>src/app/manifest.ts</title>
<g id="a_node2"><a xlink:href="src/app/manifest.ts" xlink:title="manifest.ts">
<path fill="#ddfeff" stroke="black" d="M193.5,-42C193.5,-42 138.5,-42 138.5,-42 135.5,-42 132.5,-39 132.5,-36 132.5,-36 132.5,-30 132.5,-30 132.5,-27 135.5,-24 138.5,-24 138.5,-24 193.5,-24 193.5,-24 196.5,-24 199.5,-27 199.5,-30 199.5,-30 199.5,-36 199.5,-36 199.5,-39 196.5,-42 193.5,-42"/>
<text text-anchor="start" x="140.5" y="-30.8" font-family="Helvetica,sans-Serif" font-size="9.00">manifest.ts</text>
</a>
</g>
</g>
<!-- src/app/layout.tsx&#45;&gt;src/app/manifest.ts -->
<g id="edge1" class="edge">
<title>src/app/layout.tsx&#45;&gt;src/app/manifest.ts</title>
<path fill="none" stroke="#000000" stroke-width="2" stroke-opacity="0.200000" d="M90.52,-33C101.67,-33 114.53,-33 126.39,-33"/>
<polygon fill="#000000" fill-opacity="0.200000" stroke="#000000" stroke-width="2" stroke-opacity="0.200000" points="126.48,-35.1 132.48,-33 126.48,-30.9 126.48,-35.1"/>
</g>
<!-- src/client/components/loading&#45;page.tsx -->
<g id="node3" class="node">
<title>src/client/components/loading&#45;page.tsx</title>
<g id="a_node3"><a xlink:href="src/client/components/loading-page.tsx" xlink:title="loading&#45;page.tsx">
<path fill="#bbfeff" stroke="black" d="M206,-260C206,-260 126,-260 126,-260 123,-260 120,-257 120,-254 120,-254 120,-248 120,-248 120,-245 123,-242 126,-242 126,-242 206,-242 206,-242 209,-242 212,-245 212,-248 212,-248 212,-254 212,-254 212,-257 209,-260 206,-260"/>
<text text-anchor="start" x="128" y="-248.8" font-family="Helvetica,sans-Serif" font-size="9.00">loading&#45;page.tsx</text>
</a>
</g>
</g>
<!-- src/app/layout.tsx&#45;&gt;src/client/components/loading&#45;page.tsx -->
<g id="edge2" class="edge">
<title>src/app/layout.tsx&#45;&gt;src/client/components/loading&#45;page.tsx</title>
<path fill="none" stroke="#000000" stroke-width="2" stroke-opacity="0.200000" d="M90.17,-42.13C92.42,-43.78 94.42,-45.72 96,-48 107.45,-64.56 92.07,-212.79 104,-229 106.91,-232.95 110.6,-236.2 114.71,-238.86"/>
<polygon fill="#000000" fill-opacity="0.200000" stroke="#000000" stroke-width="2" stroke-opacity="0.200000" points="113.87,-240.8 120.13,-241.93 115.94,-237.15 113.87,-240.8"/>
</g>
<!-- src/client/hooks/sync.tsx -->
<g id="node4" class="node">
<title>src/client/hooks/sync.tsx</title>
<g id="a_node4"><a xlink:href="src/client/hooks/sync.tsx" xlink:title="sync.tsx">
<path fill="#bbfeff" stroke="black" d="M477,-200C477,-200 435,-200 435,-200 432,-200 429,-197 429,-194 429,-194 429,-188 429,-188 429,-185 432,-182 435,-182 435,-182 477,-182 477,-182 480,-182 483,-185 483,-188 483,-188 483,-194 483,-194 483,-197 480,-200 477,-200"/>
<text text-anchor="start" x="437" y="-188.8" font-family="Helvetica,sans-Serif" font-size="9.00">sync.tsx</text>
</a>
</g>
</g>
<!-- src/app/layout.tsx&#45;&gt;src/client/hooks/sync.tsx -->
<g id="edge3" class="edge">
<title>src/app/layout.tsx&#45;&gt;src/client/hooks/sync.tsx</title>
<path fill="none" stroke="#000000" stroke-width="2" stroke-opacity="0.200000" d="M86.43,-42C162.07,-68.83 382.3,-147.37 413,-163 421.46,-167.31 430.29,-172.99 437.65,-178.1"/>
<polygon fill="#000000" fill-opacity="0.200000" stroke="#000000" stroke-width="2" stroke-opacity="0.200000" points="436.86,-180.12 442.97,-181.88 439.29,-176.69 436.86,-180.12"/>
</g>
<!-- src/client/styles/globals.css -->
<g id="node5" class="node">
<title>src/client/styles/globals.css</title>
<g id="a_node5"><a xlink:href="src/client/styles/globals.css" xlink:title="globals.css">
<path fill="#ffffcc" stroke="black" d="M192.5,-200C192.5,-200 139.5,-200 139.5,-200 136.5,-200 133.5,-197 133.5,-194 133.5,-194 133.5,-188 133.5,-188 133.5,-185 136.5,-182 139.5,-182 139.5,-182 192.5,-182 192.5,-182 195.5,-182 198.5,-185 198.5,-188 198.5,-188 198.5,-194 198.5,-194 198.5,-197 195.5,-200 192.5,-200"/>
<text text-anchor="start" x="141.5" y="-188.8" font-family="Helvetica,sans-Serif" font-size="9.00">globals.css</text>
</a>
</g>
</g>
<!-- src/app/layout.tsx&#45;&gt;src/client/styles/globals.css -->
<g id="edge4" class="edge">
<title>src/app/layout.tsx&#45;&gt;src/client/styles/globals.css</title>
<path fill="none" stroke="#000000" stroke-width="2" stroke-opacity="0.200000" d="M90.11,-42.18C92.37,-43.81 94.39,-45.74 96,-48 110.59,-68.51 89.95,-140.11 104,-161 109.67,-169.43 118.43,-175.59 127.56,-180.04"/>
<polygon fill="#000000" fill-opacity="0.200000" stroke="#000000" stroke-width="2" stroke-opacity="0.200000" points="126.93,-182.06 133.27,-182.6 128.65,-178.23 126.93,-182.06"/>
</g>
<!-- src/lib/time.ts -->
<g id="node10" class="node">
<title>src/lib/time.ts</title>
<g id="a_node10"><a xlink:href="src/lib/time.ts" xlink:title="time.ts">
<path fill="#ddfeff" stroke="black" d="M555,-466C555,-466 513,-466 513,-466 510,-466 507,-463 507,-460 507,-460 507,-454 507,-454 507,-451 510,-448 513,-448 513,-448 555,-448 555,-448 558,-448 561,-451 561,-454 561,-454 561,-460 561,-460 561,-463 558,-466 555,-466"/>
<text text-anchor="start" x="518" y="-454.8" font-family="Helvetica,sans-Serif" font-size="9.00">time.ts</text>
</a>
</g>
</g>
<!-- src/client/hooks/sync.tsx&#45;&gt;src/lib/time.ts -->
<g id="edge23" class="edge">
<title>src/client/hooks/sync.tsx&#45;&gt;src/lib/time.ts</title>
<path fill="none" stroke="#000000" stroke-width="2" stroke-opacity="0.200000" d="M479.88,-200.32C481.07,-201.42 482.13,-202.64 483,-204 497.29,-226.27 475.4,-420.63 491,-442 493.64,-445.61 497.22,-448.36 501.19,-450.44"/>
<polygon fill="#000000" fill-opacity="0.200000" stroke="#000000" stroke-width="2" stroke-opacity="0.200000" points="500.45,-452.41 506.79,-452.9 502.14,-448.57 500.45,-452.41"/>
</g>
<!-- src/client/db.ts -->
<g id="node13" class="node">
<title>src/client/db.ts</title>
<g id="a_node13"><a xlink:href="src/client/db.ts" xlink:title="db.ts">
<path fill="#ddfeff" stroke="black" d="M555,-258C555,-258 513,-258 513,-258 510,-258 507,-255 507,-252 507,-252 507,-246 507,-246 507,-243 510,-240 513,-240 513,-240 555,-240 555,-240 558,-240 561,-243 561,-246 561,-246 561,-252 561,-252 561,-255 558,-258 555,-258"/>
<text text-anchor="start" x="522" y="-246.8" font-family="Helvetica,sans-Serif" font-size="9.00">db.ts</text>
</a>
</g>
</g>
<!-- src/client/hooks/sync.tsx&#45;&gt;src/client/db.ts -->
<g id="edge21" class="edge">
<title>src/client/hooks/sync.tsx&#45;&gt;src/client/db.ts</title>
<path fill="none" stroke="#000000" stroke-width="2" stroke-opacity="0.200000" d="M478.98,-200.24C480.45,-201.37 481.82,-202.62 483,-204 490.59,-212.86 483.32,-220.21 491,-229 493.92,-232.35 497.53,-235.18 501.39,-237.56"/>
<polygon fill="#000000" fill-opacity="0.200000" stroke="#000000" stroke-width="2" stroke-opacity="0.200000" points="500.5,-239.47 506.77,-240.54 502.54,-235.79 500.5,-239.47"/>
</g>
<!-- src/lib/error.ts -->
<g id="node16" class="node">
<title>src/lib/error.ts</title>
<g id="a_node16"><a xlink:href="src/lib/error.ts" xlink:title="error.ts">
<path fill="#ddfeff" stroke="black" d="M650.5,-466C650.5,-466 608.5,-466 608.5,-466 605.5,-466 602.5,-463 602.5,-460 602.5,-460 602.5,-454 602.5,-454 602.5,-451 605.5,-448 608.5,-448 608.5,-448 650.5,-448 650.5,-448 653.5,-448 656.5,-451 656.5,-454 656.5,-454 656.5,-460 656.5,-460 656.5,-463 653.5,-466 650.5,-466"/>
<text text-anchor="start" x="613" y="-454.8" font-family="Helvetica,sans-Serif" font-size="9.00">error.ts</text>
</a>
</g>
</g>
<!-- src/client/hooks/sync.tsx&#45;&gt;src/lib/error.ts -->
<g id="edge22" class="edge">
<title>src/client/hooks/sync.tsx&#45;&gt;src/lib/error.ts</title>
<path fill="none" stroke="#000000" stroke-width="2" stroke-opacity="0.200000" d="M474.04,-181.87C501.28,-168.67 554.78,-148.67 586.5,-176 626.99,-210.89 629.03,-388.11 628.7,-441.66"/>
<polygon fill="#000000" fill-opacity="0.200000" stroke="#000000" stroke-width="2" stroke-opacity="0.200000" points="626.6,-441.81 628.64,-447.83 630.8,-441.84 626.6,-441.81"/>
</g>
<!-- src/client/hooks/useUserId.ts -->
<g id="node19" class="node">
<title>src/client/hooks/useUserId.ts</title>
<g id="a_node19"><a xlink:href="src/client/hooks/useUserId.ts" xlink:title="useUserId.ts">
<path fill="#ddfeff" stroke="black" d="M564.5,-200C564.5,-200 503.5,-200 503.5,-200 500.5,-200 497.5,-197 497.5,-194 497.5,-194 497.5,-188 497.5,-188 497.5,-185 500.5,-182 503.5,-182 503.5,-182 564.5,-182 564.5,-182 567.5,-182 570.5,-185 570.5,-188 570.5,-188 570.5,-194 570.5,-194 570.5,-197 567.5,-200 564.5,-200"/>
<text text-anchor="start" x="505.5" y="-188.8" font-family="Helvetica,sans-Serif" font-size="9.00">useUserId.ts</text>
</a>
</g>
</g>
<!-- src/client/hooks/sync.tsx&#45;&gt;src/client/hooks/useUserId.ts -->
<g id="edge20" class="edge">
<title>src/client/hooks/sync.tsx&#45;&gt;src/client/hooks/useUserId.ts</title>
<path fill="none" stroke="#000000" stroke-width="2" stroke-opacity="0.200000" d="M483.15,-191C485.72,-191 488.35,-191 491.02,-191"/>
<polygon fill="#000000" fill-opacity="0.200000" stroke="#000000" stroke-width="2" stroke-opacity="0.200000" points="491.27,-193.1 497.27,-191 491.27,-188.9 491.27,-193.1"/>
</g>
<!-- src/server/actions/index.ts -->
<g id="node20" class="node">
<title>src/server/actions/index.ts</title>
<g id="a_node20"><a xlink:href="src/server/actions/index.ts" xlink:title="index.ts">
<path fill="#ddfeff" stroke="black" d="M555,-80C555,-80 513,-80 513,-80 510,-80 507,-77 507,-74 507,-74 507,-68 507,-68 507,-65 510,-62 513,-62 513,-62 555,-62 555,-62 558,-62 561,-65 561,-68 561,-68 561,-74 561,-74 561,-77 558,-80 555,-80"/>
<text text-anchor="start" x="515.5" y="-68.8" font-family="Helvetica,sans-Serif" font-size="9.00">index.ts</text>
</a>
</g>
</g>
<!-- src/client/hooks/sync.tsx&#45;&gt;src/server/actions/index.ts -->
<g id="edge24" class="edge">
<title>src/client/hooks/sync.tsx&#45;&gt;src/server/actions/index.ts</title>
<path fill="none" stroke="#000000" stroke-width="2" stroke-opacity="0.200000" d="M462.71,-181.98C475.81,-161.31 508.08,-110.35 523.92,-85.33"/>
<polygon fill="#000000" fill-opacity="0.200000" stroke="#000000" stroke-width="2" stroke-opacity="0.200000" points="525.79,-86.32 527.22,-80.12 522.24,-84.07 525.79,-86.32"/>
</g>
<!-- src/app/page.tsx -->
<g id="node6" class="node">
<title>src/app/page.tsx</title>
<g id="a_node6"><a xlink:href="src/app/page.tsx" xlink:title="page.tsx">
<path fill="#bbfeff" stroke="black" d="M82,-72C82,-72 38,-72 38,-72 35,-72 32,-69 32,-66 32,-66 32,-60 32,-60 32,-57 35,-54 38,-54 38,-54 82,-54 82,-54 85,-54 88,-57 88,-60 88,-60 88,-66 88,-66 88,-69 85,-72 82,-72"/>
<text text-anchor="start" x="40" y="-60.8" font-family="Helvetica,sans-Serif" font-size="9.00">page.tsx</text>
</a>
</g>
</g>
<!-- src/client/components/home&#45;page.tsx -->
<g id="node7" class="node">
<title>src/client/components/home&#45;page.tsx</title>
<g id="a_node7"><a xlink:href="src/client/components/home-page.tsx" xlink:title="home&#45;page.tsx">
<path fill="#bbfeff" stroke="black" d="M202,-294C202,-294 130,-294 130,-294 127,-294 124,-291 124,-288 124,-288 124,-282 124,-282 124,-279 127,-276 130,-276 130,-276 202,-276 202,-276 205,-276 208,-279 208,-282 208,-282 208,-288 208,-288 208,-291 205,-294 202,-294"/>
<text text-anchor="start" x="132" y="-282.8" font-family="Helvetica,sans-Serif" font-size="9.00">home&#45;page.tsx</text>
</a>
</g>
</g>
<!-- src/app/page.tsx&#45;&gt;src/client/components/home&#45;page.tsx -->
<g id="edge5" class="edge">
<title>src/app/page.tsx&#45;&gt;src/client/components/home&#45;page.tsx</title>
<path fill="none" stroke="#000000" stroke-width="2" stroke-opacity="0.200000" d="M88.17,-70.01C91.22,-71.83 93.96,-74.12 96,-77 108.15,-94.15 91.19,-249.34 104,-266 107.75,-270.88 112.75,-274.54 118.26,-277.27"/>
<polygon fill="#000000" fill-opacity="0.200000" stroke="#000000" stroke-width="2" stroke-opacity="0.200000" points="117.59,-279.27 123.93,-279.71 119.25,-275.41 117.59,-279.27"/>
</g>
<!-- src/client/components/timer&#45;form.tsx -->
<g id="node11" class="node">
<title>src/client/components/timer&#45;form.tsx</title>
<g id="a_node11"><a xlink:href="src/client/components/timer-form.tsx" xlink:title="timer&#45;form.tsx">
<path fill="#bbfeff" stroke="black" d="M300,-296C300,-296 232,-296 232,-296 229,-296 226,-293 226,-290 226,-290 226,-284 226,-284 226,-281 229,-278 232,-278 232,-278 300,-278 300,-278 303,-278 306,-281 306,-284 306,-284 306,-290 306,-290 306,-293 303,-296 300,-296"/>
<text text-anchor="start" x="234" y="-284.8" font-family="Helvetica,sans-Serif" font-size="9.00">timer&#45;form.tsx</text>
</a>
</g>
</g>
<!-- src/client/components/home&#45;page.tsx&#45;&gt;src/client/components/timer&#45;form.tsx -->
<g id="edge8" class="edge">
<title>src/client/components/home&#45;page.tsx&#45;&gt;src/client/components/timer&#45;form.tsx</title>
<path fill="none" stroke="#000000" stroke-width="2" stroke-opacity="0.200000" d="M208.28,-285.84C212.12,-285.92 216.03,-286 219.91,-286.08"/>
<polygon fill="#000000" fill-opacity="0.200000" stroke="#000000" stroke-width="2" stroke-opacity="0.200000" points="219.92,-288.18 225.96,-286.2 220,-283.98 219.92,-288.18"/>
</g>
<!-- src/app/timer/page.tsx -->
<g id="node8" class="node">
<title>src/app/timer/page.tsx</title>
<g id="a_node8"><a xlink:href="src/app/timer/page.tsx" xlink:title="page.tsx">
<path fill="#bbfeff" stroke="black" d="M82,-106C82,-106 38,-106 38,-106 35,-106 32,-103 32,-100 32,-100 32,-94 32,-94 32,-91 35,-88 38,-88 38,-88 82,-88 82,-88 85,-88 88,-91 88,-94 88,-94 88,-100 88,-100 88,-103 85,-106 82,-106"/>
<text text-anchor="start" x="40" y="-94.8" font-family="Helvetica,sans-Serif" font-size="9.00">page.tsx</text>
</a>
</g>
</g>
<!-- src/client/components/timer&#45;page.tsx -->
<g id="node9" class="node">
<title>src/client/components/timer&#45;page.tsx</title>
<g id="a_node9"><a xlink:href="src/client/components/timer-page.tsx" xlink:title="timer&#45;page.tsx">
<path fill="#bbfeff" stroke="black" d="M301,-339C301,-339 231,-339 231,-339 228,-339 225,-336 225,-333 225,-333 225,-327 225,-327 225,-324 228,-321 231,-321 231,-321 301,-321 301,-321 304,-321 307,-324 307,-327 307,-327 307,-333 307,-333 307,-336 304,-339 301,-339"/>
<text text-anchor="start" x="233" y="-327.8" font-family="Helvetica,sans-Serif" font-size="9.00">timer&#45;page.tsx</text>
</a>
</g>
</g>
<!-- src/app/timer/page.tsx&#45;&gt;src/client/components/timer&#45;page.tsx -->
<g id="edge6" class="edge">
<title>src/app/timer/page.tsx&#45;&gt;src/client/components/timer&#45;page.tsx</title>
<path fill="none" stroke="#000000" stroke-width="2" stroke-opacity="0.200000" d="M61.63,-106.27C64.27,-142.3 75.64,-272.32 104,-300 133.91,-329.19 182.56,-334.75 218.56,-334.19"/>
<polygon fill="#000000" fill-opacity="0.200000" stroke="#000000" stroke-width="2" stroke-opacity="0.200000" points="218.73,-336.29 224.67,-334.04 218.62,-332.09 218.73,-336.29"/>
</g>
<!-- src/app/timer/page.tsx&#45;&gt;src/lib/time.ts -->
<g id="edge7" class="edge">
<title>src/app/timer/page.tsx&#45;&gt;src/lib/time.ts</title>
<path fill="none" stroke="#000000" stroke-width="2" stroke-opacity="0.200000" d="M61.43,-106.04C63.6,-148.9 74.47,-331.61 104,-379 150.09,-452.98 177.83,-491 265,-491 265,-491 265,-491 363.5,-491 412.1,-491 467.03,-477.4 500.84,-467.4"/>
<polygon fill="#000000" fill-opacity="0.200000" stroke="#000000" stroke-width="2" stroke-opacity="0.200000" points="501.76,-469.32 506.9,-465.58 500.55,-465.29 501.76,-469.32"/>
</g>
<!-- src/client/components/timer&#45;page.tsx&#45;&gt;src/lib/time.ts -->
<g id="edge16" class="edge">
<title>src/client/components/timer&#45;page.tsx&#45;&gt;src/lib/time.ts</title>
<path fill="none" stroke="#000000" stroke-width="2" stroke-opacity="0.200000" d="M270.67,-339.25C277.68,-355.62 294.54,-389.61 320,-407 375.57,-444.96 456.24,-454.32 500.65,-456.49"/>
<polygon fill="#000000" fill-opacity="0.200000" stroke="#000000" stroke-width="2" stroke-opacity="0.200000" points="500.59,-458.59 506.67,-456.75 500.77,-454.4 500.59,-458.59"/>
</g>
<!-- src/client/components/timer&#45;page.tsx&#45;&gt;src/client/db.ts -->
<g id="edge12" class="edge">
<title>src/client/components/timer&#45;page.tsx&#45;&gt;src/client/db.ts</title>
<path fill="none" stroke="#000000" stroke-width="2" stroke-opacity="0.200000" d="M285.78,-320.92C293.47,-316.28 301.78,-309.93 307,-302 322.71,-278.11 297.84,-257.06 320,-239 336.02,-225.95 392.35,-238.14 413,-239 442.72,-240.24 476.47,-243.19 500.59,-245.57"/>
<polygon fill="#000000" fill-opacity="0.200000" stroke="#000000" stroke-width="2" stroke-opacity="0.200000" points="500.64,-247.68 506.82,-246.19 501.06,-243.5 500.64,-247.68"/>
</g>
<!-- src/client/components/ui/link.tsx -->
<g id="node14" class="node">
<title>src/client/components/ui/link.tsx</title>
<g id="a_node14"><a xlink:href="src/client/components/ui/link.tsx" xlink:title="link.tsx">
<path fill="#bbfeff" stroke="black" d="M383.5,-268C383.5,-268 341.5,-268 341.5,-268 338.5,-268 335.5,-265 335.5,-262 335.5,-262 335.5,-256 335.5,-256 335.5,-253 338.5,-250 341.5,-250 341.5,-250 383.5,-250 383.5,-250 386.5,-250 389.5,-253 389.5,-256 389.5,-256 389.5,-262 389.5,-262 389.5,-265 386.5,-268 383.5,-268"/>
<text text-anchor="start" x="346" y="-256.8" font-family="Helvetica,sans-Serif" font-size="9.00">link.tsx</text>
</a>
</g>
</g>
<!-- src/client/components/timer&#45;page.tsx&#45;&gt;src/client/components/ui/link.tsx -->
<g id="edge13" class="edge">
<title>src/client/components/timer&#45;page.tsx&#45;&gt;src/client/components/ui/link.tsx</title>
<path fill="none" stroke="#000000" stroke-width="2" stroke-opacity="0.200000" d="M284.14,-320.8C291.88,-315.99 300.69,-309.54 307,-302 315.81,-291.48 309.88,-283.27 320,-274 322.82,-271.42 326.11,-269.27 329.59,-267.49"/>
<polygon fill="#000000" fill-opacity="0.200000" stroke="#000000" stroke-width="2" stroke-opacity="0.200000" points="330.56,-269.36 335.17,-264.99 328.84,-265.53 330.56,-269.36"/>
</g>
<!-- src/client/components/visual&#45;timer.tsx -->
<g id="node15" class="node">
<title>src/client/components/visual&#45;timer.tsx</title>
<g id="a_node15"><a xlink:href="src/client/components/visual-timer.tsx" xlink:title="visual&#45;timer.tsx">
<path fill="#bbfeff" stroke="black" d="M399,-350C399,-350 326,-350 326,-350 323,-350 320,-347 320,-344 320,-344 320,-338 320,-338 320,-335 323,-332 326,-332 326,-332 399,-332 399,-332 402,-332 405,-335 405,-338 405,-338 405,-344 405,-344 405,-347 402,-350 399,-350"/>
<text text-anchor="start" x="328" y="-338.8" font-family="Helvetica,sans-Serif" font-size="9.00">visual&#45;timer.tsx</text>
</a>
</g>
</g>
<!-- src/client/components/timer&#45;page.tsx&#45;&gt;src/client/components/visual&#45;timer.tsx -->
<g id="edge14" class="edge">
<title>src/client/components/timer&#45;page.tsx&#45;&gt;src/client/components/visual&#45;timer.tsx</title>
<path fill="none" stroke="#000000" stroke-width="2" stroke-opacity="0.200000" d="M307.08,-334.66C309.32,-334.93 311.59,-335.19 313.86,-335.45"/>
<polygon fill="#000000" fill-opacity="0.200000" stroke="#000000" stroke-width="2" stroke-opacity="0.200000" points="313.65,-337.54 319.85,-336.15 314.13,-333.37 313.65,-337.54"/>
</g>
<!-- src/client/components/timer&#45;page.tsx&#45;&gt;src/lib/error.ts -->
<g id="edge15" class="edge">
<title>src/client/components/timer&#45;page.tsx&#45;&gt;src/lib/error.ts</title>
<path fill="none" stroke="#000000" stroke-width="2" stroke-opacity="0.200000" d="M269.24,-339.28C274.51,-359.01 289.57,-405.25 320,-429 414.57,-502.83 468.28,-492.48 586.5,-472 591.54,-471.13 596.79,-469.7 601.78,-468.07"/>
<polygon fill="#000000" fill-opacity="0.200000" stroke="#000000" stroke-width="2" stroke-opacity="0.200000" points="602.54,-470.03 607.52,-466.08 601.16,-466.07 602.54,-470.03"/>
</g>
<!-- src/lib/time.ts&#45;&gt;src/lib/error.ts -->
<g id="edge27" class="edge">
<title>src/lib/time.ts&#45;&gt;src/lib/error.ts</title>
<path fill="none" stroke="#000000" stroke-width="2" stroke-opacity="0.200000" d="M561.04,-457C571.9,-457 584.61,-457 596.06,-457"/>
<polygon fill="#000000" fill-opacity="0.200000" stroke="#000000" stroke-width="2" stroke-opacity="0.200000" points="596.27,-459.1 602.27,-457 596.27,-454.9 596.27,-459.1"/>
</g>
<!-- src/client/components/timer&#45;form.tsx&#45;&gt;src/lib/time.ts -->
<g id="edge11" class="edge">
<title>src/client/components/timer&#45;form.tsx&#45;&gt;src/lib/time.ts</title>
<path fill="none" stroke="#000000" stroke-width="2" stroke-opacity="0.200000" d="M284.99,-296.1C292.72,-300.81 301.28,-307.21 307,-315 318.32,-330.41 307.6,-341.45 320,-356 333.8,-372.18 471.45,-433.63 491,-442 494.11,-443.33 497.39,-444.65 500.68,-445.91"/>
<polygon fill="#000000" fill-opacity="0.200000" stroke="#000000" stroke-width="2" stroke-opacity="0.200000" points="500.24,-447.99 506.59,-448.13 501.71,-444.06 500.24,-447.99"/>
</g>
<!-- src/client/components/ui/button.tsx -->
<g id="node12" class="node">
<title>src/client/components/ui/button.tsx</title>
<g id="a_node12"><a xlink:href="src/client/components/ui/button.tsx" xlink:title="button.tsx">
<path fill="#bbfeff" stroke="black" d="M388.5,-298C388.5,-298 336.5,-298 336.5,-298 333.5,-298 330.5,-295 330.5,-292 330.5,-292 330.5,-286 330.5,-286 330.5,-283 333.5,-280 336.5,-280 336.5,-280 388.5,-280 388.5,-280 391.5,-280 394.5,-283 394.5,-286 394.5,-286 394.5,-292 394.5,-292 394.5,-295 391.5,-298 388.5,-298"/>
<text text-anchor="start" x="338.5" y="-286.8" font-family="Helvetica,sans-Serif" font-size="9.00">button.tsx</text>
</a>
</g>
</g>
<!-- src/client/components/timer&#45;form.tsx&#45;&gt;src/client/components/ui/button.tsx -->
<g id="edge9" class="edge">
<title>src/client/components/timer&#45;form.tsx&#45;&gt;src/client/components/ui/button.tsx</title>
<path fill="none" stroke="#000000" stroke-width="2" stroke-opacity="0.200000" d="M306.26,-287.83C312.14,-287.96 318.19,-288.08 324.04,-288.21"/>
<polygon fill="#000000" fill-opacity="0.200000" stroke="#000000" stroke-width="2" stroke-opacity="0.200000" points="324.24,-290.31 330.28,-288.34 324.33,-286.11 324.24,-290.31"/>
</g>
<!-- src/client/components/timer&#45;form.tsx&#45;&gt;src/client/db.ts -->
<g id="edge10" class="edge">
<title>src/client/components/timer&#45;form.tsx&#45;&gt;src/client/db.ts</title>
<path fill="none" stroke="#000000" stroke-width="2" stroke-opacity="0.200000" d="M272.03,-277.77C280.08,-264.1 297.28,-239.01 320,-229 357.82,-212.33 371.81,-225.59 413,-229 443.08,-231.49 476.96,-237.43 501.04,-242.19"/>
<polygon fill="#000000" fill-opacity="0.200000" stroke="#000000" stroke-width="2" stroke-opacity="0.200000" points="500.64,-244.26 506.94,-243.38 501.47,-240.14 500.64,-244.26"/>
</g>
<!-- src/lib/utils.ts -->
<g id="node17" class="node">
<title>src/lib/utils.ts</title>
<g id="a_node17"><a xlink:href="src/lib/utils.ts" xlink:title="utils.ts">
<path fill="#ddfeff" stroke="black" d="M555,-436C555,-436 513,-436 513,-436 510,-436 507,-433 507,-430 507,-430 507,-424 507,-424 507,-421 510,-418 513,-418 513,-418 555,-418 555,-418 558,-418 561,-421 561,-424 561,-424 561,-430 561,-430 561,-433 558,-436 555,-436"/>
<text text-anchor="start" x="518.5" y="-424.8" font-family="Helvetica,sans-Serif" font-size="9.00">utils.ts</text>
</a>
</g>
</g>
<!-- src/client/components/ui/button.tsx&#45;&gt;src/lib/utils.ts -->
<g id="edge17" class="edge">
<title>src/client/components/ui/button.tsx&#45;&gt;src/lib/utils.ts</title>
<path fill="none" stroke="#000000" stroke-width="2" stroke-opacity="0.200000" d="M394.6,-291.35C401.54,-293.32 408.24,-296.6 413,-302 431.07,-322.52 405.84,-340.24 421,-363 438.66,-389.52 456.43,-381.41 483,-399 486.71,-401.45 487.24,-402.63 491,-405 496.65,-408.57 502.94,-412.08 508.89,-415.22"/>
<polygon fill="#000000" fill-opacity="0.200000" stroke="#000000" stroke-width="2" stroke-opacity="0.200000" points="507.95,-417.1 514.24,-417.99 509.88,-413.37 507.95,-417.1"/>
</g>
<!-- src/client/components/ui/link.tsx&#45;&gt;src/client/db.ts -->
<g id="edge18" class="edge">
<title>src/client/components/ui/link.tsx&#45;&gt;src/client/db.ts</title>
<path fill="none" stroke="#000000" stroke-opacity="0.200000" d="M389.62,-257.91C413.84,-256.85 450.87,-255.09 483,-253 488.68,-252.63 494.72,-252.19 500.56,-251.74"/>
<polygon fill="none" stroke="#000000" stroke-opacity="0.200000" points="500.99,-253.81 506.8,-251.24 500.65,-249.62 500.99,-253.81"/>
</g>
<!-- src/client/nav.ts -->
<g id="node18" class="node">
<title>src/client/nav.ts</title>
<g id="a_node18"><a xlink:href="src/client/nav.ts" xlink:title="nav.ts">
<path fill="#ddfeff" stroke="black" d="M477,-294C477,-294 435,-294 435,-294 432,-294 429,-291 429,-288 429,-288 429,-282 429,-282 429,-279 432,-276 435,-276 435,-276 477,-276 477,-276 480,-276 483,-279 483,-282 483,-282 483,-288 483,-288 483,-291 480,-294 477,-294"/>
<text text-anchor="start" x="442" y="-282.8" font-family="Helvetica,sans-Serif" font-size="9.00">nav.ts</text>
</a>
</g>
</g>
<!-- src/client/components/ui/link.tsx&#45;&gt;src/client/nav.ts -->
<g id="edge19" class="edge">
<title>src/client/components/ui/link.tsx&#45;&gt;src/client/nav.ts</title>
<path fill="none" stroke="#000000" stroke-width="2" stroke-opacity="0.200000" d="M389.97,-266.52C400.3,-269.46 412.24,-272.85 423.04,-275.92"/>
<polygon fill="#000000" fill-opacity="0.200000" stroke="#000000" stroke-width="2" stroke-opacity="0.200000" points="422.56,-277.97 428.91,-277.59 423.71,-273.93 422.56,-277.97"/>
</g>
<!-- src/client/nav.ts&#45;&gt;src/lib/time.ts -->
<g id="edge26" class="edge">
<title>src/client/nav.ts&#45;&gt;src/lib/time.ts</title>
<path fill="none" stroke="#000000" stroke-width="2" stroke-opacity="0.200000" d="M459.21,-294.13C463.87,-313.44 474.89,-359.84 483,-399 486.94,-418.04 478.39,-427.21 491,-442 493.83,-445.32 497.45,-447.91 501.38,-449.92"/>
<polygon fill="#000000" fill-opacity="0.200000" stroke="#000000" stroke-width="2" stroke-opacity="0.200000" points="500.54,-451.85 506.88,-452.33 502.22,-448 500.54,-451.85"/>
</g>
<!-- src/client/nav.ts&#45;&gt;src/client/db.ts -->
<g id="edge25" class="edge">
<title>src/client/nav.ts&#45;&gt;src/client/db.ts</title>
<path fill="none" stroke="#000000" stroke-opacity="0.200000" d="M476.18,-275.92C485.9,-271.31 497.82,-265.67 508.23,-260.74"/>
<polygon fill="none" stroke="#000000" stroke-opacity="0.200000" points="509.3,-262.55 513.83,-258.08 507.51,-258.75 509.3,-262.55"/>
</g>
<!-- src/server/db/schema.ts -->
<g id="node21" class="node">
<title>src/server/db/schema.ts</title>
<g id="a_node21"><a xlink:href="src/server/db/schema.ts" xlink:title="schema.ts">
<path fill="#ddfeff" stroke="black" d="M729.5,-80C729.5,-80 678.5,-80 678.5,-80 675.5,-80 672.5,-77 672.5,-74 672.5,-74 672.5,-68 672.5,-68 672.5,-65 675.5,-62 678.5,-62 678.5,-62 729.5,-62 729.5,-62 732.5,-62 735.5,-65 735.5,-68 735.5,-68 735.5,-74 735.5,-74 735.5,-77 732.5,-80 729.5,-80"/>
<text text-anchor="start" x="680.5" y="-68.8" font-family="Helvetica,sans-Serif" font-size="9.00">schema.ts</text>
</a>
</g>
</g>
<!-- src/server/actions/index.ts&#45;&gt;src/server/db/schema.ts -->
<g id="edge28" class="edge">
<title>src/server/actions/index.ts&#45;&gt;src/server/db/schema.ts</title>
<path fill="none" stroke="#000000" stroke-width="2" stroke-opacity="0.200000" d="M561.1,-62.94C571.4,-60.15 583.4,-57.38 594.5,-56 625.37,-52.17 633.92,-50.25 664.5,-56 668.96,-56.84 673.57,-58.18 677.97,-59.72"/>
<polygon fill="#000000" fill-opacity="0.200000" stroke="#000000" stroke-width="2" stroke-opacity="0.200000" points="677.47,-61.78 683.83,-61.92 678.95,-57.84 677.47,-61.78"/>
</g>
<!-- src/server/db/index.ts -->
<g id="node22" class="node">
<title>src/server/db/index.ts</title>
<g id="a_node22"><a xlink:href="src/server/db/index.ts" xlink:title="index.ts">
<path fill="#ddfeff" stroke="black" d="M650.5,-80C650.5,-80 608.5,-80 608.5,-80 605.5,-80 602.5,-77 602.5,-74 602.5,-74 602.5,-68 602.5,-68 602.5,-65 605.5,-62 608.5,-62 608.5,-62 650.5,-62 650.5,-62 653.5,-62 656.5,-65 656.5,-68 656.5,-68 656.5,-74 656.5,-74 656.5,-77 653.5,-80 650.5,-80"/>
<text text-anchor="start" x="611" y="-68.8" font-family="Helvetica,sans-Serif" font-size="9.00">index.ts</text>
</a>
</g>
</g>
<!-- src/server/actions/index.ts&#45;&gt;src/server/db/index.ts -->
<g id="edge29" class="edge">
<title>src/server/actions/index.ts&#45;&gt;src/server/db/index.ts</title>
<path fill="none" stroke="#000000" stroke-width="2" stroke-opacity="0.200000" d="M561.04,-71C571.9,-71 584.61,-71 596.06,-71"/>
<polygon fill="#000000" fill-opacity="0.200000" stroke="#000000" stroke-width="2" stroke-opacity="0.200000" points="596.27,-73.1 602.27,-71 596.27,-68.9 596.27,-73.1"/>
</g>
<!-- src/server/db/index.ts&#45;&gt;src/server/db/schema.ts -->
<g id="edge30" class="edge">
<title>src/server/db/index.ts&#45;&gt;src/server/db/schema.ts</title>
<path fill="none" stroke="#000000" stroke-width="2" stroke-opacity="0.200000" d="M656.67,-71C659.66,-71 662.75,-71 665.84,-71"/>
<polygon fill="#000000" fill-opacity="0.200000" stroke="#000000" stroke-width="2" stroke-opacity="0.200000" points="666.17,-73.1 672.17,-71 666.17,-68.9 666.17,-73.1"/>
</g>
<!-- src/server/env.ts -->
<g id="node23" class="node">
<title>src/server/env.ts</title>
<g id="a_node23"><a xlink:href="src/server/env.ts" xlink:title="env.ts">
<path fill="#ddfeff" stroke="black" d="M725,-132C725,-132 683,-132 683,-132 680,-132 677,-129 677,-126 677,-126 677,-120 677,-120 677,-117 680,-114 683,-114 683,-114 725,-114 725,-114 728,-114 731,-117 731,-120 731,-120 731,-126 731,-126 731,-129 728,-132 725,-132"/>
<text text-anchor="start" x="690" y="-120.8" font-family="Helvetica,sans-Serif" font-size="9.00">env.ts</text>
</a>
</g>
</g>
<!-- src/server/db/index.ts&#45;&gt;src/server/env.ts -->
<g id="edge31" class="edge">
<title>src/server/db/index.ts&#45;&gt;src/server/env.ts</title>
<path fill="none" stroke="#000000" stroke-width="2" stroke-opacity="0.200000" d="M639.17,-80.32C647.23,-88.61 659.86,-100.66 672.5,-109 673.49,-109.65 674.51,-110.28 675.55,-110.9"/>
<polygon fill="#000000" fill-opacity="0.200000" stroke="#000000" stroke-width="2" stroke-opacity="0.200000" points="674.63,-112.8 680.91,-113.84 676.66,-109.11 674.63,-112.8"/>
</g>
</g>
</svg>
